<svg width="120" height="121" viewBox="0 0 120 121" fill="none" xmlns="http://www.w3.org/2000/svg">
<path d="M60.5529 9.98327L64.9387 0.846291L67.0091 1.04778L69.538 10.8577L67.603 10.6694L65.7644 3.03068L62.4744 10.1703L60.5529 9.98327ZM62.2914 7.98011L62.9168 6.6064L67.7341 7.07523L68.0694 8.54244L62.2914 7.98011Z" fill="#E2A76F"/>
<path d="M74.6781 12.517C74.339 12.417 74.0475 12.2839 73.8036 12.1175C73.5684 11.9537 73.3682 11.7671 73.2031 11.5578C73.0492 11.3423 72.9309 11.1184 72.8482 10.8861L72.4028 11.6763L70.8378 11.2151L73.6045 1.82349L75.3651 2.34234L74.2661 6.0729C74.5644 5.83004 74.9126 5.65857 75.3106 5.55849C75.7198 5.45227 76.1809 5.47475 76.6939 5.62592C77.3025 5.80528 77.7967 6.11631 78.1765 6.55903C78.5676 6.99562 78.8211 7.5145 78.9369 8.11569C79.0639 8.71074 79.0289 9.34306 78.8316 10.0127C78.6395 10.6649 78.3275 11.2108 77.8955 11.6506C77.4723 12.0929 76.9824 12.3927 76.4258 12.55C75.8692 12.7073 75.2866 12.6963 74.6781 12.517ZM74.7142 10.8548C75.0619 10.9573 75.3893 10.9687 75.6962 10.889C76.0144 10.8032 76.2884 10.643 76.5182 10.4083C76.7505 10.1649 76.9218 9.8562 77.0319 9.48227C77.1421 9.10835 77.1655 8.75612 77.1022 8.4256C77.0415 8.08638 76.8995 7.79879 76.6761 7.56283C76.4639 7.32074 76.1839 7.14845 75.8362 7.04596C75.4971 6.94604 75.1685 6.93897 74.8503 7.02477C74.5433 7.10443 74.2694 7.26468 74.0283 7.50553C73.796 7.74894 73.6247 8.0576 73.5146 8.43153C73.4044 8.80546 73.3797 9.16203 73.4404 9.50125C73.5124 9.83434 73.6557 10.1176 73.8704 10.351C74.0938 10.5869 74.3751 10.7549 74.7142 10.8548Z" fill="#E2A76F"/>
<path d="M82.4562 15.6364C81.8735 15.3428 81.4147 14.9441 81.0798 14.4405C80.7571 13.9328 80.5784 13.3708 80.5437 12.7545C80.5213 12.1342 80.667 11.5124 80.9809 10.8891C81.303 10.2495 81.7179 9.75823 82.2255 9.41517C82.7453 9.0681 83.3072 8.87924 83.9112 8.84861C84.5193 8.80989 85.1147 8.93733 85.6974 9.23094C86.2883 9.52862 86.7451 9.93131 87.0678 10.439C87.4027 10.9427 87.5814 11.5046 87.6038 12.1249C87.6385 12.7412 87.4968 13.3651 87.1788 13.9965C86.8608 14.6279 86.4419 15.1172 85.922 15.4643C85.4144 15.8073 84.8565 15.9982 84.2485 16.037C83.6445 16.0676 83.0471 15.9341 82.4562 15.6364ZM83.1718 14.2156C83.447 14.3543 83.7224 14.4119 83.9981 14.3884C84.2818 14.3689 84.5517 14.2562 84.8076 14.0502C85.0717 13.8483 85.3036 13.5491 85.5034 13.1524C85.7031 12.7557 85.8035 12.3952 85.8045 12.0709C85.8176 11.7426 85.7475 11.4586 85.5942 11.219C85.4531 10.9754 85.249 10.7862 84.9819 10.6517C84.7229 10.5212 84.4495 10.4697 84.1616 10.4972C83.8779 10.5166 83.604 10.6273 83.3399 10.8292C83.0881 11.0271 82.8622 11.3244 82.6625 11.721C82.4627 12.1177 82.3562 12.4802 82.3431 12.8085C82.338 13.1409 82.4081 13.4249 82.5533 13.6604C82.7066 13.9001 82.9128 14.0851 83.1718 14.2156Z" fill="#E2A76F"/>
<path d="M89.3332 19.8076C88.8891 19.4783 88.5744 19.1038 88.389 18.6843C88.2163 18.2628 88.1785 17.8116 88.2756 17.3306C88.378 16.8424 88.6263 16.3325 89.0203 15.801L91.3926 12.6008L92.8668 13.6941L90.6078 16.7413C90.2786 17.1855 90.1213 17.5879 90.1359 17.9486C90.1579 18.3147 90.3618 18.6408 90.7476 18.9269C90.9951 19.1105 91.254 19.2178 91.5242 19.249C91.7999 19.2729 92.0706 19.2197 92.3363 19.0895C92.6147 18.9575 92.87 18.7349 93.1021 18.4218L95.28 15.4838L96.7433 16.5689L92.6626 22.0736L91.3741 21.118L91.9179 20.1334C91.5256 20.3277 91.1028 20.4034 90.6494 20.3606C90.2015 20.3105 89.7627 20.1262 89.3332 19.8076Z" fill="#E2A76F"/>
<path d="M96.1985 25.5375C95.8571 25.1994 95.6086 24.8513 95.453 24.4931C95.3103 24.1348 95.2892 23.7631 95.3898 23.378C95.4968 22.9864 95.764 22.5748 96.1912 22.1432L98.2383 20.0753L97.4074 19.2525L98.4883 18.1605L99.3192 18.9833L100.775 17.803L101.934 18.9511L100.623 20.275L101.908 21.5475L100.827 22.6394L99.5425 21.3669L97.4764 23.4541C97.2595 23.6732 97.158 23.8724 97.1717 24.0518C97.1854 24.2313 97.3082 24.4358 97.5401 24.6654L98.1777 25.2969L97.0777 26.4081L96.1985 25.5375Z" fill="#E2A76F"/>
<path d="M102.647 34.1114C102.279 33.5179 102.065 32.9044 102.003 32.2709C101.941 31.6374 102.061 31.0301 102.362 30.449C102.663 29.8679 103.184 29.3482 103.923 28.89L108.894 25.8114L109.86 27.3721L104.878 30.4579C104.477 30.7061 104.179 30.9816 103.983 31.2845C103.794 31.5826 103.711 31.8955 103.732 32.2233C103.759 32.5587 103.879 32.8999 104.094 33.2467C104.314 33.6013 104.565 33.8613 104.849 34.0268C105.137 34.2 105.457 34.2686 105.808 34.2325C106.166 34.1917 106.546 34.0472 106.947 33.799L111.929 30.7133L112.895 32.274L107.925 35.3526C107.185 35.8108 106.486 36.0414 105.826 36.0445C105.167 36.0475 104.563 35.8726 104.014 35.5196C103.47 35.1742 103.014 34.7049 102.647 34.1114Z" fill="#E2A76F"/>
<path d="M106.553 41.8385C106.319 41.2585 106.208 40.7168 106.22 40.2135C106.232 39.7101 106.353 39.2705 106.582 38.8944C106.812 38.5184 107.126 38.2305 107.524 38.0307L108.205 39.7203C108.063 39.8268 107.944 39.9576 107.85 40.1127C107.765 40.2645 107.719 40.4397 107.711 40.6383C107.703 40.837 107.746 41.054 107.841 41.2893C107.933 41.5163 108.037 41.6894 108.153 41.8085C108.278 41.9243 108.409 41.9938 108.545 42.017C108.685 42.0485 108.814 42.0406 108.931 41.9931C109.108 41.9219 109.222 41.8172 109.274 41.679C109.334 41.5374 109.354 41.3581 109.335 41.141C109.316 40.924 109.28 40.6648 109.227 40.3637C109.164 40.0373 109.115 39.7101 109.08 39.382C109.057 39.0589 109.067 38.7567 109.11 38.4755C109.153 38.1942 109.253 37.944 109.409 37.7247C109.564 37.5054 109.798 37.333 110.109 37.2076C110.487 37.055 110.864 37.0202 111.239 37.1033C111.623 37.1829 111.982 37.3805 112.314 37.696C112.646 38.0114 112.923 38.4424 113.143 38.9888C113.452 39.7537 113.524 40.4285 113.359 41.0131C113.194 41.5976 112.826 42.054 112.255 42.3823L111.609 40.7809C111.782 40.6524 111.887 40.4779 111.925 40.2573C111.975 40.0417 111.942 39.791 111.827 39.5052C111.705 39.2026 111.557 38.9934 111.383 38.8778C111.21 38.7622 111.035 38.74 110.858 38.8112C110.741 38.8587 110.656 38.9515 110.604 39.0897C110.556 39.2362 110.537 39.4198 110.548 39.6402C110.567 39.8573 110.603 40.1164 110.656 40.4176C110.752 40.9458 110.807 41.422 110.822 41.8462C110.845 42.2669 110.777 42.6315 110.618 42.94C110.467 43.2451 110.165 43.4892 109.711 43.6724C109.308 43.8351 108.902 43.8717 108.495 43.782C108.096 43.6889 107.727 43.4762 107.387 43.1439C107.051 42.82 106.773 42.3849 106.553 41.8385Z" fill="#E2A76F"/>
<path d="M114.443 51.3673L116.364 51.3294L114.94 50.0512L116.029 49.1795L116.971 50.8082L117.361 48.9857L118.588 49.4413L117.656 51.1418L119.506 50.5644L119.711 51.8812L117.771 51.8808L119.176 53.217L118.158 54.0089L117.202 52.3823L116.803 54.2338L115.531 53.7576L116.481 52.0819L114.644 52.6572L114.443 51.3673Z" fill="#E2A76F"/>
<path d="M110.483 60.9645L119.626 65.3353L119.428 67.4064L109.625 69.9529L109.81 68.0172L117.443 66.1649L110.3 62.8867L110.483 60.9645ZM112.489 62.6998L113.864 63.3229L113.403 68.142L111.937 68.48L112.489 62.6998Z" fill="#E2A76F"/>
<path d="M107.975 75.0972C108.074 74.7579 108.207 74.4661 108.372 74.2218C108.536 73.9863 108.722 73.7858 108.931 73.6202C109.146 73.466 109.37 73.3472 109.602 73.2641L108.811 72.82L109.269 71.2539L118.664 74.0045L118.148 75.7664L114.417 74.6738C114.66 74.9717 114.832 75.3196 114.933 75.7175C115.04 76.1267 115.018 76.5879 114.868 77.1012C114.69 77.7103 114.38 78.2051 113.938 78.5858C113.502 78.9777 112.983 79.2322 112.383 79.3491C111.788 79.4772 111.156 79.4432 110.486 79.2471C109.833 79.0561 109.287 78.745 108.847 78.3138C108.404 77.8912 108.103 77.4018 107.945 76.8454C107.786 76.2889 107.796 75.7062 107.975 75.0972ZM109.637 75.1303C109.535 75.4784 109.524 75.8058 109.604 76.1127C109.69 76.4308 109.851 76.7045 110.086 76.9339C110.33 77.1659 110.639 77.3366 111.013 77.4461C111.387 77.5556 111.739 77.5785 112.069 77.5146C112.409 77.4533 112.696 77.3107 112.931 77.0868C113.173 76.8742 113.345 76.5939 113.447 76.2459C113.546 75.9066 113.552 75.5778 113.466 75.2597C113.386 74.9529 113.225 74.6791 112.984 74.4385C112.74 74.2065 112.431 74.0358 112.057 73.9263C111.683 73.8167 111.327 73.7926 110.988 73.854C110.655 73.9265 110.372 74.0704 110.139 74.2856C109.903 74.5094 109.736 74.791 109.637 75.1303Z" fill="#E2A76F"/>
<path d="M104.87 82.8816C105.163 82.2982 105.56 81.8386 106.063 81.5027C106.57 81.1791 107.132 80.9994 107.748 80.9636C108.368 80.9401 108.99 81.0847 109.614 81.3976C110.254 81.7187 110.746 82.1327 111.09 82.6399C111.438 83.1592 111.627 83.7209 111.659 84.3249C111.699 84.933 111.572 85.5288 111.28 86.1122C110.983 86.7036 110.582 87.1612 110.075 87.4849C109.572 87.8208 109.01 88.0005 108.39 88.024C107.774 88.0598 107.15 87.9191 106.518 87.6022C105.886 87.2852 105.396 86.8671 105.048 86.3478C104.704 85.8406 104.513 85.283 104.473 84.6749C104.441 84.0708 104.574 83.4731 104.87 82.8816ZM106.292 83.5948C106.154 83.8702 106.097 84.1458 106.121 84.4215C106.141 84.7053 106.254 84.975 106.46 85.2307C106.662 85.4944 106.962 85.7258 107.359 85.9249C107.756 86.1241 108.116 86.2238 108.441 86.2242C108.769 86.2368 109.053 86.1662 109.292 86.0124C109.535 85.8709 109.724 85.6664 109.858 85.399C109.988 85.1397 110.039 84.8661 110.011 84.5783C109.991 84.2945 109.88 84.0207 109.678 83.757C109.48 83.5054 109.182 83.2801 108.785 83.081C108.388 82.8818 108.025 82.776 107.697 82.7634C107.365 82.759 107.081 82.8296 106.846 82.9752C106.606 83.129 106.422 83.3355 106.292 83.5948Z" fill="#E2A76F"/>
<path d="M100.711 89.7675C101.039 89.3227 101.413 89.0073 101.832 88.8212C102.254 88.6477 102.705 88.6091 103.186 88.7053C103.674 88.8069 104.184 89.0543 104.716 89.4475L107.92 91.8147L106.829 93.2911L103.779 91.037C103.334 90.7084 102.932 90.5518 102.571 90.5671C102.205 90.5897 101.879 90.7942 101.594 91.1806C101.411 91.4285 101.304 91.6876 101.273 91.958C101.25 92.2337 101.304 92.5044 101.434 92.7699C101.567 93.0481 101.79 93.3031 102.103 93.5347L105.044 95.7079L103.962 97.1734L98.4513 93.1015L99.4044 91.811L100.39 92.3532C100.195 91.9612 100.118 91.5385 100.16 91.0849C100.21 90.6368 100.393 90.1976 100.711 89.7675Z" fill="#E2A76F"/>
<path d="M94.9949 96.6444C95.3323 96.3024 95.6799 96.0532 96.0378 95.897C96.3957 95.7536 96.7673 95.7318 97.1525 95.8318C97.5442 95.9382 97.9562 96.2046 98.3885 96.6312L100.46 98.6751L101.281 97.8427L102.374 98.9219L101.553 99.7544L102.736 101.208L101.59 102.37L100.264 101.061L98.994 102.349L97.9004 101.269L99.1704 99.9819L97.08 97.9189C96.8607 97.7024 96.6613 97.6012 96.4819 97.6152C96.3026 97.6293 96.0983 97.7524 95.8691 97.9847L95.2389 98.6236L94.1259 97.5253L94.9949 96.6444Z" fill="#E2A76F"/>
<path d="M86.434 103.109C87.0267 102.741 87.6397 102.525 88.2729 102.462C88.9062 102.399 89.5136 102.518 90.0951 102.818C90.6766 103.118 91.1971 103.638 91.6565 104.377L94.7432 109.343L93.1844 110.312L90.0906 105.335C89.8418 104.935 89.5658 104.636 89.2626 104.441C88.9643 104.253 88.6513 104.17 88.3236 104.192C87.9882 104.219 87.6474 104.34 87.301 104.556C86.9469 104.776 86.6874 105.028 86.5224 105.312C86.3497 105.601 86.2817 105.921 86.3184 106.271C86.3598 106.63 86.5049 107.009 86.7538 107.41L89.8476 112.387L88.2889 113.356L85.2022 108.391C84.7428 107.652 84.511 106.952 84.5068 106.293C84.5026 105.634 84.6765 105.029 85.0285 104.48C85.3728 103.935 85.8413 103.478 86.434 103.109Z" fill="#E2A76F"/>
<path d="M78.7145 107.029C79.294 106.794 79.8354 106.682 80.3386 106.694C80.8418 106.705 81.2816 106.825 81.658 107.053C82.0344 107.282 82.3228 107.596 82.5232 107.994L80.8351 108.678C80.7284 108.536 80.5974 108.418 80.4422 108.324C80.2903 108.239 80.1151 108.193 79.9164 108.185C79.7178 108.178 79.5009 108.222 79.2658 108.317C79.039 108.409 78.8662 108.513 78.7472 108.63C78.6317 108.755 78.5625 108.886 78.5395 109.022C78.5082 109.162 78.5164 109.291 78.5641 109.409C78.6356 109.585 78.7404 109.699 78.8787 109.75C79.0203 109.81 79.1997 109.831 79.4167 109.811C79.6337 109.791 79.8927 109.755 80.1936 109.701C80.5198 109.638 80.8469 109.588 81.1749 109.553C81.4979 109.529 81.8001 109.539 82.0813 109.581C82.3626 109.624 82.6129 109.723 82.8324 109.878C83.0519 110.034 83.2247 110.267 83.3507 110.578C83.5039 110.956 83.5393 111.333 83.457 111.708C83.378 112.093 83.1811 112.451 82.8662 112.784C82.5514 113.117 82.121 113.395 81.5751 113.616C80.8109 113.926 80.1364 113.999 79.5516 113.835C78.9669 113.671 78.5099 113.304 78.1808 112.733L79.7807 112.084C79.9094 112.257 80.0841 112.362 80.3047 112.4C80.5204 112.449 80.771 112.416 81.0565 112.3C81.3589 112.178 81.5677 112.03 81.683 111.856C81.7983 111.682 81.8202 111.507 81.7487 111.33C81.701 111.213 81.6081 111.128 81.4698 111.076C81.3232 111.028 81.1397 111.01 80.9193 111.021C80.7023 111.041 80.4433 111.077 80.1423 111.131C79.6143 111.227 79.1383 111.283 78.7143 111.299C78.2937 111.323 77.929 111.255 77.6203 111.097C77.315 110.947 77.0704 110.645 76.8865 110.192C76.7231 109.788 76.6858 109.383 76.7748 108.975C76.8672 108.576 77.0792 108.206 77.4108 107.866C77.734 107.53 78.1686 107.251 78.7145 107.029Z" fill="#E2A76F"/>
<path d="M69.2017 114.938L69.243 116.859L70.5184 115.433L71.3918 116.52L69.7652 117.465L71.588 117.852L71.1346 119.08L69.4328 118.151L70.0133 120L68.6971 120.208L68.6941 118.267L67.3607 119.675L66.5671 118.658L68.1917 117.699L66.3399 117.303L66.8138 116.031L68.4909 116.978L67.9124 115.142L69.2017 114.938Z" fill="#E2A76F"/>
<path d="M59.5996 110.994L55.2457 120.146L53.1746 119.952L50.6115 110.151L52.5472 110.333L54.4124 117.965L57.6775 110.814L59.5996 110.994ZM57.8682 113.003L57.2476 114.379L52.4287 113.927L52.0882 112.461L57.8682 113.003Z" fill="#E2A76F"/>
<path d="M45.4659 108.51C45.8053 108.609 46.0972 108.741 46.3417 108.907C46.5775 109.07 46.7783 109.255 46.9442 109.464C47.0988 109.679 47.2179 109.903 47.3015 110.135L47.7441 109.343L49.3106 109.798L46.5771 119.2L44.8147 118.687L45.9005 114.953C45.6031 115.197 45.2555 115.369 44.8579 115.471C44.449 115.579 43.9878 115.558 43.4744 115.408C42.8651 115.231 42.3698 114.922 41.9884 114.48C41.5958 114.045 41.3405 113.527 41.2226 112.926C41.0934 112.332 41.1263 111.699 41.3212 111.029C41.511 110.376 41.8211 109.829 42.2514 109.388C42.6731 108.944 43.162 108.643 43.718 108.483C44.274 108.324 44.8566 108.333 45.4659 108.51ZM45.4356 110.172C45.0875 110.071 44.7601 110.061 44.4535 110.142C44.1356 110.229 43.8621 110.39 43.6332 110.625C43.4017 110.87 43.2316 111.179 43.1227 111.553C43.0139 111.928 42.9917 112.28 43.0561 112.61C43.118 112.949 43.2611 113.236 43.4853 113.471C43.6983 113.713 43.9789 113.884 44.327 113.985C44.6665 114.084 44.9951 114.09 45.313 114.003C45.6197 113.922 45.8931 113.761 46.1333 113.519C46.3647 113.275 46.5349 112.966 46.6437 112.592C46.7526 112.217 46.776 111.861 46.7141 111.522C46.641 111.189 46.4967 110.906 46.2811 110.673C46.0569 110.438 45.775 110.271 45.4356 110.172Z" fill="#E2A76F"/>
<path d="M37.6779 105.419C38.2616 105.71 38.7219 106.107 39.0585 106.61C39.383 107.116 39.5637 107.678 39.6005 108.294C39.6252 108.914 39.4816 109.536 39.1699 110.161C38.85 110.801 38.4369 111.294 37.9305 111.639C37.4119 111.988 36.8506 112.179 36.2468 112.211C35.6388 112.252 35.043 112.127 34.4592 111.835C33.8673 111.54 33.4091 111.139 33.0846 110.632C32.748 110.13 32.5673 109.568 32.5427 108.948C32.5058 108.332 32.6453 107.708 32.9611 107.075C33.2769 106.442 33.6941 105.952 34.2127 105.603C34.7191 105.258 35.2763 105.065 35.8842 105.024C36.4881 104.992 37.086 105.123 37.6779 105.419ZM36.9673 106.842C36.6917 106.704 36.416 106.648 36.1404 106.672C35.8568 106.692 35.5873 106.806 35.3321 107.013C35.0687 107.216 34.8379 107.516 34.6395 107.913C34.4411 108.311 34.342 108.671 34.3422 108.996C34.3302 109.324 34.4013 109.608 34.5554 109.847C34.6974 110.09 34.9022 110.278 35.1697 110.412C35.4292 110.542 35.7028 110.592 35.9905 110.564C36.2742 110.543 36.5478 110.432 36.8111 110.229C37.0623 110.03 37.287 109.732 37.4854 109.335C37.6838 108.937 37.789 108.574 37.801 108.246C37.8048 107.914 37.7338 107.63 37.5877 107.395C37.4336 107.156 37.2268 106.971 36.9673 106.842Z" fill="#E2A76F"/>
<path d="M30.7852 101.271C31.2304 101.599 31.5465 101.972 31.7333 102.391C31.9075 102.812 31.9468 103.263 31.8515 103.744C31.7507 104.233 31.5043 104.744 31.1121 105.277L28.751 108.485L27.273 107.397L29.5213 104.342C29.849 103.896 30.0049 103.494 29.989 103.133C29.9657 102.767 29.7607 102.441 29.3739 102.157C29.1257 101.974 28.8665 101.868 28.5961 101.837C28.3204 101.814 28.0499 101.869 27.7846 102C27.5067 102.133 27.2522 102.356 27.0212 102.67L24.8535 105.616L23.3865 104.536L27.4479 99.0167L28.7398 99.9678L28.1994 100.954C28.591 100.759 29.0135 100.681 29.4671 100.723C29.9152 100.771 30.3546 100.954 30.7852 101.271Z" fill="#E2A76F"/>
<path d="M23.9002 95.5649C24.2427 95.9018 24.4924 96.2491 24.6493 96.6067C24.7933 96.9645 24.8156 97.3361 24.7164 97.7216C24.6107 98.1135 24.345 98.5261 23.9192 98.9592L21.8794 101.034L22.7131 101.854L21.636 102.95L20.8023 102.13L19.3509 103.315L18.1876 102.171L19.4935 100.843L18.2042 99.5748L19.2813 98.4791L20.5706 99.7471L22.6296 97.6527C22.8456 97.4329 22.9465 97.2333 22.9321 97.054C22.9178 96.8746 22.7943 96.6705 22.5616 96.4417L21.9218 95.8124L23.018 94.6973L23.9002 95.5649Z" fill="#E2A76F"/>
<path d="M17.4221 87.0131C17.7916 87.6053 18.0084 88.218 18.0723 88.8513C18.1363 89.4847 18.0187 90.0924 17.7196 90.6745C17.4204 91.2567 16.9017 91.7781 16.1636 92.2389L11.2041 95.3348L10.2323 93.7775L15.2033 90.6744C15.6032 90.4248 15.9007 90.1482 16.0959 89.8447C16.2835 89.5459 16.3658 89.2327 16.343 88.905C16.3153 88.5696 16.1935 88.2289 15.9776 87.8828C15.7568 87.5291 15.5043 87.2699 15.22 87.1054C14.9309 86.9332 14.611 86.8657 14.2603 86.903C13.9019 86.9451 13.5228 87.0909 13.123 87.3405L8.152 90.4436L7.18022 88.8862L12.1397 85.7903C12.8778 85.3295 13.5765 85.0965 14.2355 85.0911C14.8946 85.0858 15.4993 85.2586 16.0496 85.6097C16.5951 85.9531 17.0526 86.4209 17.4221 87.0131Z" fill="#E2A76F"/>
<path d="M13.4889 79.299C13.7248 79.8783 13.8377 80.4195 13.8275 80.9229C13.8172 81.4263 13.6981 81.8664 13.4699 82.2432C13.2418 82.62 12.9289 82.909 12.5314 83.1102L11.844 81.423C11.9864 81.316 12.1042 81.1848 12.1974 81.0293C12.2823 80.8773 12.3282 80.7019 12.3354 80.5033C12.3425 80.3046 12.2982 80.0877 12.2025 79.8527C12.1101 79.626 12.0055 79.4533 11.8886 79.3346C11.7634 79.2192 11.6325 79.1502 11.496 79.1275C11.3561 79.0965 11.2274 79.1049 11.1099 79.1527C10.9337 79.2246 10.8199 79.3297 10.7687 79.468C10.709 79.6098 10.6891 79.7892 10.709 80.0062C10.7289 80.2232 10.7659 80.4822 10.82 80.7832C10.8844 81.1093 10.9345 81.4364 10.9702 81.7644C10.9942 82.0874 10.9852 82.3896 10.9432 82.671C10.9013 82.9524 10.8028 83.203 10.6477 83.4228C10.4926 83.6426 10.2598 83.8158 9.94922 83.9424C9.57155 84.0963 9.19481 84.1324 8.81899 84.0506C8.43478 83.9723 8.0759 83.776 7.74234 83.4617C7.40878 83.1474 7.13086 82.7174 6.90857 82.1718C6.59737 81.4079 6.52319 80.7334 6.68604 80.1482C6.84889 79.5631 7.21535 79.1054 7.78542 78.7752L8.4369 80.3743C8.26439 80.5033 8.15949 80.6782 8.1222 80.899C8.0731 81.1148 8.10668 81.3654 8.22296 81.6508C8.34607 81.953 8.49467 82.1616 8.66875 82.2766C8.84283 82.3916 9.01799 82.4132 9.19424 82.3414C9.31173 82.2935 9.39612 82.2004 9.4474 82.062C9.49527 81.9153 9.51344 81.7317 9.50193 81.5112C9.48202 81.2942 9.44501 81.0352 9.39091 80.7343C9.29327 80.2064 9.23636 79.7304 9.22017 79.3063C9.19559 78.8856 9.26224 78.5208 9.42013 78.2117C9.56963 77.9061 9.87098 77.6609 10.3242 77.4762C10.727 77.312 11.1324 77.2741 11.5402 77.3624C11.9397 77.454 12.3096 77.6654 12.65 77.9965C12.9869 78.3192 13.2666 78.7534 13.4889 79.299Z" fill="#E2A76F"/>
<path d="M5.56474 69.7976L3.64434 69.8421L5.07261 71.1154L3.9868 71.9908L3.03936 70.3655L2.65542 72.1893L1.42699 71.738L2.35325 70.0342L0.505038 70.6181L0.295283 69.302L2.23553 69.2956L0.825549 67.9643L1.8415 67.1689L2.80237 68.7921L3.19545 66.9392L4.46845 67.411L3.52448 69.0901L5.35926 68.5083L5.56474 69.7976Z" fill="#E2A76F"/>
<path d="M9.49155 60.1885L0.333606 55.8496L0.524233 53.7778L10.3188 51.1972L10.1407 53.1335L2.51322 55.0124L9.66847 58.2656L9.49155 60.1885ZM7.47973 58.4602L6.10305 57.8419L6.5466 53.0212L8.01174 52.6781L7.47973 58.4602Z" fill="#E2A76F"/>
<path d="M11.9501 46.0473C11.852 46.387 11.7205 46.6792 11.5554 46.9241C11.3928 47.1602 11.2074 47.3614 10.999 47.5276C10.7844 47.6827 10.5612 47.8022 10.3293 47.8862L11.1217 48.3275L10.6689 49.8951L1.26465 47.1777L1.77406 45.4141L5.50965 46.4935C5.26526 46.1964 5.09198 45.8491 4.98981 45.4516C4.88145 45.0428 4.90148 44.5815 5.0499 44.0676C5.22599 43.458 5.53435 42.962 5.97496 42.5798C6.40938 42.1863 6.92681 41.9301 7.52725 41.811C8.12151 41.6808 8.75388 41.7125 9.42437 41.9063C10.0774 42.095 10.625 42.4042 11.0669 42.8338C11.5114 43.2548 11.8137 43.7432 11.974 44.2991C12.1342 44.8549 12.1262 45.4377 11.9501 46.0473ZM10.2881 46.02C10.3888 45.6716 10.3984 45.3442 10.3172 45.0376C10.2297 44.7198 10.068 44.4466 9.83216 44.218C9.58757 43.9869 9.27806 43.8173 8.90363 43.7091C8.5292 43.6009 8.17693 43.5793 7.84681 43.6444C7.50799 43.7069 7.22121 43.8505 6.98649 44.0752C6.74558 44.2887 6.57481 44.5696 6.47418 44.918C6.37607 45.2576 6.37075 45.5864 6.45821 45.9042C6.53948 46.2107 6.70115 46.4839 6.94322 46.7237C7.18781 46.9548 7.49732 47.1245 7.87175 47.2327C8.24618 47.3408 8.60281 47.3637 8.94163 47.3012C9.27427 47.2274 9.55669 47.0826 9.78889 46.8666C10.0236 46.6419 10.19 46.3597 10.2881 46.02Z" fill="#E2A76F"/>
<path d="M15.0278 38.2519C14.7373 38.8363 14.3412 39.2973 13.8394 39.6349C13.3335 39.9604 12.7726 40.1421 12.1566 40.18C11.5366 40.2057 10.9141 40.0632 10.2893 39.7525C9.64816 39.4337 9.15478 39.0214 8.80911 38.5155C8.45937 37.9974 8.2676 37.4364 8.23379 36.8325C8.19186 36.2245 8.31613 35.6283 8.6066 35.0439C8.90111 34.4514 9.3013 33.9924 9.80717 33.6669C10.309 33.3293 10.8699 33.1476 11.4899 33.1219C12.1059 33.084 12.7304 33.2224 13.3633 33.5371C13.9963 33.8519 14.4877 34.2683 14.8374 34.7863C15.1831 35.2923 15.3769 35.8492 15.4188 36.4572C15.4526 37.0611 15.3223 37.6594 15.0278 38.2519ZM13.6036 37.5437C13.7407 37.2677 13.7968 36.992 13.7719 36.7164C13.751 36.4326 13.6369 36.1633 13.4296 35.9084C13.2263 35.6454 12.9259 35.415 12.5282 35.2173C12.1306 35.0196 11.7697 34.9211 11.4454 34.9218C11.1171 34.9104 10.8336 34.982 10.5948 35.1366C10.3519 35.279 10.1639 35.4842 10.0308 35.752C9.90172 36.0118 9.85168 36.2855 9.88071 36.5733C9.90163 36.857 10.0137 37.1304 10.217 37.3934C10.4161 37.6443 10.7145 37.8686 11.1122 38.0663C11.5098 38.264 11.8728 38.3686 12.2011 38.38C12.5335 38.3833 12.817 38.3117 13.0518 38.1652C13.2905 38.0106 13.4745 37.8035 13.6036 37.5437Z" fill="#E2A76F"/>
<path d="M19.1613 31.3513C18.8344 31.7972 18.4617 32.1139 18.0432 32.3015C17.6227 32.4764 17.1718 32.5166 16.6904 32.4221C16.2017 32.3222 15.6907 32.0765 15.1572 31.6852L11.9453 29.3292L13.0306 27.8491L16.089 30.0925C16.5348 30.4195 16.938 30.5747 17.2985 30.5581C17.6644 30.5343 17.9894 30.3286 18.2734 29.9412C18.4557 29.6927 18.5616 29.4332 18.5914 29.1628C18.6138 28.8869 18.5592 28.6165 18.4277 28.3514C18.2942 28.0736 18.0703 27.8195 17.7561 27.589L14.8073 25.426L15.8846 23.9568L21.4094 28.0094L20.4608 29.3032L19.4735 28.7644C19.6698 29.1557 19.7477 29.5782 19.7073 30.0319C19.6595 30.4802 19.4776 30.92 19.1613 31.3513Z" fill="#E2A76F"/>
<path d="M24.8554 24.4541C24.5192 24.7973 24.1724 25.0477 23.8151 25.2052C23.4576 25.3498 23.0861 25.3729 22.7006 25.2742C22.3085 25.1692 21.8956 24.9042 21.4619 24.4791L19.3837 22.4424L18.5654 23.2777L17.4681 22.2023L18.2864 21.367L17.0987 19.9174L18.2406 18.7519L19.571 20.0557L20.8365 18.7639L21.9338 19.8394L20.6683 21.1312L22.7659 23.1869C22.986 23.4026 23.1857 23.5031 23.365 23.4885C23.5443 23.4738 23.7481 23.35 23.9765 23.1169L24.6045 22.4758L25.7213 23.5703L24.8554 24.4541Z" fill="#E2A76F"/>
<path d="M33.3943 17.9594C32.8029 18.33 32.1907 18.5479 31.5576 18.613C30.9246 18.678 30.3167 18.5615 29.7342 18.2633C29.1516 17.9651 28.6294 17.4472 28.1674 16.7097L25.0635 11.7546L26.6188 10.78L29.73 15.7465C29.9802 16.146 30.2572 16.4431 30.561 16.6379C30.8601 16.8249 31.1733 16.9067 31.5009 16.8833C31.8362 16.8551 32.1767 16.7327 32.5223 16.5161C32.8756 16.2947 33.1343 16.0416 33.2982 15.757C33.4699 15.4676 33.5368 15.1475 33.4989 14.7968C33.4563 14.4384 33.3098 14.0595 33.0596 13.66L29.9484 8.69341L31.5038 7.71873L34.6077 12.6738C35.0697 13.4113 35.3039 14.1096 35.3104 14.7689C35.3169 15.4281 35.1451 16.0332 34.795 16.5842C34.4527 17.1304 33.9858 17.5888 33.3943 17.9594Z" fill="#E2A76F"/>
<path d="M41.1004 14.012C40.5218 14.249 39.9808 14.3628 39.4775 14.3535C38.9742 14.3441 38.534 14.2257 38.1568 13.9982C37.7797 13.7706 37.4902 13.4582 37.2884 13.0609L38.9741 12.3705C39.0813 12.5127 39.2127 12.6303 39.3682 12.7233C39.5204 12.8079 39.6958 12.8536 39.8944 12.8604C40.0931 12.8672 40.3098 12.8225 40.5447 12.7263C40.7711 12.6335 40.9436 12.5286 41.0621 12.4115C41.1772 12.286 41.246 12.155 41.2684 12.0184C41.2993 11.8785 41.2906 11.7498 41.2426 11.6323C41.1704 11.4562 41.0652 11.3426 40.9267 11.2915C40.7849 11.2321 40.6055 11.2125 40.3886 11.2328C40.1716 11.2531 39.9128 11.2906 39.612 11.3452C39.286 11.4101 38.9591 11.4608 38.6312 11.4971C38.3083 11.5217 38.0061 11.5132 37.7247 11.4717C37.4433 11.4302 37.1926 11.3321 36.9726 11.1774C36.7525 11.0226 36.579 10.7901 36.4519 10.4797C36.2973 10.1022 36.2606 9.72549 36.3417 9.34945C36.4193 8.96503 36.615 8.60573 36.9286 8.27156C37.2423 7.93739 37.6717 7.65866 38.2168 7.43538C38.98 7.12278 39.6543 7.04742 40.2396 7.20928C40.8249 7.37114 41.2831 7.73687 41.6142 8.30649L40.0166 8.96088C39.8873 8.78855 39.7122 8.68394 39.4915 8.64703C39.2756 8.59829 39.0252 8.63232 38.74 8.74912C38.4381 8.87278 38.2298 9.02177 38.1151 9.19609C38.0004 9.3704 37.9791 9.54564 38.0512 9.72179C38.0993 9.83923 38.1926 9.92348 38.331 9.97453C38.4778 10.0221 38.6614 10.04 38.8817 10.0281C39.0987 10.0078 39.3575 9.97034 39.6583 9.9157C40.186 9.81713 40.6618 9.75937 41.0857 9.74244C41.5063 9.71712 41.8712 9.78315 42.1804 9.94054C42.4863 10.0895 42.7319 10.3905 42.9174 10.8435C43.0822 11.2461 43.1209 11.6515 43.0333 12.0596C42.9424 12.4592 42.7316 12.8296 42.4012 13.1706C42.0792 13.5082 41.6456 13.7887 41.1004 14.012Z" fill="#E2A76F"/>
<path d="M50.5863 6.07016L50.5384 4.14946L49.2678 5.58022L48.3907 4.49571L50.0141 3.54526L48.1899 3.16441L48.6391 1.93495L50.3441 2.85844L49.7571 1.01087L51.0726 0.798793L51.0823 2.73941L52.4109 1.32684L53.2079 2.34162L51.5867 3.30549L53.4399 3.69544L52.9704 4.96951L51.2901 4.02827L51.8748 5.86241L50.5863 6.07016Z" fill="#E2A76F"/>
<path d="M66.0052 56.6121L53.1173 69.5L51 67.3827L63.8864 54.4948H52.5288V51.5H69V67.9712H66.0052V56.6121Z" fill="#E2A76F"/>
</svg>
