<svg width="120" height="121" viewBox="0 0 120 121" fill="none" xmlns="http://www.w3.org/2000/svg">
<path d="M61.1941 9.62544L62.1006 0.135254L65.9833 0.507713C66.6417 0.570871 67.1864 0.728019 67.6175 0.979158C68.0486 1.2303 68.3592 1.55197 68.5493 1.94416C68.7492 2.32819 68.8263 2.75972 68.7806 3.23875C68.7348 3.71777 68.5927 4.11003 68.3542 4.41551C68.1156 4.72098 67.8164 4.94767 67.4564 5.09556C67.1063 5.23527 66.727 5.29922 66.3186 5.2874L66.5493 5.15903C66.9805 5.21864 67.3525 5.37291 67.6655 5.62184C67.9884 5.86259 68.2277 6.1683 68.3834 6.53896C68.5482 6.91049 68.6107 7.30413 68.571 7.71989C68.5226 8.22604 68.3581 8.66175 68.0775 9.02704C67.7969 9.39232 67.4158 9.66588 66.9342 9.84772C66.4535 10.0205 65.8795 10.0749 65.2121 10.0109L61.1941 9.62544ZM63.1629 8.30932L65.0569 8.49101C65.5529 8.53859 65.947 8.46238 66.2392 8.26238C66.5313 8.06238 66.6977 7.74998 66.7383 7.32518C66.7789 6.90038 66.6706 6.55708 66.4134 6.29526C66.1572 6.02441 65.781 5.86519 65.2849 5.8176L63.418 5.63851L63.1629 8.30932ZM63.5488 4.26921L65.3075 4.43792C65.7855 4.48378 66.1566 4.40993 66.4209 4.21637C66.6941 4.02367 66.8498 3.72849 66.8877 3.3308C66.9249 2.94216 66.8275 2.62726 66.5957 2.38612C66.3738 2.1368 66.0193 1.98878 65.5323 1.94206L63.7871 1.77465L63.5488 4.26921Z" fill="#E2A76F"/>
<path d="M73.7523 11.8215C73.1263 11.6373 72.6034 11.3272 72.1834 10.8914C71.7747 10.4494 71.4979 9.92787 71.3529 9.3269C71.2192 8.71977 71.2506 8.08081 71.4472 7.41C71.6489 6.72177 71.9684 6.16287 72.4059 5.7333C72.8547 5.29757 73.3733 5.01015 73.9617 4.87104C74.5527 4.72322 75.1612 4.7414 75.7871 4.92559C76.4217 5.11234 76.9433 5.42672 77.3521 5.86873C77.772 6.30459 78.0489 6.82609 78.1826 7.43321C78.3275 8.03418 78.3005 8.67443 78.1013 9.35394C77.9022 10.0335 77.5783 10.5911 77.1296 11.0268C76.6921 11.4564 76.1778 11.7451 75.5868 11.8929C74.9984 12.032 74.3869 12.0082 73.7523 11.8215ZM74.2003 10.2925C74.4958 10.3795 74.7771 10.3866 75.0439 10.3137C75.3195 10.2434 75.5646 10.0837 75.7792 9.83455C76.0026 9.58799 76.1768 9.25128 76.3018 8.8244C76.4269 8.39753 76.4608 8.02423 76.4034 7.70453C76.3572 7.37867 76.2372 7.11151 76.0433 6.90305C75.8607 6.68844 75.6259 6.53892 75.3391 6.4545C75.0609 6.37264 74.7827 6.37122 74.5046 6.45025C74.2291 6.52057 73.9796 6.679 73.7563 6.92556C73.5442 7.16596 73.3756 7.4996 73.2505 7.92648C73.1254 8.35335 73.086 8.72972 73.1321 9.05558C73.187 9.384 73.307 9.65116 73.4922 9.85706C73.6861 10.0655 73.9221 10.2107 74.2003 10.2925Z" fill="#E2A76F"/>
<path d="M82.5282 15.2548C81.9481 14.9559 81.4927 14.5527 81.1621 14.0454C80.8438 13.5342 80.6699 12.9698 80.6404 12.3522C80.6231 11.7307 80.774 11.1091 81.0931 10.4874C81.4205 9.84951 81.8393 9.3609 82.3497 9.02155C82.8723 8.67827 83.4356 8.49383 84.0396 8.46823C84.6478 8.43455 85.242 8.56721 85.8221 8.86619C86.4103 9.16933 86.8635 9.57651 87.1819 10.0877C87.5125 10.595 87.6864 11.1594 87.7037 11.7809C87.7331 12.3985 87.5863 13.0222 87.263 13.652C86.9398 14.2818 86.5169 14.7683 85.9944 15.1116C85.484 15.4509 84.9247 15.6375 84.3165 15.6711C83.7125 15.6967 83.1163 15.558 82.5282 15.2548ZM83.2554 13.8378C83.5293 13.979 83.8042 14.039 84.08 14.0177C84.3638 14.0007 84.6346 13.8901 84.8922 13.6859C85.1578 13.4859 85.3922 13.188 85.5952 12.7924C85.7983 12.3968 85.9016 12.0365 85.9053 11.7117C85.9212 11.383 85.8535 11.0979 85.7023 10.8566C85.5632 10.6114 85.3608 10.4203 85.0949 10.2832C84.837 10.1504 84.5641 10.0965 84.2762 10.1216C83.9923 10.1387 83.7176 10.2472 83.4519 10.4473C83.1984 10.6433 82.9702 10.9392 82.7671 11.3349C82.5641 11.7305 82.4546 12.0927 82.4388 12.4214C82.4309 12.7543 82.4986 13.0394 82.6418 13.2765C82.793 13.5178 82.9976 13.7049 83.2554 13.8378Z" fill="#E2A76F"/>
<path d="M91.5795 20.894L91.5264 16.1294L95.4902 15.2506L97.2097 16.5622L92.171 17.5968L93.0518 16.4372L93.3963 22.2798L91.5795 20.894ZM88.0109 18.1718L93.9375 10.3691L95.3974 11.4828L89.4708 19.2854L88.0109 18.1718Z" fill="#E2A76F"/>
<path d="M97.5448 26.2847L107.254 23.3902L108.495 25.0619L102.932 33.5396L101.772 31.9771L106.191 25.4727L98.6969 27.8362L97.5448 26.2847ZM100.195 26.2265L101.632 25.7661L104.52 29.6558L103.66 30.8919L100.195 26.2265Z" fill="#E2A76F"/>
<path d="M101.244 36.6045L110.161 32.4357L110.85 33.9168L110.074 34.505C110.316 34.5522 110.553 34.6318 110.785 34.7437C111.026 34.8518 111.248 35.0081 111.454 35.2128C111.671 35.4218 111.858 35.6949 112.015 36.0323C112.287 36.6165 112.383 37.1979 112.302 37.7766C112.222 38.3553 111.995 38.8873 111.621 39.3727C111.259 39.8625 110.766 40.2533 110.142 40.545C109.518 40.8368 108.898 40.9661 108.283 40.9332C107.676 40.8963 107.129 40.721 106.643 40.4072C106.157 40.0934 105.782 39.6526 105.518 39.0849C105.303 38.6241 105.2 38.1866 105.207 37.7725C105.226 37.3628 105.334 36.9818 105.53 36.6297L102.02 38.2708L101.244 36.6045ZM106.787 38.0105C106.941 38.3396 107.149 38.593 107.411 38.7708C107.678 38.9568 107.979 39.0564 108.315 39.0696C108.651 39.0828 108.996 39.0068 109.349 38.8418C109.702 38.6767 109.981 38.4609 110.187 38.1944C110.401 37.924 110.523 37.6267 110.552 37.3025C110.593 36.9827 110.537 36.6583 110.384 36.3291C110.234 36.0082 110.022 35.7567 109.747 35.5746C109.485 35.3968 109.183 35.2972 108.844 35.2758C108.507 35.2626 108.163 35.3385 107.81 35.5036C107.457 35.6687 107.173 35.8864 106.959 36.1568C106.757 36.4316 106.64 36.7269 106.607 37.0429C106.578 37.367 106.638 37.6896 106.787 38.0105Z" fill="#E2A76F"/>
<path d="M105.06 45.1856L114.624 42.8686L115.007 44.4572L114.13 44.8798C114.358 44.974 114.575 45.099 114.78 45.2548C114.994 45.4084 115.182 45.6059 115.342 45.8472C115.514 46.0951 115.643 46.4001 115.731 46.7619C115.882 47.3885 115.861 47.9774 115.668 48.5287C115.474 49.0799 115.146 49.5563 114.684 49.9579C114.233 50.3662 113.672 50.6514 113.003 50.8136C112.334 50.9757 111.701 50.9796 111.104 50.8252C110.516 50.6687 110.015 50.3884 109.601 49.9844C109.187 49.5803 108.906 49.0738 108.759 48.4649C108.64 47.9707 108.625 47.5213 108.714 47.1168C108.813 46.719 108.994 46.3669 109.256 46.0607L105.491 46.9728L105.06 45.1856ZM110.216 47.6636C110.301 48.0167 110.455 48.3063 110.677 48.5327C110.901 48.7679 111.177 48.9253 111.504 49.0049C111.831 49.0845 112.184 49.0785 112.562 48.9867C112.941 48.895 113.257 48.7389 113.512 48.5185C113.775 48.2959 113.953 48.0286 114.045 47.7166C114.149 47.4113 114.158 47.0822 114.073 46.7292C113.99 46.385 113.832 46.0963 113.598 45.8633C113.376 45.6369 113.1 45.4795 112.771 45.3911C112.445 45.3115 112.092 45.3175 111.713 45.4093C111.334 45.501 111.014 45.6582 110.75 45.8807C110.498 46.11 110.325 46.3762 110.23 46.6794C110.137 46.9914 110.133 47.3195 110.216 47.6636Z" fill="#E2A76F"/>
<path d="M110.052 57.4648C110.023 56.8117 110.146 56.2154 110.421 55.6761C110.706 55.1453 111.109 54.7139 111.629 54.3818C112.159 54.0583 112.773 53.881 113.469 53.8501C114.185 53.8183 114.816 53.9401 115.363 54.2157C115.92 54.5 116.359 54.8985 116.681 55.4113C117.012 55.9238 117.192 56.5065 117.221 57.1596C117.25 57.8217 117.123 58.4182 116.838 58.9489C116.562 59.4883 116.16 59.9197 115.63 60.2432C115.109 60.5753 114.496 60.7571 113.79 60.7885C113.084 60.8199 112.453 60.6935 111.896 60.4092C111.349 60.1336 110.91 59.7396 110.579 59.2272C110.257 58.7144 110.081 58.1269 110.052 57.4648ZM111.64 57.3941C111.654 57.7025 111.738 57.9714 111.894 58.2008C112.049 58.4393 112.279 58.6199 112.584 58.7427C112.889 58.8745 113.264 58.9306 113.707 58.9109C114.151 58.8912 114.514 58.8023 114.797 58.6443C115.09 58.4949 115.303 58.2946 115.437 58.0432C115.581 57.8006 115.646 57.5296 115.632 57.2302C115.62 56.94 115.531 56.6758 115.366 56.4377C115.21 56.1993 114.98 56.0141 114.675 55.8823C114.379 55.7591 114.01 55.7074 113.566 55.7271C113.123 55.7468 112.755 55.8313 112.462 55.9807C112.17 56.1391 111.956 56.3394 111.822 56.5817C111.688 56.8331 111.627 57.1039 111.64 57.3941Z" fill="#E2A76F"/>
<path d="M110.171 63.7263L116.991 64.3713L116.818 66.2018L109.999 65.5568L110.171 63.7263ZM117.837 65.3816C117.868 65.0562 117.988 64.794 118.198 64.595C118.416 64.4058 118.674 64.3253 118.972 64.3535C119.269 64.3816 119.503 64.5086 119.673 64.7345C119.851 64.9702 119.925 65.2507 119.894 65.5762C119.863 65.9106 119.738 66.1724 119.52 66.3615C119.31 66.5606 119.056 66.646 118.758 66.6179C118.461 66.5897 118.223 66.4578 118.045 66.2221C117.875 65.9962 117.806 65.7161 117.837 65.3816Z" fill="#E2A76F"/>
<path d="M109.763 68.2273L116.432 69.7908L116.064 71.3689L114.948 71.2471C115.271 71.5373 115.504 71.895 115.646 72.3201C115.787 72.754 115.796 73.2318 115.675 73.7534C115.545 74.3103 115.32 74.752 115.002 75.0784C114.684 75.4048 114.282 75.6136 113.795 75.7047C113.307 75.8046 112.741 75.7791 112.097 75.6281L108.246 74.7254L108.66 72.9484L112.339 73.8108C112.869 73.9348 113.301 73.915 113.637 73.7513C113.971 73.5965 114.193 73.2848 114.302 72.8162C114.372 72.5156 114.365 72.2294 114.279 71.9577C114.192 71.6947 114.031 71.4659 113.797 71.2712C113.573 71.0786 113.275 70.9389 112.904 70.8521L109.345 70.0176L109.763 68.2273Z" fill="#E2A76F"/>
<path d="M106.252 79.9527C106.434 79.5073 106.66 79.144 106.932 78.8629C107.208 78.5936 107.543 78.4318 107.938 78.3775C108.34 78.3267 108.822 78.4165 109.384 78.6468L112.076 79.7502L112.518 78.6661L113.94 79.2488L113.497 80.3329L115.143 81.2284L114.526 82.741L112.803 82.0346L112.118 83.7112L110.697 83.1285L111.381 81.452L108.664 80.3382C108.379 80.2213 108.156 80.2036 107.996 80.285C107.835 80.3663 107.693 80.5583 107.57 80.8608L107.23 81.6928L105.784 81.0998L106.252 79.9527Z" fill="#E2A76F"/>
<path d="M104.944 83.457L110.632 87.281L109.731 88.6269L108.892 88.2429C109.041 88.606 109.097 88.9877 109.058 89.388C109.022 89.8008 108.875 90.1996 108.617 90.5841C108.426 90.8706 108.216 91.1017 107.99 91.2773C107.763 91.453 107.52 91.5794 107.261 91.6567C106.997 91.7416 106.718 91.7672 106.424 91.7337C106.591 92.1522 106.648 92.5892 106.594 93.0449C106.54 93.5005 106.379 93.9282 106.111 94.3278C105.778 94.8254 105.399 95.1719 104.974 95.3671C104.556 95.5673 104.104 95.6239 103.616 95.5369C103.124 95.4574 102.603 95.2331 102.054 94.8638L98.781 92.6635L99.7956 91.1479L102.933 93.2572C103.385 93.5607 103.791 93.7029 104.153 93.6838C104.51 93.6722 104.812 93.4817 105.059 93.1122C105.221 92.8709 105.305 92.6156 105.31 92.3462C105.316 92.0767 105.242 91.8133 105.087 91.556C104.926 91.3063 104.688 91.0752 104.372 90.8627L101.348 88.8293L102.37 87.3025L105.507 89.4117C105.959 89.7152 106.365 89.8574 106.727 89.8383C107.089 89.8192 107.396 89.6211 107.649 89.2441C107.805 89.0104 107.886 88.7588 107.892 88.4894C107.893 88.2275 107.816 87.9679 107.661 87.7106C107.501 87.4608 107.263 87.2297 106.947 87.0173L103.922 84.9839L104.944 83.457Z" fill="#E2A76F"/>
<path d="M94.4399 96.628C94.9419 96.1556 95.4869 95.8419 96.075 95.687C96.6628 95.5449 97.2455 95.5632 97.8232 95.742C98.4004 95.9336 98.9279 96.2842 99.4055 96.7938C99.8955 97.3166 100.221 97.8761 100.382 98.4721C100.549 99.0747 100.546 99.6688 100.374 100.254C100.201 100.853 99.8609 101.391 99.3523 101.87C98.857 102.336 98.3221 102.634 97.7476 102.764C97.173 102.893 96.6097 102.869 96.0577 102.691C95.5056 102.513 95.0093 102.189 94.569 101.719C94.5069 101.653 94.4356 101.577 94.355 101.491C94.2806 101.412 94.2096 101.323 94.1422 101.224L98.194 97.4109L98.9569 98.2249L96.2326 100.789C96.5563 101.095 96.9107 101.241 97.2957 101.227C97.6741 101.22 98.0185 101.07 98.3289 100.778C98.5535 100.566 98.7119 100.318 98.8042 100.032C98.9026 99.752 98.9088 99.4535 98.8226 99.136C98.7298 98.8248 98.5314 98.507 98.2275 98.1827L97.9577 97.8948C97.7034 97.6235 97.4305 97.4318 97.1392 97.3199C96.8475 97.2208 96.5564 97.202 96.266 97.2635C95.9819 97.3317 95.7176 97.4807 95.4733 97.7107C95.2289 97.9407 95.0771 98.1832 95.0178 98.4383C94.9519 98.6996 94.9569 98.9503 95.0327 99.1903L93.6656 100.477C93.4666 100.079 93.3582 99.6515 93.3404 99.1949C93.3227 98.7383 93.4041 98.288 93.5846 97.844C93.7652 97.4001 94.0503 96.9947 94.4399 96.628Z" fill="#E2A76F"/>
<path d="M90.1589 100.614L93.8697 106.383L92.5103 107.261L91.7923 106.396C91.8233 106.83 91.7427 107.249 91.5505 107.654C91.3506 108.064 91.026 108.415 90.5767 108.705C90.0969 109.015 89.6295 109.176 89.1744 109.189C88.7193 109.202 88.2853 109.072 87.8723 108.799C87.4518 108.53 87.0623 108.117 86.704 107.56L84.5615 104.229L86.0922 103.24L88.139 106.423C88.4335 106.881 88.7583 107.168 89.1134 107.284C89.4608 107.405 89.8364 107.336 90.24 107.075C90.4989 106.908 90.6919 106.697 90.819 106.442C90.9385 106.192 90.9817 105.915 90.9487 105.613C90.9206 105.318 90.8035 105.01 90.5973 104.689L88.6168 101.61L90.1589 100.614Z" fill="#E2A76F"/>
<path d="M79.498 106.605C79.9375 106.411 80.3523 106.308 80.7424 106.294C81.1279 106.293 81.4812 106.41 81.8023 106.645C82.1271 106.889 82.4118 107.289 82.6563 107.846L83.8281 110.513L84.8978 110.042L85.5165 111.45L84.4468 111.922L85.0103 113.712L83.5177 114.37L82.7675 112.663L81.1132 113.392L80.4945 111.984L82.1488 111.254L80.9662 108.562C80.8421 108.279 80.6941 108.111 80.5223 108.058C80.3504 108.005 80.1152 108.044 79.8167 108.176L78.9958 108.538L78.3661 107.105L79.498 106.605Z" fill="#E2A76F"/>
<path d="M70.4414 114.448L70.5145 116.371L71.7656 114.921L72.6566 115.996L71.0465 116.969L72.8747 117.326L72.442 118.563L70.7257 117.661L71.3367 119.503L70.0247 119.733L69.9894 117.79L68.6801 119.222L67.8701 118.216L69.4778 117.23L67.6205 116.864L68.073 115.582L69.7648 116.502L69.1562 114.673L70.4414 114.448Z" fill="#E2A76F"/>
<path d="M58.7617 110.646L57.8477 120.135L53.9653 119.76C53.3069 119.696 52.7623 119.538 52.3314 119.287C51.9005 119.035 51.5902 118.714 51.4004 118.321C51.2008 117.937 51.124 117.505 51.1701 117.026C51.2163 116.547 51.3587 116.155 51.5975 115.85C51.8362 115.545 52.1357 115.318 52.4958 115.171C52.846 115.031 53.2253 114.968 53.6338 114.98L53.403 115.108C52.9718 115.048 52.5999 114.893 52.2871 114.644C51.9644 114.403 51.7253 114.097 51.5699 113.727C51.4055 113.355 51.3433 112.961 51.3833 112.545C51.432 112.039 51.5969 111.604 51.8778 111.239C52.1587 110.874 52.5401 110.6 53.0218 110.419C53.5026 110.247 54.0767 110.193 54.744 110.257L58.7617 110.646ZM56.7919 111.96L54.898 111.777C54.402 111.729 54.0078 111.805 53.7155 112.005C53.4232 112.205 53.2566 112.517 53.2157 112.942C53.1748 113.366 53.2828 113.71 53.5397 113.972C53.7958 114.243 54.1718 114.402 54.6678 114.45L56.5346 114.631L56.7919 111.96ZM56.4027 116L54.6442 115.83C54.1662 115.784 53.795 115.857 53.5306 116.051C53.2572 116.243 53.1013 116.538 53.063 116.936C53.0256 117.325 53.1227 117.639 53.3543 117.881C53.5761 118.13 53.9304 118.279 54.4174 118.326L56.1625 118.495L56.4027 116Z" fill="#E2A76F"/>
<path d="M46.2053 108.44C46.831 108.624 47.3537 108.935 47.7733 109.371C48.1817 109.813 48.4581 110.335 48.6026 110.936C48.7358 111.543 48.7039 112.182 48.5068 112.853C48.3045 113.541 47.9845 114.1 47.5467 114.529C47.0976 114.964 46.5788 115.251 45.9902 115.39C45.3991 115.537 44.7907 115.519 44.1649 115.334C43.5304 115.147 43.009 114.832 42.6007 114.39C42.1811 113.953 41.9046 113.432 41.7714 112.824C41.6269 112.223 41.6545 111.583 41.8542 110.904C42.0539 110.224 42.3782 109.667 42.8273 109.232C43.2652 108.802 43.7796 108.514 44.3708 108.367C44.9593 108.228 45.5708 108.252 46.2053 108.44ZM45.756 109.968C45.4605 109.881 45.1793 109.874 44.9124 109.946C44.6368 110.017 44.3915 110.176 44.1767 110.425C43.9532 110.671 43.7787 111.008 43.6533 111.435C43.5278 111.861 43.4937 112.235 43.5508 112.554C43.5967 112.88 43.7165 113.148 43.9102 113.356C44.0927 113.571 44.3273 113.721 44.6141 113.805C44.8923 113.887 45.1704 113.889 45.4486 113.81C45.7242 113.74 45.9738 113.582 46.1973 113.336C46.4096 113.095 46.5784 112.762 46.7039 112.335C46.8293 111.908 46.8691 111.532 46.8232 111.206C46.7686 110.878 46.6488 110.61 46.4638 110.404C46.2701 110.196 46.0342 110.05 45.756 109.968Z" fill="#E2A76F"/>
<path d="M37.4323 104.999C38.0122 105.299 38.4672 105.702 38.7974 106.21C39.1154 106.721 39.2888 107.286 39.3178 107.903C39.3345 108.525 39.1831 109.146 38.8636 109.768C38.5357 110.405 38.1165 110.894 37.6058 111.233C37.083 111.576 36.5195 111.76 35.9154 111.785C35.3072 111.818 34.7132 111.685 34.1333 111.385C33.5453 111.082 33.0924 110.674 32.7744 110.163C32.4443 109.655 32.2708 109.09 32.254 108.469C32.2251 107.851 32.3725 107.228 32.6962 106.598C33.0199 105.969 33.4432 105.483 33.966 105.14C34.4767 104.801 35.0361 104.615 35.6443 104.581C36.2484 104.556 36.8444 104.696 37.4323 104.999ZM36.704 106.416C36.4301 106.274 36.1553 106.214 35.8795 106.235C35.5957 106.252 35.3248 106.362 35.0671 106.566C34.8013 106.766 34.5667 107.064 34.3633 107.459C34.16 107.855 34.0563 108.215 34.0524 108.54C34.0362 108.868 34.1037 109.153 34.2547 109.395C34.3936 109.64 34.5959 109.832 34.8616 109.969C35.1194 110.102 35.3922 110.156 35.6802 110.131C35.9641 110.114 36.2389 110.006 36.5047 109.806C36.7584 109.61 36.9868 109.315 37.1902 108.919C37.3936 108.524 37.5033 108.161 37.5195 107.833C37.5276 107.5 37.4601 107.215 37.3171 106.977C37.1661 106.736 36.9617 106.549 36.704 106.416Z" fill="#E2A76F"/>
<path d="M28.3859 99.3528L28.4352 104.117L24.4707 104.993L22.7523 103.68L27.7918 102.65L26.9101 103.808L26.5702 97.9655L28.3859 99.3528ZM31.9524 102.078L26.0195 109.876L24.5605 108.761L30.4933 100.963L31.9524 102.078Z" fill="#E2A76F"/>
<path d="M22.4255 93.9574L12.7142 96.8441L11.4742 95.1714L17.044 86.6982L18.203 88.2616L13.7783 94.7624L21.2747 92.405L22.4255 93.9574ZM19.7751 94.0134L18.3379 94.4727L15.4526 90.5807L16.3144 89.3452L19.7751 94.0134Z" fill="#E2A76F"/>
<path d="M18.7331 83.6345L9.81289 87.7961L9.12459 86.3144L9.90099 85.7269C9.65911 85.6795 9.42218 85.5997 9.1902 85.4876C8.95002 85.3793 8.72739 85.2228 8.52232 85.018C8.30521 84.8088 8.11827 84.5355 7.96149 84.198C7.68999 83.6136 7.59474 83.0321 7.67573 82.4535C7.75672 81.8748 7.98436 81.343 8.35865 80.8579C8.7209 80.3684 9.21414 79.978 9.83839 79.6868C10.4626 79.3956 11.0824 79.2667 11.6976 79.3002C12.3045 79.3375 12.8509 79.5132 13.3367 79.8274C13.8224 80.1416 14.1972 80.5827 14.4611 81.1507C14.6752 81.6116 14.7785 82.0492 14.771 82.4633C14.7515 82.873 14.6436 83.2539 14.4473 83.6058L17.9587 81.9676L18.7331 83.6345ZM13.1908 82.2241C13.0378 81.8948 12.8301 81.6412 12.5675 81.4632C12.3011 81.277 11.9999 81.1772 11.6638 81.1637C11.3278 81.1503 10.9831 81.2259 10.6299 81.3907C10.2767 81.5555 9.99713 81.771 9.79108 82.0374C9.57682 82.3077 9.45503 82.6048 9.42572 82.929C9.38438 83.2487 9.44019 83.5732 9.59314 83.9025C9.74227 84.2235 9.95414 84.4752 10.2287 84.6576C10.4913 84.8355 10.7925 84.9354 11.1324 84.9571C11.4685 84.9705 11.8131 84.8949 12.1663 84.7301C12.5195 84.5653 12.8032 84.3478 13.0175 84.0776C13.2197 83.803 13.3374 83.5077 13.3705 83.1918C13.3998 82.8677 13.3399 82.5451 13.1908 82.2241Z" fill="#E2A76F"/>
<path d="M14.9246 75.0502L5.35875 77.3594L4.97681 75.7706L5.85394 75.3487C5.62621 75.2542 5.40973 75.129 5.2045 74.9731C4.99046 74.8193 4.80317 74.6217 4.64262 74.3803C4.47114 74.1322 4.34191 73.8272 4.25491 73.4652C4.10426 72.8385 4.12579 72.2496 4.3195 71.6985C4.51321 71.1474 4.84143 70.6713 5.30415 70.2701C5.75594 69.8621 6.31655 69.5774 6.98598 69.4158C7.65541 69.2542 8.28832 69.2508 8.88472 69.4057C9.47231 69.5627 9.97314 69.8434 10.3872 70.2478C10.8013 70.6521 11.0815 71.1588 11.2279 71.7679C11.3467 72.2622 11.3616 72.7116 11.2724 73.116C11.1723 73.5138 10.9913 73.8657 10.7293 74.1717L14.4949 73.2627L14.9246 75.0502ZM9.77068 72.568C9.68581 72.2149 9.53227 71.9251 9.31006 71.6985C9.08574 71.4632 8.8102 71.3056 8.48346 71.2257C8.15671 71.1458 7.80396 71.1515 7.4252 71.243C7.04645 71.3344 6.72977 71.4902 6.47516 71.7105C6.21175 71.9328 6.03366 72.2 5.94089 72.5119C5.83719 72.8171 5.82777 73.1462 5.91265 73.4993C5.9954 73.8436 6.15334 74.1323 6.38648 74.3656C6.60868 74.5921 6.88422 74.7497 7.21309 74.8385C7.53983 74.9183 7.89258 74.9126 8.27134 74.8211C8.6501 74.7297 8.97118 74.5728 9.23459 74.3505C9.48707 74.1214 9.66076 73.8553 9.75565 73.5522C9.84843 73.2403 9.85344 72.9122 9.77068 72.568Z" fill="#E2A76F"/>
<path d="M9.9425 62.7668C9.97089 63.4199 9.84718 64.0161 9.57135 64.5552C9.28607 65.0857 8.88311 65.5168 8.36247 65.8486C7.83238 66.1716 7.21885 66.3484 6.52187 66.3788C5.80679 66.41 5.17572 66.2876 4.62865 66.0116C4.07214 65.7269 3.6331 65.328 3.31152 64.8149C2.98088 64.3022 2.80137 63.7194 2.77297 63.0662C2.74418 62.4041 2.87243 61.8077 3.1577 61.2772C3.43354 60.7381 3.83649 60.307 4.36658 59.9839C4.88722 59.6522 5.50056 59.4709 6.20659 59.4401C6.91262 59.4093 7.54389 59.5362 8.1004 59.8209C8.64746 60.0969 9.08631 60.4913 9.41694 61.0039C9.73852 61.517 9.91371 62.1046 9.9425 62.7668ZM8.35393 62.8362C8.34052 62.5278 8.25627 62.2588 8.10119 62.0293C7.94572 61.7907 7.71567 61.6099 7.41105 61.4869C7.10603 61.3548 6.73176 61.2984 6.28823 61.3178C5.84469 61.3371 5.48125 61.4257 5.19791 61.5835C4.90512 61.7326 4.69164 61.9328 4.55746 62.184C4.41383 62.4266 4.34853 62.6975 4.36154 62.9969C4.37416 63.2871 4.46274 63.5514 4.62727 63.7896C4.78274 64.0282 5.01299 64.2135 5.318 64.3456C5.61357 64.469 5.98312 64.5211 6.42666 64.5017C6.87019 64.4823 7.23835 64.3981 7.53114 64.249C7.82353 64.0908 8.03702 63.8906 8.17159 63.6485C8.30577 63.3972 8.36655 63.1265 8.35393 62.8362Z" fill="#E2A76F"/>
<path d="M9.82802 56.5055L3.00928 55.8551L3.18313 54.0248L10.0019 54.6752L9.82802 56.5055ZM2.16333 54.8441C2.13243 55.1695 2.01197 55.4316 1.80195 55.6305C1.58378 55.8194 1.32587 55.8997 1.02822 55.8713C0.730579 55.8429 0.496926 55.7158 0.327263 55.4898C0.149439 55.254 0.0759802 54.9733 0.106887 54.6479C0.138653 54.3135 0.263624 54.0518 0.481799 53.8628C0.691813 53.664 0.945642 53.5787 1.24329 53.6071C1.54093 53.6355 1.77866 53.7677 1.95649 54.0035C2.12615 54.2295 2.1951 54.5097 2.16333 54.8441Z" fill="#E2A76F"/>
<path d="M10.2401 52.0046L3.57185 50.4357L3.9415 48.8579L5.05748 48.9805C4.73465 48.6901 4.50205 48.3322 4.3597 47.907C4.21941 47.473 4.21036 46.9952 4.33254 46.4737C4.463 45.9168 4.68742 45.4753 5.0058 45.1492C5.32418 44.8231 5.72666 44.6146 6.21324 44.5239C6.70189 44.4244 7.26816 44.4504 7.91205 44.6019L11.7622 45.5077L11.3459 47.2844L7.66781 46.419C7.13859 46.2945 6.70592 46.314 6.36983 46.4774C6.0358 46.6319 5.81391 46.9435 5.70416 47.412C5.63375 47.7125 5.64115 47.9987 5.72637 48.2705C5.81365 48.5336 5.97407 48.7625 6.20762 48.9574C6.43235 49.1501 6.72994 49.2901 7.1004 49.3773L10.6594 50.2146L10.2401 52.0046Z" fill="#E2A76F"/>
<path d="M13.7607 40.2827C13.5785 40.728 13.3516 41.0911 13.08 41.372C12.8035 41.6411 12.4681 41.8026 12.0739 41.8566C11.6714 41.9071 11.1893 41.8169 10.6276 41.5862L7.93663 40.4806L7.49327 41.5643L6.07234 40.9805L6.51569 39.8968L4.8703 39L5.48894 37.4878L7.21166 38.1956L7.89732 36.5196L9.31826 37.1034L8.6326 38.7794L11.3487 39.8953C11.6337 40.0124 11.8565 40.0303 12.0171 39.9491C12.1776 39.8678 12.3197 39.676 12.4435 39.3736L12.7837 38.5419L14.2298 39.136L13.7607 40.2827Z" fill="#E2A76F"/>
<path d="M15.0706 36.7793L9.38536 32.9508L10.2874 31.6056L11.1265 31.9902C10.9771 31.6271 10.922 31.2453 10.9611 30.8451C10.9978 30.4322 11.145 30.0336 11.4027 29.6493C11.5948 29.3629 11.8042 29.132 12.031 28.9566C12.2578 28.7811 12.5007 28.6548 12.7599 28.5777C13.024 28.4931 13.303 28.4677 13.5969 28.5015C13.4301 28.0828 13.3739 27.6457 13.4283 27.1901C13.4828 26.7345 13.6439 26.307 13.9117 25.9076C14.2453 25.4102 14.6247 25.0641 15.0501 24.8692C15.468 24.6693 15.9205 24.6131 16.4077 24.7005C16.8999 24.7804 17.4205 25.0051 17.9695 25.3748L21.2407 27.5777L20.225 29.0925L17.0891 26.9807C16.6379 26.6769 16.2313 26.5344 15.8694 26.5532C15.5126 26.5645 15.2103 26.7547 14.9627 27.124C14.801 27.3652 14.7171 27.6205 14.7111 27.8899C14.7051 28.1593 14.7795 28.4227 14.9344 28.6802C15.0943 28.9301 15.3322 29.1614 15.648 29.3741L18.6711 31.4098L17.6478 32.9359L14.5119 30.8242C14.0607 30.5203 13.6541 30.3778 13.2922 30.3966C12.9303 30.4154 12.623 30.6132 12.3703 30.99C12.2137 31.2237 12.1323 31.4752 12.1263 31.7446C12.1254 32.0065 12.2023 32.2662 12.3572 32.5236C12.5171 32.7735 12.7549 33.0048 13.0708 33.2175L16.0939 35.2533L15.0706 36.7793Z" fill="#E2A76F"/>
<path d="M25.5861 23.6166C25.0838 24.0886 24.5386 24.4018 23.9503 24.5563C23.3624 24.6979 22.7797 24.6791 22.2022 24.4999C21.6251 24.3079 21.0979 23.9569 20.6207 23.4469C20.1311 22.9236 19.8062 22.3639 19.6458 21.7678C19.4793 21.165 19.4823 20.571 19.655 19.9856C19.828 19.3873 20.169 18.8491 20.6779 18.3709C21.1736 17.9051 21.7088 17.6076 22.2834 17.4784C22.858 17.3492 23.4213 17.3738 23.9732 17.5521C24.5252 17.7305 25.0211 18.0548 25.4611 18.5251C25.5231 18.5913 25.5944 18.6675 25.6749 18.7536C25.7493 18.8331 25.8202 18.9221 25.8875 19.0206L21.8327 22.8307L21.0705 22.0161L23.7968 19.4543C23.4733 19.1483 23.119 19.002 22.734 19.0153C22.3556 19.0224 22.0111 19.1719 21.7005 19.4638C21.4757 19.6749 21.3171 19.9235 21.2246 20.2096C21.1259 20.4891 21.1195 20.7875 21.2055 21.1051C21.298 21.4164 21.4962 21.7343 21.7998 22.0589L22.0694 22.347C22.3235 22.6185 22.5962 22.8104 22.8874 22.9226C23.1791 23.0219 23.4701 23.0409 23.7605 22.9796C24.0448 22.9117 24.3091 22.7628 24.5537 22.5331C24.7982 22.3033 24.9502 22.0609 25.0097 21.8058C25.0758 21.5446 25.071 21.2939 24.9954 21.0538L26.3635 19.7683C26.5622 20.1665 26.6703 20.5939 26.6877 21.0506C26.7051 21.5072 26.6233 21.9574 26.4424 22.4012C26.2615 22.8451 25.9761 23.2502 25.5861 23.6166Z" fill="#E2A76F"/>
<path d="M29.8696 19.6343L26.1634 13.8617L27.5235 12.9848L28.2408 13.8503C28.2101 13.4166 28.2911 12.9973 28.4836 12.5925C28.6838 12.1827 29.0087 11.8329 29.4582 11.543C29.9383 11.2335 30.4058 11.0724 30.8609 11.0597C31.316 11.047 31.7499 11.1775 32.1627 11.4512C32.583 11.72 32.9721 12.1331 33.33 12.6905L35.4699 16.0235L33.9384 17.0109L31.8941 13.8268C31.6 13.3687 31.2754 13.0813 30.9204 12.9647C30.5731 12.8432 30.1975 12.9126 29.7936 13.173C29.5346 13.34 29.3414 13.5509 29.2141 13.8058C29.0944 14.0557 29.051 14.332 29.0838 14.6348C29.1117 14.9299 29.2285 15.2378 29.4344 15.5585L31.4125 18.6395L29.8696 19.6343Z" fill="#E2A76F"/>
<path d="M40.5357 13.6512C40.0961 13.8447 39.6812 13.948 39.2911 13.961C38.9056 13.9621 38.5524 13.8448 38.2315 13.6093C37.9069 13.3654 37.6225 12.965 37.3784 12.408L36.2089 9.73948L35.1388 10.2105L34.5212 8.80142L35.5913 8.33041L35.0292 6.53992L36.5224 5.8827L37.2711 7.59104L38.9261 6.86262L39.5436 8.27169L37.8887 9.00011L39.0692 11.6935C39.193 11.9762 39.3409 12.1442 39.5127 12.1975C39.6845 12.2508 39.9197 12.2117 40.2183 12.0803L41.0396 11.7188L41.6681 13.1528L40.5357 13.6512Z" fill="#E2A76F"/>
<path d="M49.5978 5.8161L49.5262 3.89325L48.274 5.3418L47.3839 4.26661L48.9947 3.29469L47.1668 2.9359L47.6005 1.69911L49.3161 2.60279L48.7066 0.759859L50.0187 0.531177L50.0525 2.47445L51.3629 1.0434L52.1721 2.04975L50.5636 3.03509L52.4206 3.40263L51.9671 4.68434L50.276 3.76258L50.8832 5.59209L49.5978 5.8161Z" fill="#E2A76F"/>
<path d="M66.2845 56.1907L53.3966 69.0786L51.2793 66.9613L64.1657 54.0734H52.8081V51.0786H69.2793V67.5498H66.2845V56.1907Z" fill="#E2A76F"/>
</svg>
