<svg width="174" height="40" viewBox="0 0 174 40" fill="none" xmlns="http://www.w3.org/2000/svg">
<path fill-rule="evenodd" clip-rule="evenodd" d="M25.5557 11.6853C23.9112 10.5865 21.9778 10 20 10V0C23.9556 0 27.8224 1.17298 31.1114 3.37061C34.4004 5.56823 36.9638 8.69181 38.4776 12.3463C39.9913 16.0008 40.3874 20.0222 39.6157 23.9018C38.844 27.7814 36.9392 31.3451 34.1421 34.1421C31.3451 36.9392 27.7814 38.844 23.9018 39.6157C20.0222 40.3874 16.0008 39.9913 12.3463 38.4776C8.6918 36.9638 5.56823 34.4004 3.37061 31.1114C1.17298 27.8224 0 23.9556 0 20H10C10 21.9778 10.5865 23.9112 11.6853 25.5557C12.7841 27.2002 14.3459 28.4819 16.1732 29.2388C18.0004 29.9957 20.0111 30.1937 21.9509 29.8078C23.8907 29.422 25.6725 28.4696 27.0711 27.0711C28.4696 25.6725 29.422 23.8907 29.8078 21.9509C30.1937 20.0111 29.9957 18.0004 29.2388 16.1732C28.4819 14.3459 27.2002 12.7841 25.5557 11.6853Z" fill="#E2A76F"/>
<path fill-rule="evenodd" clip-rule="evenodd" d="M9.99999 5.28493e-06C9.99999 1.31322 9.74134 2.61358 9.23879 3.82684C8.73624 5.04009 7.99965 6.14248 7.07106 7.07107C6.14248 7.99966 5.04009 8.73625 3.82683 9.2388C2.61357 9.74134 1.31321 10 4.3711e-07 10L0 20C2.62643 20 5.22715 19.4827 7.65367 18.4776C10.0802 17.4725 12.285 15.9993 14.1421 14.1421C15.9993 12.285 17.4725 10.0802 18.4776 7.65367C19.4827 5.22715 20 2.62643 20 0L9.99999 5.28493e-06Z" fill="#E2A76F"/>
<path d="M55.8643 26.4559H67.8163V22.8559H60.1123V9.2959H55.8643V26.4559Z" fill="white"/>
<path d="M75.3684 24.057C73.6644 24.057 72.7764 22.569 72.7764 20.337C72.7764 18.105 73.6644 16.593 75.3684 16.593C77.0724 16.593 77.9844 18.105 77.9844 20.337C77.9844 22.569 77.0724 24.057 75.3684 24.057ZM75.3924 26.841C79.3524 26.841 81.9444 24.033 81.9444 20.337C81.9444 16.641 79.3524 13.833 75.3924 13.833C71.4564 13.833 68.8164 16.641 68.8164 20.337C68.8164 24.033 71.4564 26.841 75.3924 26.841Z" fill="white"/>
<path d="M89.2083 30.7036C91.0323 30.7036 92.6403 30.2956 93.7203 29.3356C94.7043 28.4476 95.3523 27.1036 95.3523 25.2556V14.1676H91.6083V15.4876H91.5603C90.8403 14.4556 89.7363 13.8076 88.1043 13.8076C85.0563 13.8076 82.9443 16.3516 82.9443 19.9516C82.9443 23.7196 85.5123 25.7836 88.2723 25.7836C89.7603 25.7836 90.6963 25.1836 91.4163 24.3676H91.5123V25.5916C91.5123 27.0796 90.8163 27.9436 89.1603 27.9436C87.8643 27.9436 87.2163 27.3916 87.0003 26.7436H83.2083C83.5923 29.3116 85.8243 30.7036 89.2083 30.7036ZM89.1843 22.8796C87.7203 22.8796 86.7603 21.6796 86.7603 19.8316C86.7603 17.9596 87.7203 16.7596 89.1843 16.7596C90.8163 16.7596 91.6803 18.1516 91.6803 19.8076C91.6803 21.5356 90.8883 22.8796 89.1843 22.8796Z" fill="white"/>
<path d="M102.905 24.057C101.201 24.057 100.313 22.569 100.313 20.337C100.313 18.105 101.201 16.593 102.905 16.593C104.609 16.593 105.521 18.105 105.521 20.337C105.521 22.569 104.609 24.057 102.905 24.057ZM102.929 26.841C106.889 26.841 109.48 24.033 109.48 20.337C109.48 16.641 106.889 13.833 102.929 13.833C98.9925 13.833 96.3525 16.641 96.3525 20.337C96.3525 24.033 98.9925 26.841 102.929 26.841Z" fill="white"/>
<path d="M110.48 26.4559H114.392V14.1679H110.48V26.4559ZM110.48 12.4639H114.392V9.2959H110.48V12.4639Z" fill="white"/>
<path d="M115.393 30.5116H119.305V25.1836H119.353C120.121 26.2156 121.249 26.8396 122.833 26.8396C126.049 26.8396 128.185 24.2956 128.185 20.3116C128.185 16.6156 126.193 13.8076 122.929 13.8076C121.249 13.8076 120.049 14.5516 119.209 15.6556H119.137V14.1676H115.393V30.5116ZM121.825 23.8156C120.145 23.8156 119.185 22.4476 119.185 20.4556C119.185 18.4636 120.049 16.9516 121.753 16.9516C123.433 16.9516 124.225 18.3436 124.225 20.4556C124.225 22.5436 123.313 23.8156 121.825 23.8156Z" fill="white"/>
<path d="M135.16 26.8396C138.376 26.8396 140.752 25.4476 140.752 22.7596C140.752 19.6156 138.208 19.0636 136.048 18.7036C134.488 18.4156 133.096 18.2956 133.096 17.4316C133.096 16.6636 133.84 16.3036 134.8 16.3036C135.88 16.3036 136.624 16.6396 136.768 17.7436H140.368C140.176 15.3196 138.304 13.8076 134.824 13.8076C131.92 13.8076 129.52 15.1516 129.52 17.7436C129.52 20.6236 131.8 21.1996 133.936 21.5596C135.568 21.8476 137.056 21.9676 137.056 23.0716C137.056 23.8636 136.312 24.2956 135.136 24.2956C133.84 24.2956 133.024 23.6956 132.88 22.4716H129.184C129.304 25.1836 131.56 26.8396 135.16 26.8396Z" fill="white"/>
<path d="M146.072 26.8169C147.776 26.8169 148.856 26.1449 149.744 24.9449H149.816V26.4569H153.56V14.1689H149.648V21.0329C149.648 22.4969 148.832 23.5049 147.488 23.5049C146.24 23.5049 145.64 22.7609 145.64 21.4169V14.1689H141.752V22.2329C141.752 24.9689 143.24 26.8169 146.072 26.8169Z" fill="white"/>
<path d="M154.561 26.4556H158.473V19.5676C158.473 18.1036 159.193 17.0716 160.417 17.0716C161.593 17.0716 162.145 17.8396 162.145 19.1596V26.4556H166.057V19.5676C166.057 18.1036 166.753 17.0716 168.001 17.0716C169.177 17.0716 169.729 17.8396 169.729 19.1596V26.4556H173.641V18.4636C173.641 15.7036 172.249 13.8076 169.465 13.8076C167.881 13.8076 166.561 14.4796 165.601 15.9676H165.553C164.929 14.6476 163.705 13.8076 162.097 13.8076C160.321 13.8076 159.145 14.6476 158.377 15.9196H158.305V14.1676H154.561V26.4556Z" fill="white"/>
</svg>
