<svg width="175" height="40" viewBox="0 0 175 40" fill="none" xmlns="http://www.w3.org/2000/svg">
<path d="M56.5049 26.4569H68.4569V22.8569H60.7529V9.29688H56.5049V26.4569Z" fill="white"/>
<path d="M76.009 24.058C74.305 24.058 73.417 22.57 73.417 20.338C73.417 18.106 74.305 16.594 76.009 16.594C77.713 16.594 78.625 18.106 78.625 20.338C78.625 22.57 77.713 24.058 76.009 24.058ZM76.033 26.842C79.993 26.842 82.585 24.034 82.585 20.338C82.585 16.642 79.993 13.834 76.033 13.834C72.097 13.834 69.457 16.642 69.457 20.338C69.457 24.034 72.097 26.842 76.033 26.842Z" fill="white"/>
<path d="M89.849 30.7046C91.673 30.7046 93.281 30.2966 94.361 29.3366C95.345 28.4486 95.993 27.1046 95.993 25.2566V14.1686H92.249V15.4886H92.201C91.481 14.4566 90.377 13.8086 88.745 13.8086C85.697 13.8086 83.585 16.3526 83.585 19.9526C83.585 23.7206 86.153 25.7846 88.913 25.7846C90.401 25.7846 91.337 25.1846 92.057 24.3686H92.153V25.5926C92.153 27.0806 91.457 27.9446 89.801 27.9446C88.505 27.9446 87.857 27.3926 87.641 26.7446H83.849C84.233 29.3126 86.465 30.7046 89.849 30.7046ZM89.825 22.8806C88.361 22.8806 87.401 21.6806 87.401 19.8326C87.401 17.9606 88.361 16.7606 89.825 16.7606C91.457 16.7606 92.321 18.1526 92.321 19.8086C92.321 21.5366 91.529 22.8806 89.825 22.8806Z" fill="white"/>
<path d="M103.545 24.058C101.841 24.058 100.953 22.57 100.953 20.338C100.953 18.106 101.841 16.594 103.545 16.594C105.249 16.594 106.161 18.106 106.161 20.338C106.161 22.57 105.249 24.058 103.545 24.058ZM103.569 26.842C107.529 26.842 110.121 24.034 110.121 20.338C110.121 16.642 107.529 13.834 103.569 13.834C99.6332 13.834 96.9932 16.642 96.9932 20.338C96.9932 24.034 99.6332 26.842 103.569 26.842Z" fill="white"/>
<path d="M111.121 26.4569H115.033V14.1689H111.121V26.4569ZM111.121 12.4649H115.033V9.29688H111.121V12.4649Z" fill="white"/>
<path d="M116.033 30.5126H119.945V25.1846H119.993C120.761 26.2166 121.889 26.8406 123.473 26.8406C126.689 26.8406 128.825 24.2966 128.825 20.3126C128.825 16.6166 126.833 13.8086 123.569 13.8086C121.889 13.8086 120.689 14.5526 119.849 15.6566H119.777V14.1686H116.033V30.5126ZM122.465 23.8166C120.785 23.8166 119.825 22.4486 119.825 20.4566C119.825 18.4646 120.689 16.9526 122.393 16.9526C124.073 16.9526 124.865 18.3446 124.865 20.4566C124.865 22.5446 123.953 23.8166 122.465 23.8166Z" fill="white"/>
<path d="M135.8 26.8406C139.016 26.8406 141.392 25.4486 141.392 22.7606C141.392 19.6166 138.848 19.0646 136.688 18.7046C135.128 18.4166 133.736 18.2966 133.736 17.4326C133.736 16.6646 134.48 16.3046 135.44 16.3046C136.52 16.3046 137.264 16.6406 137.408 17.7446H141.008C140.816 15.3206 138.944 13.8086 135.464 13.8086C132.56 13.8086 130.16 15.1526 130.16 17.7446C130.16 20.6246 132.44 21.2006 134.576 21.5606C136.208 21.8486 137.696 21.9686 137.696 23.0726C137.696 23.8646 136.952 24.2966 135.776 24.2966C134.48 24.2966 133.664 23.6966 133.52 22.4726H129.824C129.944 25.1846 132.2 26.8406 135.8 26.8406Z" fill="white"/>
<path d="M146.713 26.8179C148.417 26.8179 149.497 26.1459 150.385 24.9459H150.457V26.4579H154.201V14.1699H150.289V21.0339C150.289 22.4979 149.473 23.5059 148.129 23.5059C146.881 23.5059 146.281 22.7619 146.281 21.4179V14.1699H142.393V22.2339C142.393 24.9699 143.881 26.8179 146.713 26.8179Z" fill="white"/>
<path d="M155.201 26.4566H159.113V19.5686C159.113 18.1046 159.833 17.0726 161.057 17.0726C162.233 17.0726 162.785 17.8406 162.785 19.1606V26.4566H166.697V19.5686C166.697 18.1046 167.393 17.0726 168.641 17.0726C169.817 17.0726 170.369 17.8406 170.369 19.1606V26.4566H174.281V18.4646C174.281 15.7046 172.889 13.8086 170.105 13.8086C168.521 13.8086 167.201 14.4806 166.241 15.9686H166.193C165.569 14.6486 164.345 13.8086 162.737 13.8086C160.961 13.8086 159.785 14.6486 159.017 15.9206H158.945V14.1686H155.201V26.4566Z" fill="white"/>
<path d="M25.7331 1.05386L21.8001 0L18.4857 12.3696L15.4934 1.20224L11.5603 2.2561L14.7933 14.3216L6.7407 6.26898L3.86151 9.14817L12.6942 17.981L1.69448 15.0336L0.640625 18.9666L12.6592 22.187C12.5216 21.5935 12.4488 20.9751 12.4488 20.3397C12.4488 15.8421 16.0948 12.1961 20.5924 12.1961C25.09 12.1961 28.736 15.8421 28.736 20.3397C28.736 20.971 28.6641 21.5856 28.5282 22.1756L39.4509 25.1023L40.5047 21.1693L28.4383 17.9361L39.4388 14.9885L38.3849 11.0555L26.319 14.2885L34.3716 6.23592L31.4924 3.35673L22.7822 12.067L25.7331 1.05386Z" fill="#E2A76F"/>
<path d="M28.5171 22.2217C28.1799 23.6473 27.468 24.928 26.4912 25.9541L34.4042 33.8672L37.2834 30.988L28.5171 22.2217Z" fill="#E2A76F"/>
<path d="M26.4114 26.0371C25.4228 27.0468 24.1735 27.8003 22.7725 28.1886L25.6519 38.9346L29.5849 37.8807L26.4114 26.0371Z" fill="#E2A76F"/>
<path d="M22.6256 28.2274C21.9756 28.3945 21.2943 28.4833 20.5922 28.4833C19.84 28.4833 19.1116 28.3813 18.4201 28.1904L15.5381 38.9462L19.4711 40L22.6256 28.2274Z" fill="#E2A76F"/>
<path d="M18.281 28.1511C16.9014 27.7435 15.6743 26.9804 14.7059 25.9678L6.77344 33.9003L9.65263 36.7795L18.281 28.1511Z" fill="#E2A76F"/>
<path d="M14.6405 25.8971C13.6887 24.8781 12.9954 23.6145 12.6654 22.2109L1.70703 25.1472L2.76088 29.0802L14.6405 25.8971Z" fill="#E2A76F"/>
</svg>
