<svg width="150" height="36" viewBox="0 0 150 36" fill="none" xmlns="http://www.w3.org/2000/svg">
<path d="M45.0244 25.747H55.5189V22.586H48.7544V10.6797H45.0244V25.747Z" fill="white"/>
<path d="M61.7364 23.6403C60.2402 23.6403 59.4605 22.3337 59.4605 20.3739C59.4605 18.4141 60.2402 17.0865 61.7364 17.0865C63.2326 17.0865 64.0333 18.4141 64.0333 20.3739C64.0333 22.3337 63.2326 23.6403 61.7364 23.6403ZM61.7575 26.0847C65.2345 26.0847 67.5104 23.6192 67.5104 20.3739C67.5104 17.1286 65.2345 14.6631 61.7575 14.6631C58.3015 14.6631 55.9834 17.1286 55.9834 20.3739C55.9834 23.6192 58.3015 26.0847 61.7575 26.0847Z" fill="white"/>
<path d="M73.5284 29.4771C75.13 29.4771 76.5419 29.1189 77.4902 28.2759C78.3542 27.4962 78.9232 26.3161 78.9232 24.6935V14.9577H75.6357V16.1167H75.5936C74.9614 15.2106 73.992 14.6416 72.5591 14.6416C69.8828 14.6416 68.0283 16.8754 68.0283 20.0363C68.0283 23.3448 70.2832 25.1571 72.7066 25.1571C74.0131 25.1571 74.835 24.6303 75.4671 23.9138H75.5514V24.9885C75.5514 26.2951 74.9403 27.0537 73.4863 27.0537C72.3483 27.0537 71.7793 26.569 71.5897 26H68.2601C68.5973 28.2549 70.5571 29.4771 73.5284 29.4771ZM73.5073 22.6073C72.2219 22.6073 71.379 21.5536 71.379 19.931C71.379 18.2873 72.2219 17.2336 73.5073 17.2336C74.9403 17.2336 75.699 18.4558 75.699 19.9099C75.699 21.4272 75.0035 22.6073 73.5073 22.6073Z" fill="white"/>
<path d="M85.6827 23.6403C84.1865 23.6403 83.4068 22.3337 83.4068 20.3739C83.4068 18.4141 84.1865 17.0865 85.6827 17.0865C87.1789 17.0865 87.9793 18.4141 87.9793 20.3739C87.9793 22.3337 87.1789 23.6403 85.6827 23.6403ZM85.7037 26.0847C89.1805 26.0847 91.4564 23.6192 91.4564 20.3739C91.4564 17.1286 89.1805 14.6631 85.7037 14.6631C82.2477 14.6631 79.9297 17.1286 79.9297 20.3739C79.9297 23.6192 82.2477 26.0847 85.7037 26.0847Z" fill="white"/>
<path d="M92.46 25.747H95.8949V14.9575H92.46V25.747ZM92.46 13.4613H95.8949V10.6797H92.46V13.4613Z" fill="white"/>
<path d="M97.3848 29.3085H100.82V24.6303H100.862C101.536 25.5364 102.527 26.0843 103.917 26.0843C106.741 26.0843 108.617 23.8506 108.617 20.3524C108.617 17.1072 106.868 14.6416 104.002 14.6416C102.527 14.6416 101.473 15.2949 100.735 16.2642H100.672V14.9577H97.3848V29.3085ZM103.032 23.4291C101.557 23.4291 100.714 22.2279 100.714 20.4789C100.714 18.7298 101.473 17.4022 102.969 17.4022C104.444 17.4022 105.14 18.6244 105.14 20.4789C105.14 22.3122 104.339 23.4291 103.032 23.4291Z" fill="white"/>
<path d="M114.21 26.0843C117.034 26.0843 119.12 24.8621 119.12 22.5019C119.12 19.7413 116.886 19.2566 114.99 18.9405C113.62 18.6877 112.398 18.5823 112.398 17.8237C112.398 17.1493 113.051 16.8332 113.894 16.8332C114.842 16.8332 115.496 17.1282 115.622 18.0976H118.783C118.614 15.9692 116.971 14.6416 113.915 14.6416C111.365 14.6416 109.258 15.8217 109.258 18.0976C109.258 20.6264 111.26 21.1321 113.135 21.4482C114.568 21.7011 115.875 21.8065 115.875 22.7758C115.875 23.4713 115.222 23.8506 114.189 23.8506C113.051 23.8506 112.335 23.3237 112.208 22.249H108.963C109.068 24.6303 111.049 26.0843 114.21 26.0843Z" fill="white"/>
<path d="M123.785 26.0636C125.282 26.0636 126.23 25.4735 127.01 24.4199H127.073V25.7475H130.36V14.958H126.925V20.9849C126.925 22.2704 126.209 23.1555 125.029 23.1555C123.933 23.1555 123.406 22.5022 123.406 21.3221V14.958H119.992V22.0386C119.992 24.4409 121.299 26.0636 123.785 26.0636Z" fill="white"/>
<path d="M131.854 25.7472H135.289V19.6992C135.289 18.4137 135.922 17.5076 136.996 17.5076C138.029 17.5076 138.514 18.1819 138.514 19.3409V25.7472H141.949V19.6992C141.949 18.4137 142.56 17.5076 143.655 17.5076C144.688 17.5076 145.173 18.1819 145.173 19.3409V25.7472H148.608V18.7298C148.608 16.3064 147.385 14.6416 144.941 14.6416C143.55 14.6416 142.391 15.2317 141.548 16.5382H141.506C140.958 15.3792 139.883 14.6416 138.471 14.6416C136.912 14.6416 135.879 15.3792 135.205 16.496H135.142V14.9577H131.854V25.7472Z" fill="white"/>
<path fill-rule="evenodd" clip-rule="evenodd" d="M17.6498 35.4061C27.3486 35.4061 35.2108 27.5438 35.2108 17.8451C35.2108 8.14649 27.3486 0.28418 17.6498 0.28418C7.95117 0.28418 0.0888672 8.14649 0.0888672 17.8451C0.0888672 27.5438 7.95117 35.4061 17.6498 35.4061ZM20.3603 13.8523C21.8572 12.3553 21.8572 9.92828 20.3603 8.43129C18.8634 6.93433 16.4363 6.93433 14.9394 8.43129C13.4425 9.92828 13.4425 12.3553 14.9394 13.8523L17.6498 16.5627L20.3603 13.8523ZM21.6427 20.5557C23.1397 22.0526 25.5667 22.0526 27.0637 20.5557C28.5606 19.0587 28.5606 16.6317 27.0637 15.1347C25.5667 13.6378 23.1397 13.6378 21.6427 15.1347L18.9323 17.8452L21.6427 20.5557ZM20.3603 27.259C21.8572 25.762 21.8572 23.335 20.3603 21.838L17.6498 19.1276L14.9394 21.838C13.4425 23.335 13.4425 25.762 14.9394 27.259C16.4363 28.756 18.8634 28.756 20.3603 27.259ZM8.23596 20.5557C6.73902 19.0587 6.73902 16.6317 8.23596 15.1347C9.73297 13.6378 12.16 13.6378 13.657 15.1347L16.3674 17.8452L13.657 20.5557C12.16 22.0526 9.73297 22.0526 8.23596 20.5557Z" fill="#E2A76F"/>
</svg>
