<svg width="174" height="41" viewBox="0 0 174 41" fill="none" xmlns="http://www.w3.org/2000/svg">
<path d="M56.1455 27.0125H68.0975V23.4125H60.3935V9.85254H56.1455V27.0125Z" fill="white"/>
<path d="M75.6497 24.6136C73.9457 24.6136 73.0577 23.1256 73.0577 20.8936C73.0577 18.6616 73.9457 17.1496 75.6497 17.1496C77.3537 17.1496 78.2657 18.6616 78.2657 20.8936C78.2657 23.1256 77.3537 24.6136 75.6497 24.6136ZM75.6737 27.3976C79.6337 27.3976 82.2257 24.5896 82.2257 20.8936C82.2257 17.1976 79.6337 14.3896 75.6737 14.3896C71.7377 14.3896 69.0977 17.1976 69.0977 20.8936C69.0977 24.5896 71.7377 27.3976 75.6737 27.3976Z" fill="white"/>
<path d="M89.4896 31.2603C91.3136 31.2603 92.9216 30.8523 94.0016 29.8923C94.9856 29.0043 95.6336 27.6603 95.6336 25.8123V14.7243H91.8896V16.0443H91.8416C91.1216 15.0123 90.0176 14.3643 88.3856 14.3643C85.3376 14.3643 83.2256 16.9083 83.2256 20.5083C83.2256 24.2763 85.7936 26.3403 88.5536 26.3403C90.0416 26.3403 90.9776 25.7403 91.6976 24.9243H91.7936V26.1483C91.7936 27.6363 91.0976 28.5003 89.4416 28.5003C88.1456 28.5003 87.4976 27.9483 87.2816 27.3003H83.4896C83.8736 29.8683 86.1056 31.2603 89.4896 31.2603ZM89.4656 23.4363C88.0016 23.4363 87.0416 22.2363 87.0416 20.3883C87.0416 18.5163 88.0016 17.3163 89.4656 17.3163C91.0976 17.3163 91.9616 18.7083 91.9616 20.3643C91.9616 22.0923 91.1696 23.4363 89.4656 23.4363Z" fill="white"/>
<path d="M103.186 24.6136C101.482 24.6136 100.594 23.1256 100.594 20.8936C100.594 18.6616 101.482 17.1496 103.186 17.1496C104.89 17.1496 105.802 18.6616 105.802 20.8936C105.802 23.1256 104.89 24.6136 103.186 24.6136ZM103.21 27.3976C107.17 27.3976 109.761 24.5896 109.761 20.8936C109.761 17.1976 107.17 14.3896 103.21 14.3896C99.2738 14.3896 96.6338 17.1976 96.6338 20.8936C96.6338 24.5896 99.2738 27.3976 103.21 27.3976Z" fill="white"/>
<path d="M110.762 27.0125H114.674V14.7245H110.762V27.0125ZM110.762 13.0205H114.674V9.85254H110.762V13.0205Z" fill="white"/>
<path d="M115.674 31.0683H119.586V25.7403H119.634C120.402 26.7723 121.53 27.3963 123.114 27.3963C126.33 27.3963 128.466 24.8523 128.466 20.8683C128.466 17.1723 126.474 14.3643 123.21 14.3643C121.53 14.3643 120.33 15.1083 119.49 16.2123H119.418V14.7243H115.674V31.0683ZM122.106 24.3723C120.426 24.3723 119.466 23.0043 119.466 21.0123C119.466 19.0203 120.33 17.5083 122.034 17.5083C123.714 17.5083 124.506 18.9003 124.506 21.0123C124.506 23.1003 123.594 24.3723 122.106 24.3723Z" fill="white"/>
<path d="M135.441 27.3963C138.657 27.3963 141.033 26.0043 141.033 23.3163C141.033 20.1723 138.489 19.6203 136.329 19.2603C134.769 18.9723 133.377 18.8523 133.377 17.9883C133.377 17.2203 134.121 16.8603 135.081 16.8603C136.161 16.8603 136.905 17.1963 137.049 18.3003H140.649C140.457 15.8763 138.585 14.3643 135.105 14.3643C132.201 14.3643 129.801 15.7083 129.801 18.3003C129.801 21.1803 132.081 21.7563 134.217 22.1163C135.849 22.4043 137.337 22.5243 137.337 23.6283C137.337 24.4203 136.593 24.8523 135.417 24.8523C134.121 24.8523 133.305 24.2523 133.161 23.0283H129.465C129.585 25.7403 131.841 27.3963 135.441 27.3963Z" fill="white"/>
<path d="M146.353 27.3736C148.057 27.3736 149.137 26.7016 150.025 25.5016H150.097V27.0136H153.841V14.7256H149.929V21.5896C149.929 23.0536 149.113 24.0616 147.769 24.0616C146.521 24.0616 145.921 23.3176 145.921 21.9736V14.7256H142.033V22.7896C142.033 25.5256 143.521 27.3736 146.353 27.3736Z" fill="white"/>
<path d="M154.842 27.0123H158.754V20.1243C158.754 18.6603 159.474 17.6283 160.698 17.6283C161.874 17.6283 162.426 18.3963 162.426 19.7163V27.0123H166.338V20.1243C166.338 18.6603 167.034 17.6283 168.282 17.6283C169.458 17.6283 170.01 18.3963 170.01 19.7163V27.0123H173.922V19.0203C173.922 16.2603 172.53 14.3643 169.746 14.3643C168.162 14.3643 166.842 15.0363 165.882 16.5243H165.834C165.21 15.2043 163.986 14.3643 162.378 14.3643C160.602 14.3643 159.426 15.2043 158.658 16.4763H158.586V14.7243H154.842V27.0123Z" fill="white"/>
<path fill-rule="evenodd" clip-rule="evenodd" d="M20.2813 40.5566C31.327 40.5566 40.2813 31.6023 40.2813 20.5566C40.2813 9.51095 31.327 0.556641 20.2813 0.556641C9.23554 0.556641 0.28125 9.51095 0.28125 20.5566C0.28125 31.6023 9.23554 40.5566 20.2813 40.5566ZM26.5206 9.87348C26.8243 8.79469 25.7774 8.15677 24.8213 8.83794L11.4744 18.3462C10.4375 19.0849 10.6006 20.5566 11.7194 20.5566H15.234V20.5294H22.0838L16.5025 22.4987L14.042 31.2398C13.7383 32.3186 14.7851 32.9565 15.7413 32.2753L29.0882 22.7671C30.1251 22.0284 29.9619 20.5566 28.8432 20.5566H23.5134L26.5206 9.87348Z" fill="#E2A76F"/>
</svg>
