<svg width="130" height="130" viewBox="0 0 130 130" fill="none" xmlns="http://www.w3.org/2000/svg">
<circle cx="65" cy="65" r="65" fill="#E2A76F"/>
<path d="M70.6461 18.7002C69.738 18.5974 68.9778 18.3181 68.3655 17.8622C67.7628 17.3989 67.3247 16.8038 67.051 16.0771C66.787 15.3429 66.7084 14.5223 66.8154 13.6153C66.9223 12.7084 67.1896 11.9269 67.6175 11.2711C68.054 10.6162 68.6196 10.1305 69.3142 9.814C70.0174 9.49851 70.8231 9.39218 71.7312 9.495C72.8295 9.61936 73.6975 9.9882 74.3351 10.6015C74.9727 11.2148 75.3205 12.0187 75.3786 13.013L73.4716 12.7971C73.4151 12.3097 73.2207 11.9141 72.8885 11.6102C72.5659 11.2988 72.1148 11.1103 71.5354 11.0447C70.9992 10.984 70.5215 11.0587 70.1023 11.269C69.6928 11.4717 69.3573 11.7901 69.0958 12.2244C68.8353 12.6501 68.6676 13.1808 68.5926 13.8166C68.5187 14.4438 68.5585 14.998 68.7121 15.4792C68.8657 15.9605 69.1183 16.3455 69.4699 16.6344C69.8301 16.9243 70.2783 17.0996 70.8145 17.1603C71.394 17.2259 71.8755 17.1559 72.259 16.9502C72.6436 16.7361 72.9186 16.4108 73.0839 15.9742L75.0039 16.1916C74.722 17.096 74.1999 17.7712 73.4374 18.2174C72.6749 18.6637 71.7445 18.8246 70.6461 18.7002Z" fill="white"/>
<path d="M80.4283 20.7659C79.8351 20.5675 79.3459 20.2552 78.9608 19.8289C78.5867 19.3972 78.3425 18.8964 78.2282 18.3262C78.125 17.7508 78.1816 17.1521 78.3981 16.5303C78.6202 15.8924 78.9501 15.3806 79.3879 14.9951C79.8368 14.6042 80.3465 14.3555 80.9172 14.2488C81.4907 14.134 82.074 14.1758 82.6673 14.3742C83.2688 14.5754 83.7565 14.8918 84.1306 15.3234C84.5157 15.7497 84.7599 16.2506 84.8631 16.826C84.9774 17.3962 84.9249 17.9962 84.7056 18.6261C84.4863 19.2559 84.1523 19.7663 83.7035 20.1572C83.2657 20.5427 82.7601 20.7928 82.1866 20.9076C81.6159 21.0143 81.0298 20.967 80.4283 20.7659ZM80.9217 19.3487C81.2019 19.4423 81.4715 19.4604 81.7308 19.4028C81.9982 19.348 82.2401 19.208 82.4565 18.9829C82.6811 18.7605 82.8623 18.4514 83 18.0557C83.1378 17.66 83.1857 17.3109 83.1439 17.0084C83.113 16.7006 83.0089 16.4449 82.8314 16.2413C82.665 16.0323 82.4458 15.8824 82.1739 15.7915C81.9102 15.7033 81.6433 15.6907 81.373 15.7536C81.1055 15.8084 80.8595 15.947 80.6349 16.1694C80.4213 16.3865 80.2457 16.6929 80.1079 17.0886C79.9702 17.4843 79.9167 17.836 79.9475 18.1439C79.9866 18.4544 80.0907 18.7101 80.26 18.911C80.4375 19.1146 80.6581 19.2605 80.9217 19.3487Z" fill="white"/>
<path d="M86.403 22.8277L89.6874 17.2376L91.0341 17.9976L90.6129 18.971C90.9689 18.7584 91.3618 18.6453 91.7917 18.6319C92.229 18.6228 92.6703 18.7438 93.1154 18.995C93.5907 19.2633 93.9341 19.5851 94.1456 19.9604C94.357 20.3357 94.4371 20.7551 94.3859 21.2185C94.3422 21.6861 94.1618 22.1899 93.8446 22.7296L91.9483 25.9573L90.4318 25.1014L92.2435 22.018C92.5041 21.5743 92.6059 21.1788 92.5488 20.8315C92.4992 20.4885 92.2744 20.2041 91.8746 19.9784C91.6181 19.8336 91.3532 19.7629 91.08 19.7663C90.8143 19.7739 90.5597 19.8567 90.3162 20.0146C90.0771 20.1652 89.8662 20.3958 89.6838 20.7063L87.9308 23.6899L86.403 22.8277Z" fill="white"/>
<path d="M96.4735 29.3607C96.1166 29.0741 95.8476 28.7698 95.6666 28.4479C95.4978 28.1248 95.4441 27.7783 95.5057 27.4086C95.5727 27.0322 95.7911 26.6229 96.1608 26.1807L97.9322 24.0622L97.0635 23.3645L97.9988 22.2459L98.8675 22.9436L100.153 21.709L101.365 22.6825L100.231 24.0387L101.575 25.1177L100.639 26.2363L99.2958 25.1574L97.5079 27.2957C97.3203 27.5201 97.2411 27.7157 97.2704 27.8827C97.2996 28.0496 97.4355 28.2304 97.6779 28.4251L98.3446 28.9605L97.3927 30.099L96.4735 29.3607Z" fill="white"/>
<path d="M100.707 33.5082C100.343 33.1059 100.108 32.7172 100.001 32.3422C99.9014 31.9616 99.9045 31.6112 100.011 31.291C100.129 30.9716 100.325 30.6931 100.599 30.4554C100.898 30.1951 101.229 30.0393 101.589 29.9881C101.956 29.9433 102.34 30.0144 102.742 30.2014C103.149 30.3947 103.561 30.7213 103.977 31.1811L105.059 32.3784C105.3 32.169 105.47 31.9645 105.569 31.7648C105.674 31.5595 105.705 31.3558 105.662 31.1538C105.619 30.9518 105.496 30.739 105.294 30.5155C105.075 30.2729 104.832 30.1134 104.565 30.0372C104.311 29.9617 104.056 30.001 103.799 30.1551L102.665 28.9003C103.045 28.6266 103.45 28.4752 103.877 28.4461C104.316 28.4177 104.752 28.5009 105.184 28.6957C105.622 28.8969 106.02 29.1954 106.378 29.5914C106.788 30.0448 107.065 30.5054 107.209 30.9733C107.353 31.4412 107.359 31.8919 107.227 32.3253C107.096 32.7588 106.815 33.1623 106.385 33.5358L103.336 36.1842L102.348 35.0922L102.971 34.2949C102.777 34.3379 102.585 34.3567 102.394 34.3515C102.203 34.3462 102.011 34.3137 101.817 34.2539C101.623 34.1941 101.435 34.1013 101.251 33.9756C101.061 33.8556 100.88 33.6998 100.707 33.5082ZM102 32.9319C102.15 33.0979 102.312 33.2194 102.487 33.2961C102.673 33.3737 102.862 33.415 103.053 33.4203C103.25 33.4199 103.44 33.3858 103.623 33.318C103.818 33.251 104.006 33.1563 104.186 33.034L104.196 33.0255L103.304 32.0389C103.125 31.8409 102.952 31.7007 102.784 31.6183C102.629 31.5365 102.48 31.5066 102.336 31.5283C102.193 31.5501 102.063 31.6119 101.946 31.7137C101.815 31.8269 101.734 31.949 101.701 32.0801C101.668 32.2111 101.678 32.3507 101.731 32.4989C101.783 32.6471 101.873 32.7914 102 32.9319Z" fill="white"/>
<path d="M106.549 41.0935C106.208 40.538 106.031 39.9698 106.02 39.3889C106.008 38.808 106.148 38.267 106.44 37.7661C106.732 37.2651 107.161 36.8473 107.728 36.5127C108.309 36.1692 108.894 35.9882 109.483 35.9696C110.078 35.9466 110.635 36.0759 111.154 36.3574C111.68 36.6345 112.114 37.0508 112.455 37.6063C112.891 38.3153 113.067 39.0232 112.983 39.7302C112.899 40.4371 112.566 41.0523 111.983 41.5757L111.019 40.008C111.24 39.7881 111.36 39.5281 111.379 39.2281C111.402 38.9354 111.326 38.6465 111.151 38.3615C110.994 38.1057 110.785 37.9151 110.525 37.7897C110.277 37.6672 109.99 37.6223 109.665 37.6551C109.351 37.6907 109.023 37.8098 108.68 38.0124C108.419 38.1665 108.204 38.3381 108.036 38.5271C107.875 38.7118 107.756 38.9066 107.679 39.1116C107.609 39.3122 107.586 39.5149 107.61 39.7198C107.639 39.9319 107.712 40.133 107.829 40.323C107.945 40.513 108.085 40.665 108.246 40.7789C108.412 40.9 108.588 40.9802 108.775 41.0194C108.969 41.0542 109.169 41.0406 109.375 40.9788L110.339 42.5466C109.609 42.7981 108.9 42.7935 108.211 42.5327C107.534 42.2749 106.98 41.7952 106.549 41.0935Z" fill="white"/>
<path d="M110.522 48.6567C110.351 48.2366 110.266 47.8428 110.267 47.4752C110.278 47.1124 110.403 46.7837 110.639 46.4893C110.883 46.1917 111.277 45.9371 111.818 45.7254L114.414 44.7112L113.999 43.6887L115.369 43.1532L115.785 44.1757L117.52 43.7047L118.1 45.1314L116.438 45.7807L117.081 47.362L115.71 47.8975L115.067 46.3162L112.447 47.3399C112.172 47.4473 112.006 47.581 111.949 47.741C111.893 47.901 111.922 48.1236 112.038 48.4089L112.357 49.1936L110.962 49.7386L110.522 48.6567Z" fill="white"/>
<path d="M113.138 59.2979C113.079 58.7806 113.137 58.3235 113.311 57.9268C113.494 57.5376 113.787 57.2224 114.189 56.9811C114.599 56.7389 115.12 56.5833 115.752 56.5144L119.555 56.0996L119.75 57.8169L116.129 58.2118C115.601 58.2694 115.215 58.4188 114.971 58.6601C114.727 58.9098 114.631 59.2594 114.682 59.7089C114.715 59.9972 114.809 60.2445 114.964 60.4509C115.127 60.6563 115.342 60.8089 115.607 60.9087C115.882 61.0161 116.206 61.0495 116.578 61.0089L120.069 60.6281L120.262 62.3326L113.721 63.0461L113.551 61.5451L114.599 61.2891C114.206 61.1431 113.876 60.9001 113.61 60.5599C113.352 60.2189 113.195 59.7982 113.138 59.2979Z" fill="white"/>
<path d="M113.467 68.5413C113.508 67.9539 113.64 67.4496 113.861 67.0284C114.083 66.6071 114.371 66.2845 114.728 66.0605C115.084 65.8365 115.476 65.7218 115.904 65.7165L115.783 67.4275C115.615 67.4589 115.458 67.521 115.312 67.6138C115.175 67.7072 115.061 67.8363 114.971 68.0013C114.881 68.1663 114.827 68.3679 114.811 68.6063C114.794 68.8361 114.812 69.0255 114.862 69.1743C114.922 69.3237 115.005 69.4362 115.113 69.5119C115.221 69.5962 115.336 69.6424 115.457 69.6506C115.64 69.6629 115.782 69.6212 115.885 69.5255C115.996 69.4304 116.089 69.287 116.164 69.0953C116.238 68.9036 116.316 68.6694 116.396 68.3925C116.479 68.0902 116.574 67.793 116.681 67.5009C116.797 67.2179 116.933 66.9662 117.088 66.7458C117.243 66.5253 117.434 66.3543 117.661 66.2327C117.887 66.1112 118.161 66.0612 118.483 66.0829C118.874 66.1093 119.214 66.2349 119.504 66.4597C119.802 66.6851 120.028 66.9997 120.183 67.4036C120.338 67.8075 120.396 68.2861 120.357 68.8394C120.303 69.614 120.082 70.2149 119.694 70.6421C119.306 71.0692 118.797 71.3042 118.165 71.3472L118.279 69.7255C118.483 69.6879 118.647 69.5836 118.773 69.4124C118.906 69.2504 118.983 69.0246 119.003 68.7352C119.025 68.4288 118.985 68.1909 118.883 68.0215C118.782 67.8522 118.64 67.7613 118.457 67.749C118.336 67.7408 118.224 67.7846 118.121 67.8803C118.018 67.9845 117.924 68.1321 117.841 68.3232C117.767 68.5149 117.689 68.7492 117.608 69.026C117.47 69.5127 117.317 69.9386 117.152 70.3038C116.996 70.6695 116.784 70.9503 116.517 71.1462C116.259 71.3426 115.895 71.4249 115.426 71.3933C115.009 71.3652 114.644 71.2293 114.329 70.9857C114.023 70.7427 113.794 70.4108 113.64 69.9899C113.486 69.5775 113.428 69.0946 113.467 68.5413Z" fill="white"/>
<path d="M115.745 81.977L117.386 82.8029L116.764 81.1082L118.082 80.8719L118.136 82.6418L119.296 81.3058L120.126 82.231L118.564 83.2241L120.391 83.5715L119.965 84.7542L118.325 83.8878L118.905 85.6223L117.683 85.8238L117.615 84.0496L116.434 85.4055L115.576 84.4434L117.142 83.4788L115.327 83.1356L115.745 81.977Z" fill="white"/>
<path d="M104.242 93.5329C104.788 92.8144 105.416 92.3098 106.125 92.0191C106.836 91.7404 107.581 91.6672 108.36 91.7995C109.141 91.9437 109.904 92.2886 110.651 92.834C111.399 93.3794 111.954 93.9979 112.319 94.6896C112.678 95.3881 112.823 96.1112 112.754 96.8589C112.68 97.6134 112.37 98.3499 111.824 99.0684C111.164 99.9375 110.403 100.489 109.542 100.722C108.681 100.955 107.797 100.847 106.89 100.397L108.036 98.8886C108.495 99.0851 108.942 99.1186 109.377 98.9893C109.813 98.8718 110.206 98.5839 110.554 98.1254C110.877 97.7011 111.05 97.2586 111.075 96.7977C111.101 96.3488 110.988 95.9046 110.736 95.4652C110.491 95.0308 110.106 94.6224 109.583 94.2402C109.066 93.863 108.557 93.6189 108.055 93.5078C107.553 93.3968 107.087 93.4179 106.655 93.5712C106.219 93.7313 105.839 94.0235 105.517 94.4478C105.168 94.9062 104.989 95.3497 104.978 95.778C104.974 96.2115 105.124 96.6078 105.426 96.9669L104.271 98.486C103.614 97.7936 103.28 97.0122 103.268 96.1419C103.257 95.2716 103.581 94.4019 104.242 93.5329Z" fill="white"/>
<path d="M97.514 100.804C97.9858 100.399 98.5063 100.14 99.0755 100.026C99.6438 99.9242 100.209 99.9671 100.77 100.155C101.33 100.355 101.831 100.702 102.272 101.196C102.725 101.704 103.012 102.24 103.134 102.804C103.256 103.38 103.221 103.937 103.03 104.475C102.845 105.019 102.516 105.494 102.045 105.898C101.566 106.308 101.043 106.564 100.475 106.666C99.9054 106.78 99.3407 106.737 98.7805 106.537C98.2195 106.35 97.7154 106.005 97.2683 105.504C96.8211 105.004 96.5369 104.465 96.4157 103.889C96.2937 103.324 96.3252 102.77 96.5103 102.226C96.7012 101.688 97.0357 101.214 97.514 100.804ZM98.5202 101.931C98.2974 102.122 98.1467 102.342 98.0681 102.591C97.9829 102.845 97.9857 103.12 98.0766 103.417C98.161 103.718 98.3436 104.027 98.6245 104.341C98.9055 104.656 99.19 104.871 99.4783 104.987C99.7658 105.114 100.044 105.154 100.312 105.105C100.58 105.068 100.822 104.957 101.039 104.771C101.248 104.591 101.393 104.371 101.472 104.11C101.557 103.856 101.558 103.578 101.473 103.276C101.388 102.986 101.205 102.684 100.924 102.369C100.643 102.055 100.359 101.833 100.072 101.706C99.7777 101.584 99.4997 101.544 99.2376 101.588C98.969 101.637 98.7298 101.751 98.5202 101.931Z" fill="white"/>
<path d="M92.7069 104.849L96.015 110.426L94.6715 111.191L94.0204 110.348C94.0311 110.757 93.9352 111.147 93.7329 111.519C93.523 111.895 93.1961 112.21 92.752 112.463C92.2778 112.733 91.8221 112.864 91.3847 112.857C90.9472 112.85 90.5364 112.709 90.152 112.434C89.7601 112.164 89.4044 111.76 89.085 111.221L87.175 108.001L88.6878 107.139L90.5125 110.215C90.775 110.658 91.0742 110.941 91.4099 111.066C91.7381 111.195 92.1016 111.146 92.5005 110.918C92.7564 110.772 92.9509 110.583 93.0841 110.349C93.2098 110.119 93.2635 109.862 93.2451 109.576C93.2311 109.298 93.1322 109.004 92.9484 108.694L91.1828 105.718L92.7069 104.849Z" fill="white"/>
<path d="M81.9022 110.149C82.3338 109.989 82.7371 109.913 83.1121 109.92C83.4821 109.938 83.8151 110.065 84.1112 110.302C84.4105 110.547 84.6632 110.937 84.8694 111.472L85.8576 114.034L86.9081 113.645L87.4299 114.998L86.3794 115.387L86.8287 117.095L85.3629 117.638L84.7303 115.998L83.1056 116.6L82.5839 115.247L84.2085 114.645L83.2111 112.059C83.1065 111.787 82.973 111.623 82.8109 111.564C82.6487 111.506 82.421 111.531 82.1278 111.639L81.3216 111.938L80.7906 110.561L81.9022 110.149Z" fill="white"/>
<path d="M76.0958 111.673C76.6334 111.566 77.0944 111.562 77.4788 111.659C77.8649 111.766 78.1726 111.944 78.402 112.195C78.6245 112.455 78.7721 112.761 78.8446 113.112C78.924 113.497 78.8958 113.855 78.76 114.187C78.6156 114.52 78.3602 114.81 77.9936 115.057C77.6186 115.305 77.1239 115.491 76.5095 115.612L74.9095 115.93C74.9734 116.239 75.0687 116.486 75.1955 116.67C75.324 116.862 75.4882 116.99 75.6881 117.055C75.888 117.12 76.1373 117.123 76.436 117.063C76.7602 116.999 77.0229 116.873 77.2239 116.685C77.4182 116.507 77.5115 116.271 77.504 115.977L79.1808 115.644C79.2313 116.104 79.1623 116.523 78.9736 116.9C78.7782 117.287 78.4861 117.614 78.0974 117.883C77.7002 118.153 77.2371 118.341 76.708 118.446C76.1022 118.566 75.5567 118.57 75.0715 118.457C74.5864 118.344 74.1855 118.123 73.8689 117.794C73.5522 117.466 73.337 117.025 73.223 116.473L72.415 112.559L73.8741 112.27L74.2656 113.198C74.3249 113.012 74.4047 112.839 74.5051 112.68C74.6055 112.521 74.7306 112.374 74.8806 112.24C75.0305 112.106 75.207 111.992 75.4099 111.9C75.6112 111.799 75.8398 111.723 76.0958 111.673ZM75.9556 113.058C75.7337 113.102 75.5452 113.179 75.3901 113.288C75.2281 113.407 75.097 113.546 74.9966 113.706C74.898 113.873 74.8327 114.052 74.8006 114.241C74.7618 114.44 74.7512 114.647 74.7688 114.861L74.7714 114.873L76.0897 114.612C76.3543 114.559 76.5649 114.483 76.7218 114.382C76.8718 114.291 76.9732 114.18 77.0258 114.048C77.0784 113.915 77.0892 113.774 77.0581 113.623C77.0236 113.456 76.9567 113.326 76.8575 113.232C76.7582 113.139 76.63 113.077 76.4729 113.047C76.3157 113.017 76.1433 113.021 75.9556 113.058Z" fill="white"/>
<path d="M66.4746 112.818C67.1361 112.807 67.7262 112.942 68.2448 113.224C68.7634 113.505 69.1707 113.895 69.4667 114.394C69.7626 114.893 69.9162 115.466 69.9274 116.115C69.939 116.78 69.8054 117.367 69.5269 117.875C69.2485 118.392 68.855 118.799 68.3464 119.098C67.838 119.405 67.253 119.564 66.5915 119.575C65.7471 119.589 65.0339 119.383 64.4519 118.958C63.8698 118.532 63.4939 117.941 63.3241 117.184L65.1912 117.153C65.2748 117.451 65.4442 117.682 65.6996 117.849C65.9463 118.015 66.2394 118.096 66.5788 118.09C66.8835 118.085 67.1564 118.004 67.3975 117.846C67.63 117.697 67.8134 117.477 67.9476 117.184C68.0733 116.901 68.1328 116.563 68.126 116.17C68.1208 115.871 68.077 115.603 67.9945 115.366C67.9122 115.137 67.7999 114.938 67.6577 114.77C67.5156 114.61 67.3481 114.489 67.1551 114.407C66.9534 114.325 66.7394 114.286 66.5131 114.29C66.2868 114.293 66.0829 114.335 65.9014 114.415C65.7112 114.495 65.552 114.604 65.4238 114.743C65.2958 114.89 65.2074 115.066 65.1587 115.272L63.2915 115.303C63.4354 114.558 63.7951 113.959 64.3706 113.506C64.9376 113.061 65.6389 112.832 66.4746 112.818Z" fill="white"/>
<path d="M57.7578 112.398C58.2144 112.463 58.605 112.588 58.9295 112.772C59.2441 112.964 59.4723 113.234 59.6141 113.581C59.7546 113.938 59.7828 114.399 59.6986 114.965L59.2953 117.675L60.4067 117.834L60.1937 119.265L59.0824 119.106L58.6304 120.813L57.0797 120.592L57.3379 118.857L55.6192 118.611L55.8322 117.18L57.5508 117.426L57.9579 114.69C58.0006 114.403 57.9655 114.195 57.8526 114.067C57.7397 113.939 57.5282 113.852 57.2181 113.808L56.3652 113.686L56.5819 112.23L57.7578 112.398Z" fill="white"/>
<path d="M47.0447 109.295C47.531 109.504 47.9057 109.781 48.169 110.128C48.4208 110.478 48.5527 110.884 48.5646 111.346C48.573 111.816 48.4495 112.336 48.1941 112.906L46.6562 116.34L45.0419 115.645L46.5063 112.376C46.7197 111.899 46.781 111.497 46.6902 111.169C46.5914 110.837 46.3307 110.581 45.9082 110.399C45.6372 110.282 45.3718 110.238 45.112 110.266C44.8488 110.302 44.6066 110.408 44.3856 110.583C44.153 110.762 43.9616 111.02 43.8111 111.356L42.3992 114.509L40.7969 113.819L43.4422 107.913L44.8532 108.52L44.5543 109.537C44.8802 109.277 45.26 109.119 45.6937 109.063C46.124 109.015 46.5743 109.092 47.0447 109.295Z" fill="white"/>
<path d="M38.7932 104.984C39.2911 105.314 39.6705 105.678 39.9313 106.077C40.1921 106.476 40.3322 106.883 40.3514 107.297C40.3707 107.711 40.2754 108.101 40.0656 108.467L38.6153 107.507C38.6717 107.349 38.6957 107.185 38.687 107.014C38.6735 106.851 38.6165 106.69 38.516 106.53C38.4156 106.371 38.2643 106.225 38.0623 106.091C37.8674 105.962 37.6917 105.882 37.5349 105.85C37.3733 105.826 37.2319 105.84 37.1109 105.894C36.9826 105.943 36.8844 106.017 36.8162 106.116C36.7139 106.265 36.6792 106.406 36.7122 106.542C36.7403 106.684 36.8203 106.834 36.9522 106.994C37.0841 107.153 37.252 107.336 37.456 107.543C37.6817 107.765 37.8964 107.994 38.1003 108.232C38.292 108.472 38.4463 108.713 38.5632 108.955C38.6801 109.197 38.7354 109.445 38.729 109.698C38.7227 109.951 38.6294 110.209 38.4492 110.47C38.23 110.789 37.9485 111.014 37.6049 111.147C37.2563 111.287 36.8649 111.322 36.4307 111.251C35.9965 111.179 35.5449 110.989 35.0759 110.678C34.4193 110.244 33.9996 109.755 33.8169 109.212C33.6342 108.669 33.6821 108.119 33.9607 107.562L35.3353 108.472C35.2665 108.663 35.2763 108.855 35.3645 109.047C35.4406 109.242 35.6013 109.42 35.8466 109.582C36.1064 109.754 36.3365 109.84 36.5369 109.838C36.7373 109.837 36.8887 109.762 36.991 109.614C37.0592 109.515 37.0768 109.398 37.0438 109.263C37.0036 109.123 36.92 108.97 36.793 108.803C36.6611 108.644 36.4932 108.461 36.2891 108.254C35.9291 107.892 35.6293 107.549 35.3898 107.226C35.1453 106.91 35.0036 106.59 34.9644 106.265C34.9204 105.948 35.03 105.598 35.293 105.216C35.5268 104.877 35.8301 104.635 36.2028 104.49C36.5707 104.353 36.9789 104.324 37.4276 104.405C37.869 104.481 38.3242 104.674 38.7932 104.984Z" fill="white"/>
<path d="M25.7853 100.185L24.2354 101.166L26.0441 101.484L25.5947 102.721L24.0028 101.883L24.6043 103.536L23.3719 103.778L23.2748 101.955L22.0548 103.333L21.2222 102.381L22.8075 101.421L20.9846 101.047L21.417 99.9085L23.0188 100.738L22.4102 99.0578L23.6893 98.8097L23.7596 100.621L24.9697 99.2516L25.7853 100.185Z" fill="white"/>
<path d="M21.2966 84.6363C21.6592 85.4587 21.7919 86.2437 21.6947 86.9913C21.5861 87.7344 21.279 88.4037 20.7732 88.999C20.256 89.5898 19.5699 90.0663 18.7148 90.4285C17.8597 90.7907 17.0354 90.9539 16.2419 90.9181C15.445 90.8745 14.7332 90.6369 14.1066 90.2051C13.4765 89.7655 12.9801 89.1345 12.6175 88.3121C12.1789 87.3174 12.0715 86.3962 12.2953 85.5485C12.519 84.7008 13.0559 84.004 13.9058 83.4581L14.6673 85.1852C14.2647 85.4766 14.012 85.8392 13.9093 86.2731C13.7952 86.7026 13.8538 87.1797 14.0852 87.7045C14.2993 88.1901 14.604 88.5583 14.9991 88.8093C15.3828 89.0557 15.8319 89.1816 16.3463 89.1868C16.8528 89.1954 17.4057 89.0728 18.0051 88.8189C18.5965 88.5684 19.0665 88.2578 19.4152 87.8871C19.7638 87.5163 19.9781 87.1095 20.0579 86.6667C20.1342 86.2161 20.0654 85.748 19.8512 85.2624C19.6199 84.7376 19.3175 84.3637 18.9441 84.1407C18.5628 83.9211 18.1379 83.8501 17.6694 83.9277L16.9027 82.1889C17.8429 81.9766 18.7006 82.0827 19.4758 82.5073C20.2511 82.9319 20.858 83.6416 21.2966 84.6363Z" fill="white"/>
<path d="M18.2387 75.2816C18.3591 75.8845 18.3269 76.4558 18.142 76.9956C17.9468 77.5286 17.6257 77.9859 17.1785 78.3673C16.721 78.742 16.1634 78.9925 15.5055 79.1188C14.8306 79.2483 14.2134 79.2233 13.6542 79.0437C13.0846 78.8573 12.6104 78.5484 12.2314 78.1168C11.8439 77.6869 11.5899 77.1705 11.4695 76.5676C11.3474 75.9563 11.3839 75.3842 11.579 74.8511C11.7639 74.3113 12.0851 73.8541 12.5425 73.4794C12.9897 73.098 13.5465 72.8433 14.2129 72.7154C14.8793 72.5875 15.4973 72.6167 16.0668 72.8031C16.6261 72.9827 17.0995 73.2874 17.487 73.7173C17.866 74.1489 18.1165 74.6703 18.2387 75.2816ZM16.7392 75.5693C16.6823 75.2846 16.5638 75.0465 16.3836 74.8551C16.2017 74.6552 15.9573 74.5195 15.6502 74.448C15.3415 74.3682 14.9779 74.3684 14.5592 74.4487C14.1406 74.5291 13.8079 74.6625 13.5613 74.8489C13.3044 75.0286 13.1303 75.2447 13.0387 75.497C12.937 75.7426 12.9137 76.0035 12.9689 76.2798C13.0224 76.5478 13.1444 76.7809 13.3348 76.9791C13.5167 77.179 13.762 77.3188 14.0707 77.3987C14.3692 77.4718 14.7278 77.4682 15.1464 77.3879C15.5651 77.3075 15.9028 77.1775 16.1597 76.9978C16.4148 76.8097 16.589 76.5937 16.6822 76.3498C16.7738 76.0974 16.7928 75.8373 16.7392 75.5693Z" fill="white"/>
<path d="M17.0802 69.1629L10.4985 69.1717L10.4964 67.6486L11.5671 67.5192C11.2011 67.3234 10.9047 67.0465 10.6779 66.6884C10.451 66.3218 10.3372 65.8868 10.3365 65.3834C10.3358 64.8458 10.4483 64.3935 10.6742 64.0262C10.9 63.659 11.2305 63.3813 11.6655 63.193C12.1005 62.9962 12.6358 62.8973 13.2714 62.8965L17.0715 62.8914L17.0739 64.6065L13.4435 64.6113C12.9212 64.612 12.5208 64.7235 12.2425 64.9457C11.9643 65.1594 11.8254 65.4923 11.826 65.9446C11.8264 66.2347 11.8965 66.4948 12.0361 66.725C12.1757 66.9467 12.3762 67.1213 12.6375 67.249C12.8902 67.3766 13.1993 67.4402 13.565 67.4397L17.0778 67.435L17.0802 69.1629Z" fill="white"/>
<path d="M17.8143 57.3129C17.7396 57.7592 17.6053 58.1396 17.4115 58.4543C17.2105 58.7592 16.9312 58.9781 16.5738 59.1108C16.2077 59.2422 15.7369 59.2616 15.1613 59.1691L12.4035 58.7257L12.2217 59.8119L10.7655 59.5778L10.9473 58.4916L9.21351 58.0183L9.46718 56.5027L11.2327 56.7865L11.5138 55.1067L12.97 55.3408L12.6889 57.0206L15.4724 57.4682C15.7645 57.5151 15.977 57.4844 16.1098 57.3761C16.2426 57.2677 16.3344 57.062 16.3851 56.7589L16.5247 55.9253L18.0066 56.1635L17.8143 57.3129Z" fill="white"/>
<path d="M19.3697 51.6388C19.1952 52.1484 18.9686 52.5418 18.6899 52.8192C18.403 53.0938 18.0915 53.2658 17.7555 53.3353C17.414 53.394 17.0699 53.3663 16.7233 53.2522C16.3436 53.1273 16.0412 52.9243 15.8161 52.6432C15.5937 52.354 15.4651 51.9922 15.4302 51.5577C15.3982 51.1151 15.4819 50.6026 15.6813 50.0202L16.2008 48.5035C15.8955 48.4031 15.6299 48.3607 15.4041 48.3764C15.17 48.3894 14.9744 48.4646 14.8172 48.6018C14.66 48.7391 14.5329 48.9493 14.4359 49.2324C14.3306 49.5398 14.3107 49.8258 14.3762 50.0904C14.4362 50.3441 14.5983 50.5414 14.8622 50.6823L14.3178 52.2718C13.886 52.0847 13.5507 51.8169 13.3119 51.4683C13.0677 51.1089 12.924 50.6971 12.881 50.233C12.8407 49.7607 12.9065 49.2738 13.0782 48.7723C13.275 48.1979 13.5444 47.733 13.8865 47.3776C14.2287 47.0221 14.6243 46.7923 15.0732 46.688C15.5222 46.5837 16.0191 46.6211 16.5638 46.8003L20.4264 48.0712L19.9526 49.4544L18.937 49.3228C19.0716 49.466 19.1841 49.6201 19.2746 49.7849C19.3651 49.9496 19.4322 50.1292 19.4758 50.3236C19.5194 50.5179 19.5314 50.7244 19.5116 50.9429C19.5002 51.1641 19.4528 51.3961 19.3697 51.6388ZM18.2152 50.8269C18.2872 50.6166 18.3138 50.4183 18.2949 50.2321C18.2706 50.0351 18.2132 49.8542 18.1227 49.6894C18.0239 49.5219 17.899 49.3773 17.7478 49.2555C17.5912 49.123 17.4138 49.0106 17.2158 48.9185L17.2034 48.9144L16.7754 50.1642C16.6895 50.4149 16.6519 50.632 16.6625 50.8156C16.6676 50.9883 16.7155 51.13 16.8061 51.2408C16.8967 51.3516 17.0163 51.4315 17.1648 51.4804C17.3299 51.5347 17.4786 51.5431 17.6108 51.5056C17.743 51.4681 17.8616 51.3901 17.9665 51.2716C18.0713 51.1531 18.1542 51.0048 18.2152 50.8269Z" fill="white"/>
<path d="M23.172 42.8985C22.85 43.465 22.4347 43.8975 21.9261 44.1961C21.4176 44.4947 20.869 44.6445 20.2805 44.6455C19.6919 44.6464 19.1087 44.4891 18.5306 44.1735C17.9374 43.8496 17.4864 43.4422 17.1775 42.9512C16.861 42.456 16.6984 41.918 16.6898 41.337C16.6736 40.7519 16.8265 40.1761 17.1485 39.6096C17.5595 38.8865 18.0988 38.3849 18.7663 38.1048C19.4338 37.8246 20.1442 37.8022 20.8973 38.0376L19.9885 39.6365C19.6842 39.5582 19.3945 39.5857 19.1195 39.7188C18.8488 39.8444 18.6308 40.0526 18.4655 40.3433C18.3172 40.6042 18.2522 40.8764 18.2705 41.1598C18.2854 41.4317 18.3882 41.6978 18.579 41.9583C18.7664 42.2071 19.0351 42.4271 19.3849 42.6181C19.6511 42.7634 19.9097 42.8607 20.1608 42.9099C20.4043 42.9549 20.636 42.9594 20.8559 42.9231C21.0682 42.8828 21.259 42.8014 21.4282 42.6789C21.6017 42.549 21.7436 42.3871 21.8537 42.1933C21.9639 41.9995 22.0292 41.8057 22.0498 41.6118C22.0745 41.4104 22.0579 41.2206 21.9997 41.0424C21.934 40.86 21.8226 40.6966 21.6655 40.5522L22.5743 38.9533C23.1597 39.4488 23.5082 40.0542 23.6198 40.7695C23.728 41.4733 23.5788 42.1829 23.172 42.8985Z" fill="white"/>
<path d="M27.883 35.7678C27.5964 36.1222 27.2904 36.3908 26.9649 36.5735C26.6381 36.7443 26.2855 36.8025 25.9073 36.7482C25.5222 36.6887 25.1011 36.4814 24.6439 36.1264L22.4536 34.4253L21.7561 35.288L20.5995 34.3898L21.297 33.5271L20.0164 32.2876L20.9897 31.0838L22.3919 32.1728L23.4706 30.8387L24.6271 31.7369L23.5485 33.0711L25.7593 34.788C25.9913 34.9682 26.1922 35.0426 26.362 35.0111C26.5318 34.9797 26.714 34.8436 26.9087 34.6029L27.444 33.9408L28.621 34.8549L27.883 35.7678Z" fill="white"/>
<path d="M36 28.2175C35.5723 28.5261 35.1397 28.7058 34.7022 28.7565C34.2665 28.7954 33.8416 28.7047 33.4275 28.4843C33.0081 28.2571 32.6101 27.8927 32.2333 27.3911L29.9648 24.3711L31.3846 23.3467L33.5446 26.2224C33.8595 26.6416 34.1845 26.8944 34.5198 26.981C34.8621 27.0624 35.219 26.9691 35.5906 26.701C35.829 26.529 36.0006 26.3257 36.1055 26.0911C36.2052 25.8497 36.2328 25.5914 36.1883 25.3162C36.1456 25.0291 36.0133 24.7379 35.7914 24.4424L33.7087 21.6698L35.1179 20.653L39.02 25.8478L37.779 26.7432L37.0285 25.9814C37.0962 26.3882 37.0464 26.7897 36.8791 27.1858C36.7067 27.5752 36.4136 27.919 36 28.2175Z" fill="white"/>
<path d="M43.9225 23.3625C43.3828 23.6211 42.8715 23.7617 42.3885 23.7842C41.9055 23.8067 41.476 23.7229 41.1 23.5326C40.7241 23.3424 40.4268 23.0669 40.2081 22.7063L41.7801 21.953C41.8919 22.0799 42.0253 22.1821 42.1803 22.2598C42.3316 22.3298 42.5026 22.3618 42.6934 22.3558C42.8843 22.3499 43.0892 22.2944 43.3082 22.1895C43.5193 22.0883 43.678 21.979 43.7842 21.8616C43.8866 21.7365 43.9442 21.6092 43.957 21.4796C43.9777 21.3462 43.9613 21.2258 43.9077 21.1185C43.8274 20.9576 43.7193 20.8574 43.5834 20.8181C43.4436 20.7711 43.2704 20.7638 43.0638 20.7964C42.8571 20.8289 42.6114 20.8802 42.3265 20.9503C42.0182 21.0315 41.708 21.0994 41.396 21.154C41.0881 21.1971 40.7979 21.2079 40.5255 21.1865C40.2532 21.165 40.0066 21.0885 39.7859 20.9568C39.5651 20.8252 39.384 20.6175 39.2425 20.3339C39.0704 19.989 39.0113 19.6374 39.0651 19.2791C39.1152 18.9132 39.2799 18.5636 39.5594 18.2302C39.8388 17.8968 40.2327 17.6083 40.7411 17.3647C41.4528 17.0236 42.0943 16.9108 42.6657 17.0265C43.237 17.1421 43.6994 17.4571 44.053 17.9715L42.5631 18.6856C42.4282 18.5318 42.2538 18.4444 42.0398 18.4234C41.8298 18.3911 41.5919 18.4386 41.326 18.5661C41.0444 18.701 40.8542 18.8539 40.7553 19.0248C40.6564 19.1956 40.6471 19.3616 40.7275 19.5225C40.781 19.6298 40.8757 19.7032 41.0116 19.7425C41.1554 19.7781 41.3325 19.7835 41.543 19.7586C41.7496 19.726 41.9954 19.6747 42.2803 19.6047C42.7798 19.4793 43.2322 19.3954 43.6375 19.3532C44.039 19.3032 44.393 19.3425 44.6994 19.4711C45.002 19.5921 45.2566 19.8595 45.4631 20.2734C45.6466 20.6413 45.7094 21.0197 45.6514 21.4084C45.5895 21.7895 45.4111 22.1505 45.116 22.4913C44.8287 22.8285 44.4309 23.1189 43.9225 23.3625Z" fill="white"/>
<path d="M54.6827 14.7153L54.5941 12.9091L53.4058 14.283L52.5395 13.2816L54.0773 12.352L52.3172 12.0333L52.7212 10.8667L54.3789 11.6986L53.7743 9.97291L55.0328 9.74477L55.0852 11.5705L56.3296 10.2125L57.1174 11.15L55.582 12.0922L57.3702 12.4188L56.9476 13.6278L55.3132 12.7787L55.9154 14.4918L54.6827 14.7153Z" fill="white"/>
<path d="M70.104 61.4643L58.849 72.7193L57 70.8703L68.2536 59.6153H58.3351V57H72.7193V71.3842H70.104V61.4643Z" fill="white"/>
</svg>
