<svg width="24" height="24" viewBox="0 0 24 24" fill="none" xmlns="http://www.w3.org/2000/svg">
<path d="M8.966 3.85718L9.70314 1.95432C9.82746 1.63214 10.0462 1.35502 10.3307 1.15926C10.6151 0.963487 10.9521 0.858198 11.2974 0.857178H12.7031C13.0485 0.858198 13.3854 0.963487 13.6699 1.15926C13.9544 1.35502 14.1731 1.63214 14.2974 1.95432L15.0346 3.85718L17.5374 5.29718L19.5603 4.98861C19.8971 4.94289 20.2399 4.99833 20.5452 5.1479C20.8504 5.29747 21.1043 5.53441 21.2746 5.82861L21.9603 7.02861C22.136 7.32749 22.2169 7.67263 22.1925 8.01847C22.168 8.36431 22.0392 8.6946 21.8231 8.96575L20.5717 10.56V13.44L21.8574 15.0343C22.0735 15.3055 22.2023 15.6358 22.2267 15.9816C22.2512 16.3274 22.1703 16.6726 21.9946 16.9715L21.3089 18.1715C21.1386 18.4657 20.8847 18.7026 20.5795 18.8522C20.2742 19.0017 19.9314 19.0572 19.5946 19.0115L17.5717 18.7029L15.0689 20.1429L14.3317 22.0457C14.2074 22.3679 13.9887 22.645 13.7042 22.8408C13.4197 23.0366 13.0828 23.1419 12.7374 23.1429H11.2974C10.9521 23.1419 10.6151 23.0366 10.3307 22.8408C10.0462 22.645 9.82746 22.3679 9.70314 22.0457L8.966 20.1429L6.46314 18.7029L4.44028 19.0115C4.10345 19.0572 3.76064 19.0017 3.45539 18.8522C3.15015 18.7026 2.89626 18.4657 2.726 18.1715L2.04028 16.9715C1.86457 16.6726 1.78361 16.3274 1.8081 15.9816C1.83258 15.6358 1.96136 15.3055 2.17742 15.0343L3.42885 13.44V10.56L2.14314 8.96575C1.92707 8.6946 1.7983 8.36431 1.77381 8.01847C1.74933 7.67263 1.83028 7.32749 2.006 7.02861L2.69171 5.82861C2.86198 5.53441 3.11587 5.29747 3.42111 5.1479C3.72635 4.99833 4.06917 4.94289 4.406 4.98861L6.42885 5.29718L8.966 3.85718ZM8.57171 12C8.57171 12.6781 8.77279 13.341 9.14953 13.9048C9.52626 14.4687 10.0617 14.9081 10.6882 15.1676C11.3147 15.4271 12.0041 15.495 12.6692 15.3627C13.3342 15.2304 13.9452 14.9039 14.4246 14.4244C14.9041 13.9449 15.2307 13.334 15.363 12.6689C15.4953 12.0038 15.4274 11.3145 15.1679 10.688C14.9084 10.0615 14.4689 9.52602 13.9051 9.14928C13.3413 8.77255 12.6784 8.57146 12.0003 8.57146C11.091 8.57146 10.2189 8.93269 9.57592 9.57567C8.93293 10.2187 8.57171 11.0907 8.57171 12V12Z" stroke="white" stroke-linecap="round" stroke-linejoin="round"/>
</svg>
