<svg width="31" height="31" viewBox="0 0 31 31" fill="none" xmlns="http://www.w3.org/2000/svg">
<g clip-path="url(#clip0_3_2275)">
<path d="M6.63599 11.5996V20.471" stroke="white" stroke-linecap="round" stroke-linejoin="round"/>
<path d="M15.2075 11.5996V20.471" stroke="white" stroke-linecap="round" stroke-linejoin="round"/>
<path d="M10.9221 13.5068V18.564" stroke="white" stroke-linecap="round" stroke-linejoin="round"/>
<path d="M23.7786 11.5996V20.471" stroke="white" stroke-linecap="round" stroke-linejoin="round"/>
<path d="M19.4934 13.5068V18.564" stroke="white" stroke-linecap="round" stroke-linejoin="round"/>
<path d="M1.27856 9.07129V3.71415C1.27856 3.14583 1.50433 2.60078 1.90619 2.19892C2.30806 1.79705 2.8531 1.57129 3.42142 1.57129H8.77856" stroke="white" stroke-linecap="round" stroke-linejoin="round"/>
<path d="M29.136 9.07129V3.71415C29.136 3.14583 28.9102 2.60078 28.5084 2.19892C28.1065 1.79705 27.5615 1.57129 26.9931 1.57129H21.636" stroke="white" stroke-linecap="round" stroke-linejoin="round"/>
<path d="M1.27856 21.9282V27.2854C1.27856 27.8537 1.50433 28.3987 1.90619 28.8006C2.30806 29.2025 2.8531 29.4282 3.42142 29.4282H8.77856" stroke="white" stroke-linecap="round" stroke-linejoin="round"/>
<path d="M29.136 21.9287V27.2859C29.136 27.8542 28.9102 28.3992 28.5084 28.8011C28.1065 29.2029 27.5615 29.4287 26.9931 29.4287H21.636" stroke="white" stroke-linecap="round" stroke-linejoin="round"/>
</g>
<defs>
<clipPath id="clip0_3_2275">
<rect width="30" height="30" fill="white" transform="translate(0.207031 0.5)"/>
</clipPath>
</defs>
</svg>
