<svg width="21" height="20" viewBox="0 0 21 20" fill="none" xmlns="http://www.w3.org/2000/svg">
<path d="M12.9448 10.0571L9.40326 13.5987L7.57861 11.774C7.33447 11.5299 6.93896 11.5299 6.69482 11.774C6.45068 12.0182 6.45068 12.4137 6.69482 12.6578L8.96136 14.9244C9.08344 15.0464 9.24335 15.1075 9.40326 15.1075C9.56317 15.1075 9.72308 15.0464 9.84515 14.9244L13.8286 10.9409C14.0728 10.6968 14.0728 10.3013 13.8286 10.0571C13.5845 9.81299 13.189 9.81299 12.9448 10.0571Z" fill="#E2A76F"/>
<path d="M15.8867 2.47498H14.9492V1.875C14.9492 1.52985 14.6694 1.25 14.3242 1.25C13.9791 1.25 13.6992 1.52985 13.6992 1.875V2.47498H6.82422V1.875C6.82422 1.52985 6.54437 1.25 6.19922 1.25C5.85406 1.25 5.57422 1.52985 5.57422 1.875V2.47498H4.63672C2.9137 2.47498 1.51172 3.87695 1.51172 5.59998V15.625C1.51172 17.348 2.9137 18.75 4.63672 18.75H15.8867C17.6097 18.75 19.0117 17.348 19.0117 15.625V5.59998C19.0117 3.87695 17.6097 2.47498 15.8867 2.47498ZM2.76172 5.59998C2.76172 4.56604 3.60278 3.72498 4.63672 3.72498H5.57422V4.32465C5.57422 4.6698 5.85406 4.94965 6.19922 4.94965C6.54437 4.94965 6.82422 4.6698 6.82422 4.32465V3.72498H13.6992V4.32465C13.6992 4.6698 13.9791 4.94965 14.3242 4.94965C14.6694 4.94965 14.9492 4.6698 14.9492 4.32465V3.72498H15.8867C16.9207 3.72498 17.7617 4.56604 17.7617 5.59998V6.23108H2.76172V5.59998ZM15.8867 17.5H4.63672C3.60278 17.5 2.76172 16.6589 2.76172 15.625V7.48108H17.7617V15.625C17.7617 16.6589 16.9207 17.5 15.8867 17.5Z" fill="#E2A76F"/>
</svg>
