<svg width="24" height="24" viewBox="0 0 24 24" fill="none" xmlns="http://www.w3.org/2000/svg">
<g clip-path="url(#clip0_3_3049)">
<path d="M14.5717 8.57152C15.5185 8.57152 16.286 7.804 16.286 6.85723C16.286 5.91046 15.5185 5.14294 14.5717 5.14294C13.6249 5.14294 12.8574 5.91046 12.8574 6.85723C12.8574 7.804 13.6249 8.57152 14.5717 8.57152Z" stroke="white" stroke-linecap="round" stroke-linejoin="round"/>
<path d="M7.71456 17.1429C8.18795 17.1429 8.57171 16.7591 8.57171 16.2857C8.57171 15.8123 8.18795 15.4286 7.71456 15.4286C7.24118 15.4286 6.85742 15.8123 6.85742 16.2857C6.85742 16.7591 7.24118 17.1429 7.71456 17.1429Z" stroke="white" stroke-linecap="round" stroke-linejoin="round"/>
<path d="M7.71429 11.1429C8.66106 11.1429 9.42857 10.3754 9.42857 9.42864C9.42857 8.48187 8.66106 7.71436 7.71429 7.71436C6.76751 7.71436 6 8.48187 6 9.42864C6 10.3754 6.76751 11.1429 7.71429 11.1429Z" stroke="white" stroke-linecap="round" stroke-linejoin="round"/>
<path d="M16.32 21.0515C16.3009 20.7189 16.1853 20.3992 15.9874 20.1313C15.7895 19.8634 15.5179 19.6589 15.2057 19.5429C14.4303 19.2881 13.7713 18.765 13.3471 18.0677C12.9229 17.3704 12.7614 16.5447 12.8915 15.739C13.0217 14.9333 13.435 14.2004 14.0571 13.6721C14.6793 13.1439 15.4695 12.8549 16.2857 12.8572H19.4914C20.0412 12.8587 20.5833 12.728 21.072 12.476C21.5607 12.2241 21.9817 11.8583 22.2993 11.4095C22.617 10.9608 22.8221 10.4422 22.8973 9.89751C22.9725 9.35285 22.9156 8.79809 22.7314 8.28004C22.0495 6.35484 20.8517 4.65407 19.2687 3.36355C17.6857 2.07302 15.7785 1.24239 13.7554 0.962391C11.7323 0.682397 9.67121 0.963815 7.79722 1.7759C5.92324 2.58798 4.3085 3.89949 3.12941 5.56714C1.95033 7.23479 1.25226 9.19442 1.11147 11.2319C0.970684 13.2694 1.3926 15.3065 2.33111 17.1204C3.26963 18.9344 4.68864 20.4555 6.43312 21.5176C8.1776 22.5798 10.1804 23.142 12.2228 23.1429C13.2314 23.1457 14.2355 23.0072 15.2057 22.7315C15.562 22.6316 15.8706 22.407 16.0751 22.0986C16.2797 21.7902 16.3666 21.4186 16.32 21.0515V21.0515Z" stroke="white" stroke-linecap="round" stroke-linejoin="round"/>
</g>
<defs>
<clipPath id="clip0_3_3049">
<rect width="24" height="24" fill="white"/>
</clipPath>
</defs>
</svg>
