<svg width="45" height="44" viewBox="0 0 45 44" fill="none" xmlns="http://www.w3.org/2000/svg">
<path d="M16.2145 18.8571C20.1199 18.8571 23.2859 15.6911 23.2859 11.7857C23.2859 7.88022 20.1199 4.71423 16.2145 4.71423C12.3091 4.71423 9.14307 7.88022 9.14307 11.7857C9.14307 15.6911 12.3091 18.8571 16.2145 18.8571Z" stroke="#E2A76F" stroke-width="1.5" stroke-linecap="round" stroke-linejoin="round"/>
<path d="M30.3572 42.4285H2.07153V39.2857C2.07153 35.5348 3.56158 31.9375 6.21388 29.2852C8.86618 26.6329 12.4635 25.1428 16.2144 25.1428C19.9653 25.1428 23.5626 26.6329 26.2149 29.2852C28.8672 31.9375 30.3572 35.5348 30.3572 39.2857V42.4285Z" stroke="#E2A76F" stroke-width="1.5" stroke-linecap="round" stroke-linejoin="round"/>
<path d="M28.7854 4.71423C30.6609 4.71423 32.4595 5.45926 33.7857 6.78541C35.1118 8.11156 35.8568 9.9102 35.8568 11.7857C35.8568 13.6611 35.1118 15.4598 33.7857 16.7859C32.4595 18.1121 30.6609 18.8571 28.7854 18.8571" stroke="#E2A76F" stroke-width="1.5" stroke-linecap="round" stroke-linejoin="round"/>
<path d="M33.8147 25.7399C36.4919 26.7583 38.7967 28.5657 40.4243 30.9227C42.0518 33.2798 42.9252 36.0755 42.929 38.9399V42.4284H38.2147" stroke="#E2A76F" stroke-width="1.5" stroke-linecap="round" stroke-linejoin="round"/>
</svg>
