<svg width="30" height="31" viewBox="0 0 30 31" fill="none" xmlns="http://www.w3.org/2000/svg">
<path d="M12.857 10.8501L8.03557 2.5144C5.91959 3.73356 4.16193 5.48841 2.9394 7.60245C1.71687 9.71649 1.07256 12.1152 1.07129 14.5573H10.7141C10.7149 13.8057 10.9133 13.0676 11.2894 12.4169C11.6655 11.7662 12.2061 11.2259 12.857 10.8501Z" stroke="white" stroke-linecap="round" stroke-linejoin="round"/>
<path d="M19.2854 14.5573H28.9283C28.927 12.1152 28.2827 9.71649 27.0602 7.60245C25.8376 5.48841 24.08 3.73356 21.964 2.5144L17.1426 10.8501C17.7934 11.2259 18.334 11.7662 18.7102 12.4169C19.0863 13.0676 19.2847 13.8057 19.2854 14.5573Z" stroke="white" stroke-linecap="round" stroke-linejoin="round"/>
<path d="M14.9994 18.843C14.2487 18.8482 13.5097 18.6561 12.8566 18.2859L8.03516 26.6216C10.1533 27.842 12.5549 28.4844 14.9994 28.4844C17.444 28.4844 19.8456 27.842 21.9637 26.6216L17.1423 18.2859C16.4891 18.6561 15.7502 18.8482 14.9994 18.843V18.843Z" stroke="white" stroke-linecap="round" stroke-linejoin="round"/>
</svg>
