<svg width="60" height="60" viewBox="0 0 60 60" fill="none" xmlns="http://www.w3.org/2000/svg">
<path d="M19.2854 55.7134C28.7532 55.7134 36.4283 48.0383 36.4283 38.5706C36.4283 29.1029 28.7532 21.4277 19.2854 21.4277C9.8177 21.4277 2.14258 29.1029 2.14258 38.5706C2.14258 48.0383 9.8177 55.7134 19.2854 55.7134Z" stroke="white" stroke-opacity="0.1" stroke-linecap="round" stroke-linejoin="round"/>
<path d="M40.7132 55.7134C50.1809 55.7134 57.856 48.0383 57.856 38.5706C57.856 29.1029 50.1809 21.4277 40.7132 21.4277C31.2454 21.4277 23.5703 29.1029 23.5703 38.5706C23.5703 48.0383 31.2454 55.7134 40.7132 55.7134Z" stroke="white" stroke-opacity="0.1" stroke-linecap="round" stroke-linejoin="round"/>
<path d="M29.9983 38.5709C39.4661 38.5709 47.1412 30.8958 47.1412 21.428C47.1412 11.9603 39.4661 4.28516 29.9983 4.28516C20.5306 4.28516 12.8555 11.9603 12.8555 21.428C12.8555 30.8958 20.5306 38.5709 29.9983 38.5709Z" stroke="white" stroke-opacity="0.1" stroke-linecap="round" stroke-linejoin="round"/>
</svg>
