<svg width="31" height="31" viewBox="0 0 31 31" fill="none" xmlns="http://www.w3.org/2000/svg">
<g clip-path="url(#clip0_136_274)">
<path d="M1.27832 9.07153V3.71439C1.27832 3.14607 1.50408 2.60103 1.90595 2.19916C2.30781 1.7973 2.85286 1.57153 3.42118 1.57153H8.77832" stroke="white" stroke-linecap="round" stroke-linejoin="round"/>
<path d="M29.1357 9.07153V3.71439C29.1357 3.14607 28.91 2.60103 28.5081 2.19916C28.1062 1.7973 27.5612 1.57153 26.9929 1.57153H21.6357" stroke="white" stroke-linecap="round" stroke-linejoin="round"/>
<path d="M1.27832 21.9287V27.2859C1.27832 27.8542 1.50408 28.3992 1.90595 28.8011C2.30781 29.2029 2.85286 29.4287 3.42118 29.4287H8.77832" stroke="white" stroke-linecap="round" stroke-linejoin="round"/>
<path d="M29.1357 21.9287V27.2859C29.1357 27.8542 28.91 28.3992 28.5081 28.8011C28.1062 29.2029 27.5612 29.4287 26.9929 29.4287H21.6357" stroke="white" stroke-linecap="round" stroke-linejoin="round"/>
<path d="M2.34961 16.5714H7.70675L10.921 8L15.2068 19.7857L19.4925 11.2143L22.7068 16.5714H28.0639" stroke="white" stroke-linecap="round" stroke-linejoin="round"/>
</g>
<defs>
<clipPath id="clip0_136_274">
<rect width="30" height="30" fill="white" transform="translate(0.207031 0.5)"/>
</clipPath>
</defs>
</svg>
