<svg width="24" height="24" viewBox="0 0 24 24" fill="none" xmlns="http://www.w3.org/2000/svg">
<path d="M7.71456 22.2857C11.5017 22.2857 14.5717 19.2156 14.5717 15.4286C14.5717 11.6415 11.5017 8.57141 7.71456 8.57141C3.92747 8.57141 0.857422 11.6415 0.857422 15.4286C0.857422 19.2156 3.92747 22.2857 7.71456 22.2857Z" stroke="white" stroke-linecap="round" stroke-linejoin="round"/>
<path d="M16.2859 22.2857C20.0729 22.2857 23.143 19.2156 23.143 15.4286C23.143 11.6415 20.0729 8.57141 16.2859 8.57141C12.4988 8.57141 9.42871 11.6415 9.42871 15.4286C9.42871 19.2156 12.4988 22.2857 16.2859 22.2857Z" stroke="white" stroke-linecap="round" stroke-linejoin="round"/>
<path d="M12.0007 15.4285C15.7878 15.4285 18.8578 12.3585 18.8578 8.57138C18.8578 4.78428 15.7878 1.71423 12.0007 1.71423C8.2136 1.71423 5.14355 4.78428 5.14355 8.57138C5.14355 12.3585 8.2136 15.4285 12.0007 15.4285Z" stroke="white" stroke-linecap="round" stroke-linejoin="round"/>
</svg>
