<svg width="21" height="20" viewBox="0 0 21 20" fill="none" xmlns="http://www.w3.org/2000/svg">
<g clip-path="url(#clip0_139_519)">
<path d="M20.2336 11.1321C20.2336 11.132 20.2336 11.1319 20.2336 11.1318L16.4575 1.6504C16.3773 1.44895 16.149 1.3506 15.9475 1.43074C15.9474 1.43079 15.9472 1.43084 15.9471 1.43094L0.62802 7.53084C0.565546 7.55784 0.511367 7.60092 0.470977 7.65569C0.343577 7.7219 0.263093 7.85293 0.261719 7.99647V18.2042C0.261719 18.421 0.437508 18.5968 0.654324 18.5968H17.1437C17.3606 18.5968 17.5364 18.421 17.5364 18.2042V12.6292L20.0145 11.6422C20.2159 11.5619 20.314 11.3335 20.2336 11.1321ZM16.7511 17.8116H1.04693V8.38908H16.7511V17.8116ZM6.81234 7.60583L13.3861 4.98637C13.9728 5.60305 14.7858 5.95355 15.6369 5.95689L16.2926 7.60583H6.81234ZM17.5364 11.7859V7.99647C17.5364 7.77966 17.3606 7.60387 17.1437 7.60387H17.1375L16.3055 5.51442C16.2963 5.497 16.2856 5.48041 16.2733 5.46496C16.2312 5.27587 16.0561 5.14685 15.8631 5.16265C15.0711 5.23484 14.2963 4.90122 13.8046 4.27615C13.6823 4.12514 13.4672 4.0876 13.3009 4.1882C13.2823 4.19041 13.2638 4.19385 13.2456 4.19841L5.21993 7.39422C5.12281 7.4323 5.04512 7.50783 5.00439 7.60387H2.5671L15.8733 2.30566L19.3592 11.0588L17.5364 11.7859Z" fill="#E2A76F"/>
<path d="M2.11235 15.1612C2.87459 15.3865 3.47106 15.9822 3.6973 16.7441C3.74691 16.9105 3.89988 17.0244 4.07341 17.0245C4.09378 17.0232 4.114 17.0201 4.13388 17.0154C4.15149 17.0204 4.1695 17.0241 4.18766 17.0264H13.6102C13.6264 17.0243 13.6424 17.021 13.6581 17.0166C13.8542 17.0643 14.0519 16.944 14.0997 16.7479C14.0998 16.7471 14.1 16.7464 14.1002 16.7457C14.3258 15.983 14.9224 15.3864 15.6851 15.1608C15.8701 15.1042 15.985 14.9199 15.9544 14.7289C15.9597 14.7099 15.9635 14.6904 15.9658 14.6708V11.5299C15.9635 11.5103 15.9596 11.4908 15.954 11.4718C15.9848 11.2808 15.8698 11.0964 15.6847 11.04C14.922 10.8144 14.3256 10.2176 14.1006 9.45464C14.0437 9.26839 13.8576 9.15316 13.6655 9.18531C13.6474 9.18025 13.6289 9.17657 13.6102 9.17432H4.18766C4.16789 9.17667 4.1483 9.1806 4.12916 9.18609C3.93821 9.15567 3.75398 9.27055 3.6973 9.45542C3.4715 10.218 2.87499 10.8144 2.11235 11.04C1.92739 11.0965 1.81245 11.2808 1.84302 11.4718C1.83792 11.4909 1.83424 11.5103 1.83203 11.5299V14.6708C1.83429 14.6892 1.83797 14.7075 1.84302 14.7254C1.81083 14.9176 1.92601 15.104 2.11235 15.1612ZM2.61724 11.6893C3.40559 11.3727 4.03042 10.7479 4.34706 9.95953H13.4504C13.7672 10.7479 14.3922 11.3727 15.1806 11.6893V14.5114C14.3925 14.8284 13.7678 15.4531 13.4508 16.2412H4.34706C4.03008 15.4531 3.40535 14.8284 2.61724 14.5114V11.6893Z" fill="#E2A76F"/>
<path d="M8.8986 15.4559C10.1996 15.4559 11.2542 14.4013 11.2542 13.1003C11.2542 11.7993 10.1996 10.7446 8.8986 10.7446C7.5976 10.7446 6.54297 11.7993 6.54297 13.1003C6.54424 14.4007 7.59814 15.4546 8.8986 15.4559ZM8.8986 11.5298C9.76591 11.5298 10.469 12.2329 10.469 13.1003C10.469 13.9676 9.76591 14.6707 8.8986 14.6707C8.03129 14.6707 7.32818 13.9676 7.32818 13.1003C7.32818 12.2329 8.03129 11.5298 8.8986 11.5298Z" fill="#E2A76F"/>
<path d="M4.58012 13.6895C4.90534 13.6895 5.16903 13.4259 5.16903 13.1006C5.16903 12.7754 4.90534 12.5117 4.58012 12.5117C4.25489 12.5117 3.99121 12.7754 3.99121 13.1006C3.99121 13.4259 4.25489 13.6895 4.58012 13.6895ZM4.58012 12.9043C4.68853 12.9043 4.77642 12.9922 4.77642 13.1006C4.77642 13.209 4.68853 13.2969 4.58012 13.2969C4.47171 13.2969 4.38382 13.209 4.38382 13.1006C4.38382 12.9922 4.47171 12.9043 4.58012 12.9043Z" fill="#E2A76F"/>
<path d="M13.2178 13.689C13.543 13.689 13.8067 13.4254 13.8067 13.1001C13.8067 12.7749 13.543 12.5112 13.2178 12.5112C12.8926 12.5112 12.6289 12.7749 12.6289 13.1001C12.6289 13.4254 12.8926 13.689 13.2178 13.689ZM13.2178 12.9038C13.3262 12.9038 13.4141 12.9917 13.4141 13.1001C13.4141 13.2085 13.3262 13.2964 13.2178 13.2964C13.1094 13.2964 13.0215 13.2085 13.0215 13.1001C13.0215 12.9917 13.1094 12.9038 13.2178 12.9038Z" fill="#E2A76F"/>
</g>
<defs>
<clipPath id="clip0_139_519">
<rect width="20" height="20" fill="white" transform="translate(0.261719)"/>
</clipPath>
</defs>
</svg>
