<svg width="30" height="31" viewBox="0 0 30 31" fill="none" xmlns="http://www.w3.org/2000/svg">
<g clip-path="url(#clip0_124_271)">
<path d="M25.1784 22.1784C25.9201 22.1784 26.6451 22.3984 27.2618 22.8104C27.8785 23.2225 28.3592 23.8081 28.643 24.4934C28.9268 25.1786 29.0011 25.9326 28.8564 26.66C28.7117 27.3874 28.3545 28.0556 27.8301 28.5801C27.3056 29.1045 26.6374 29.4617 25.91 29.6064C25.1826 29.7511 24.4286 29.6768 23.7434 29.393C23.0581 29.1092 22.4725 28.6285 22.0604 28.0118C21.6484 27.3951 21.4284 26.6701 21.4284 25.9284V5.57129C21.4284 4.82961 21.6484 4.10459 22.0604 3.4879C22.4725 2.87122 23.0581 2.39057 23.7434 2.10674C24.4286 1.82291 25.1826 1.74865 25.91 1.89335C26.6374 2.03804 27.3056 2.39519 27.8301 2.91964C28.3545 3.44409 28.7117 4.11227 28.8564 4.8397C29.0011 5.56713 28.9268 6.32113 28.643 7.00635C28.3592 7.69158 27.8785 8.27725 27.2618 8.6893C26.6451 9.10136 25.9201 9.32129 25.1784 9.32129H4.82129C4.07961 9.32129 3.35459 9.10136 2.7379 8.6893C2.12122 8.27725 1.64057 7.69158 1.35674 7.00635C1.07291 6.32113 0.998651 5.56713 1.14335 4.8397C1.28804 4.11227 1.64519 3.44409 2.16964 2.91964C2.69409 2.39519 3.36227 2.03804 4.0897 1.89335C4.81713 1.74865 5.57113 1.82291 6.25635 2.10674C6.94158 2.39057 7.52725 2.87122 7.9393 3.4879C8.35136 4.10459 8.57129 4.82961 8.57129 5.57129V25.9284C8.57129 26.6701 8.35136 27.3951 7.9393 28.0118C7.52725 28.6285 6.94158 29.1092 6.25635 29.393C5.57113 29.6768 4.81713 29.7511 4.0897 29.6064C3.36227 29.4617 2.69409 29.1045 2.16964 28.5801C1.64519 28.0556 1.28804 27.3874 1.14335 26.66C0.998651 25.9326 1.07291 25.1786 1.35674 24.4934C1.64057 23.8081 2.12122 23.2225 2.7379 22.8104C3.35459 22.3984 4.07961 22.1784 4.82129 22.1784H25.1784Z" stroke="white" stroke-linecap="round" stroke-linejoin="round"/>
</g>
<defs>
<clipPath id="clip0_124_271">
<rect width="30" height="30" fill="white" transform="translate(0 0.75)"/>
</clipPath>
</defs>
</svg>
