<svg width="45" height="45" viewBox="0 0 45 45" fill="none" xmlns="http://www.w3.org/2000/svg">
<path d="M4.86667 36.2083C2.45 33.55 1 30.65 1 25.8167C1 17.3583 7.04167 9.86667 15.5 6L17.675 9.14167C9.7 13.4917 8.00833 19.05 7.525 22.675C8.73333 21.95 10.425 21.7083 12.1167 21.95C16.4667 22.4333 19.85 25.8167 19.85 30.4083C19.85 32.5833 18.8833 34.7583 17.4333 36.45C15.7417 38.1417 13.8083 38.8667 11.3917 38.8667C8.73333 38.8667 6.31667 37.6583 4.86667 36.2083ZM29.0333 36.2083C26.6167 33.55 25.1667 30.65 25.1667 25.8167C25.1667 17.3583 31.2083 9.86667 39.6667 6L41.8417 9.14167C33.8667 13.4917 32.175 19.05 31.6917 22.675C32.9 21.95 34.5917 21.7083 36.2833 21.95C40.6333 22.4333 44.0167 25.8167 44.0167 30.4083C44.0167 32.5833 43.05 34.7583 41.6 36.45C40.15 38.1417 37.975 38.8667 35.5583 38.8667C32.9 38.8667 30.4833 37.6583 29.0333 36.2083Z" fill="white"/>
</svg>
