<svg width="24" height="24" viewBox="0 0 24 24" fill="none" xmlns="http://www.w3.org/2000/svg">
<g clip-path="url(#clip0_124_1064)">
<path d="M12.806 11.8286C12.5518 11.939 12.2775 11.996 12.0003 11.996C11.7231 11.996 11.4489 11.939 11.1946 11.8286L1.42318 7.30288C1.26451 7.22285 1.13117 7.10034 1.038 6.94901C0.944837 6.79767 0.895508 6.62345 0.895508 6.44573C0.895508 6.26802 0.944837 6.0938 1.038 5.94246C1.13117 5.79113 1.26451 5.66862 1.42318 5.58859L11.1946 1.02859C11.4489 0.91818 11.7231 0.861206 12.0003 0.861206C12.2775 0.861206 12.5518 0.91818 12.806 1.02859L22.5775 5.55431C22.7361 5.63434 22.8695 5.75684 22.9626 5.90818C23.0558 6.05951 23.1051 6.23374 23.1051 6.41145C23.1051 6.58916 23.0558 6.76339 22.9626 6.91472C22.8695 7.06606 22.7361 7.18856 22.5775 7.26859L12.806 11.8286Z" stroke="white" stroke-linecap="round" stroke-linejoin="round"/>
<path d="M23.1431 12.6L12.686 17.4171C12.4627 17.519 12.22 17.5717 11.9746 17.5717C11.7291 17.5717 11.4865 17.519 11.2631 17.4171L0.857422 12.6" stroke="white" stroke-linecap="round" stroke-linejoin="round"/>
<path d="M23.1431 18.1715L12.686 22.9887C12.4627 23.0905 12.22 23.1432 11.9746 23.1432C11.7291 23.1432 11.4865 23.0905 11.2631 22.9887L0.857422 18.1715" stroke="white" stroke-linecap="round" stroke-linejoin="round"/>
</g>
<defs>
<clipPath id="clip0_124_1064">
<rect width="24" height="24" fill="white"/>
</clipPath>
</defs>
</svg>
