<svg width="40" height="40" viewBox="0 0 40 40" fill="none" xmlns="http://www.w3.org/2000/svg">
<path d="M12.8573 37.1428C19.1691 37.1428 24.2859 32.026 24.2859 25.7142C24.2859 19.4024 19.1691 14.2856 12.8573 14.2856C6.54546 14.2856 1.42871 19.4024 1.42871 25.7142C1.42871 32.026 6.54546 37.1428 12.8573 37.1428Z" stroke="white" stroke-width="1.5" stroke-linecap="round" stroke-linejoin="round"/>
<path d="M27.1434 37.1428C33.4552 37.1428 38.572 32.026 38.572 25.7142C38.572 19.4024 33.4552 14.2856 27.1434 14.2856C20.8316 14.2856 15.7148 19.4024 15.7148 25.7142C15.7148 32.026 20.8316 37.1428 27.1434 37.1428Z" stroke="white" stroke-width="1.5" stroke-linecap="round" stroke-linejoin="round"/>
<path d="M19.9999 25.7141C26.3117 25.7141 31.4284 20.5973 31.4284 14.2855C31.4284 7.97368 26.3117 2.85693 19.9999 2.85693C13.688 2.85693 8.57129 7.97368 8.57129 14.2855C8.57129 20.5973 13.688 25.7141 19.9999 25.7141Z" stroke="white" stroke-width="1.5" stroke-linecap="round" stroke-linejoin="round"/>
</svg>
