<svg width="26" height="26" viewBox="0 0 26 26" fill="none" xmlns="http://www.w3.org/2000/svg">
<g clip-path="url(#clip0_3_2371)">
<path d="M12.9997 24.6071C19.4102 24.6071 24.6069 19.4104 24.6069 13C24.6069 6.58952 19.4102 1.39282 12.9997 1.39282C6.58927 1.39282 1.39258 6.58952 1.39258 13C1.39258 19.4104 6.58927 24.6071 12.9997 24.6071Z" stroke="white" stroke-linecap="round" stroke-linejoin="round"/>
<path d="M1.39258 13H24.6069" stroke="white" stroke-linecap="round" stroke-linejoin="round"/>
<path d="M17.4637 13C17.2444 17.2446 15.681 21.3095 12.9994 24.6071C10.3179 21.3095 8.75444 17.2446 8.53516 13C8.75444 8.75534 10.3179 4.69041 12.9994 1.39282C15.681 4.69041 17.2444 8.75534 17.4637 13V13Z" stroke="white" stroke-linecap="round" stroke-linejoin="round"/>
</g>
<defs>
<clipPath id="clip0_3_2371">
<rect width="25" height="25" fill="white" transform="translate(0.5 0.5)"/>
</clipPath>
</defs>
</svg>
