<svg width="50" height="50" viewBox="0 0 50 50" fill="none" xmlns="http://www.w3.org/2000/svg">
<path d="M11.6076 21.4285C17.0318 21.4285 21.429 17.0313 21.429 11.6071C21.429 6.18285 17.0318 1.78564 11.6076 1.78564C6.18334 1.78564 1.78613 6.18285 1.78613 11.6071C1.78613 17.0313 6.18334 21.4285 11.6076 21.4285Z" stroke="white" stroke-width="1.5" stroke-linecap="round" stroke-linejoin="round"/>
<path d="M38.3937 21.4285C43.8179 21.4285 48.2151 17.0313 48.2151 11.6071C48.2151 6.18285 43.8179 1.78564 38.3937 1.78564C32.9695 1.78564 28.5723 6.18285 28.5723 11.6071C28.5723 17.0313 32.9695 21.4285 38.3937 21.4285Z" stroke="white" stroke-width="1.5" stroke-linecap="round" stroke-linejoin="round"/>
<path d="M11.6076 48.2141C17.0318 48.2141 21.429 43.8169 21.429 38.3927C21.429 32.9685 17.0318 28.5713 11.6076 28.5713C6.18334 28.5713 1.78613 32.9685 1.78613 38.3927C1.78613 43.8169 6.18334 48.2141 11.6076 48.2141Z" stroke="white" stroke-width="1.5" stroke-linecap="round" stroke-linejoin="round"/>
<path d="M38.3937 48.2141C43.8179 48.2141 48.2151 43.8169 48.2151 38.3927C48.2151 32.9685 43.8179 28.5713 38.3937 28.5713C32.9695 28.5713 28.5723 32.9685 28.5723 38.3927C28.5723 43.8169 32.9695 48.2141 38.3937 48.2141Z" stroke="white" stroke-width="1.5" stroke-linecap="round" stroke-linejoin="round"/>
</svg>
