<svg width="21" height="21" viewBox="0 0 21 21" fill="none" xmlns="http://www.w3.org/2000/svg">
<g clip-path="url(#clip0_3_2733)">
<path d="M10.4 1.11426C12.2365 1.11426 14.0318 1.65886 15.5588 2.67918C17.0859 3.69951 18.276 5.14974 18.9789 6.84648C19.6817 8.54322 19.8656 10.4103 19.5073 12.2115C19.149 14.0128 18.2646 15.6673 16.966 16.966C15.6673 18.2646 14.0128 19.149 12.2115 19.5073C10.4103 19.8656 8.54323 19.6817 6.84649 18.9789C5.14975 18.276 3.69952 17.0859 2.67919 15.5588C1.65886 14.0318 1.11426 12.2365 1.11426 10.4C1.11132 7.73993 2.13477 5.18132 3.97141 3.25711" stroke="white" stroke-width="1.5" stroke-linecap="round" stroke-linejoin="round"/>
<path d="M1.11426 3.97143L3.9714 3.25714L4.68569 6.11428" stroke="white" stroke-width="1.5" stroke-linecap="round" stroke-linejoin="round"/>
<path d="M10.4004 5.40002V11.1143L14.1147 12.9715" stroke="white" stroke-width="1.5" stroke-linecap="round" stroke-linejoin="round"/>
</g>
<defs>
<clipPath id="clip0_3_2733">
<rect width="20" height="20" fill="white" transform="translate(0.400391 0.400024)"/>
</clipPath>
</defs>
</svg>
