<svg width="30" height="30" viewBox="0 0 30 30" fill="none" xmlns="http://www.w3.org/2000/svg">
<path d="M12.8572 10.3499L8.03582 2.01416C5.91983 3.23332 4.16218 4.98817 2.93965 7.10221C1.71711 9.21625 1.07281 11.6149 1.07153 14.057H10.7144C10.7152 13.3055 10.9136 12.5673 11.2897 11.9167C11.6658 11.266 12.2064 10.7257 12.8572 10.3499Z" stroke="white" stroke-linecap="round" stroke-linejoin="round"/>
<path d="M19.2859 14.057H28.9288C28.9275 11.6149 28.2832 9.21625 27.0607 7.10221C25.8381 4.98817 24.0805 3.23332 21.9645 2.01416L17.1431 10.3499C17.7939 10.7257 18.3345 11.266 18.7106 11.9167C19.0868 12.5673 19.2852 13.3055 19.2859 14.057Z" stroke="white" stroke-linecap="round" stroke-linejoin="round"/>
<path d="M14.9997 18.3428C14.2489 18.348 13.51 18.1558 12.8568 17.7856L8.0354 26.1214C10.1535 27.3418 12.5551 27.9841 14.9997 27.9841C17.4442 27.9841 19.8459 27.3418 21.964 26.1214L17.1425 17.7856C16.4894 18.1558 15.7504 18.348 14.9997 18.3428V18.3428Z" stroke="white" stroke-linecap="round" stroke-linejoin="round"/>
</svg>
