<svg width="21" height="20" viewBox="0 0 21 20" fill="none" xmlns="http://www.w3.org/2000/svg">
<g clip-path="url(#clip0_139_530)">
<path d="M10.2617 20C15.775 20 20.2617 15.5133 20.2617 10C20.2617 4.48668 15.7751 0 10.2617 0C4.74834 0 0.261719 4.48668 0.261719 10C0.261719 15.5133 4.7484 20 10.2617 20ZM10.2617 1.33331C15.0417 1.33331 18.9284 5.21996 18.9284 10C18.9284 14.78 15.0418 18.6667 10.2617 18.6667C5.48168 18.6667 1.59503 14.78 1.59503 10C1.59503 5.21996 5.48174 1.33331 10.2617 1.33331Z" fill="#E2A76F"/>
<path d="M13.1781 13.1867C13.3014 13.2866 13.448 13.3333 13.5947 13.3333C13.7914 13.3333 13.9847 13.2467 14.1147 13.0833C14.3447 12.7967 14.298 12.3767 14.0114 12.1467L10.928 9.67999V4.66666C10.928 4.29998 10.6281 4 10.2614 4C9.89471 4 9.59473 4.29998 9.59473 4.66666V10C9.59473 10.2034 9.68808 10.3933 9.84472 10.52L13.1781 13.1867Z" fill="#E2A76F"/>
</g>
<defs>
<clipPath id="clip0_139_530">
<rect width="20" height="20" fill="white" transform="translate(0.261719)"/>
</clipPath>
</defs>
</svg>
