<svg width="60" height="60" viewBox="0 0 60 60" fill="none" xmlns="http://www.w3.org/2000/svg">
<path d="M22.4997 35.3564H4.28544C3.10197 35.3564 2.14258 36.3158 2.14258 37.4993V55.7136C2.14258 56.8971 3.10197 57.8564 4.28544 57.8564H22.4997C23.6832 57.8564 24.6426 56.8971 24.6426 55.7136V37.4993C24.6426 36.3158 23.6832 35.3564 22.4997 35.3564Z" stroke="white" stroke-opacity="0.1" stroke-linecap="round" stroke-linejoin="round"/>
<path d="M55.7126 35.3574H37.4983C36.3149 35.3574 35.3555 36.3168 35.3555 37.5003V55.7146C35.3555 56.898 36.3149 57.8574 37.4983 57.8574H55.7126C56.8961 57.8574 57.8555 56.898 57.8555 55.7146V37.5003C57.8555 36.3168 56.8961 35.3574 55.7126 35.3574Z" stroke="white" stroke-opacity="0.1" stroke-linecap="round" stroke-linejoin="round"/>
<path d="M39.1286 2.14258H20.9143C19.7309 2.14258 18.7715 3.10197 18.7715 4.28544V22.4997C18.7715 23.6832 19.7309 24.6426 20.9143 24.6426H39.1286C40.3121 24.6426 41.2715 23.6832 41.2715 22.4997V4.28544C41.2715 3.10197 40.3121 2.14258 39.1286 2.14258Z" stroke="white" stroke-opacity="0.1" stroke-linecap="round" stroke-linejoin="round"/>
</svg>
