<svg width="60" height="60" viewBox="0 0 60 60" fill="none" xmlns="http://www.w3.org/2000/svg">
<path d="M32.0146 29.5708C31.3789 29.8468 30.6933 29.9893 30.0003 29.9893C29.3073 29.9893 28.6217 29.8468 27.986 29.5708L3.55747 18.2565C3.16078 18.0564 2.82743 17.7502 2.59452 17.3718C2.3616 16.9935 2.23828 16.5579 2.23828 16.1137C2.23828 15.6694 2.3616 15.2338 2.59452 14.8555C2.82743 14.4771 3.16078 14.1709 3.55747 13.9708L27.986 2.57081C28.6217 2.29478 29.3073 2.15234 30.0003 2.15234C30.6933 2.15234 31.3789 2.29478 32.0146 2.57081L56.4432 13.8851C56.8399 14.0852 57.1732 14.3914 57.4061 14.7698C57.639 15.1481 57.7624 15.5837 57.7624 16.028C57.7624 16.4722 57.639 16.9078 57.4061 17.2861C57.1732 17.6645 56.8399 17.9707 56.4432 18.1708L32.0146 29.5708Z" stroke="white" stroke-opacity="0.1" stroke-linecap="round" stroke-linejoin="round"/>
<path d="M57.8569 31.499L31.714 43.5419C31.1557 43.7966 30.5491 43.9284 29.9354 43.9284C29.3217 43.9284 28.7152 43.7966 28.1569 43.5419L2.14258 31.499" stroke="white" stroke-opacity="0.1" stroke-linecap="round" stroke-linejoin="round"/>
<path d="M57.8569 45.4277L31.714 57.4706C31.1557 57.7253 30.5491 57.8571 29.9354 57.8571C29.3217 57.8571 28.7152 57.7253 28.1569 57.4706L2.14258 45.4277" stroke="white" stroke-opacity="0.1" stroke-linecap="round" stroke-linejoin="round"/>
</svg>
