<svg width="24" height="24" viewBox="0 0 24 24" fill="none" xmlns="http://www.w3.org/2000/svg">
<path d="M10.2857 8.28002L6.42861 1.61145C4.73582 2.58678 3.32969 3.99066 2.35167 5.68189C1.37364 7.37312 0.858198 9.29207 0.857178 11.2457H8.57146C8.57208 10.6445 8.73079 10.054 9.03168 9.53344C9.33257 9.01291 9.76506 8.58064 10.2857 8.28002Z" stroke="white" stroke-linecap="round" stroke-linejoin="round"/>
<path d="M15.4286 11.2457H23.1429C23.1419 9.29207 22.6265 7.37312 21.6484 5.68189C20.6704 3.99066 19.2643 2.58678 17.5715 1.61145L13.7144 8.28002C14.235 8.58064 14.6675 9.01291 14.9684 9.53344C15.2693 10.054 15.428 10.6445 15.4286 11.2457Z" stroke="white" stroke-linecap="round" stroke-linejoin="round"/>
<path d="M11.9997 14.6744C11.399 14.6785 10.8079 14.5248 10.2854 14.2286L6.42822 20.8972C8.12272 21.8735 10.044 22.3874 11.9997 22.3874C13.9553 22.3874 15.8766 21.8735 17.5711 20.8972L13.7139 14.2286C13.1914 14.5248 12.6003 14.6785 11.9997 14.6744V14.6744Z" stroke="white" stroke-linecap="round" stroke-linejoin="round"/>
</svg>
