<svg width="24" height="24" viewBox="0 0 24 24" fill="none" xmlns="http://www.w3.org/2000/svg">
<path d="M15.017 22.2857C16.0727 22.9667 17.3307 23.2635 18.5795 23.1262C19.8283 22.9888 20.9917 22.4256 21.8741 21.5314L22.6456 20.7771C22.9838 20.4312 23.1731 19.9666 23.1731 19.4828C23.1731 18.999 22.9838 18.5345 22.6456 18.1885L19.3713 14.9485C19.0282 14.6114 18.5665 14.4225 18.0856 14.4225C17.6046 14.4225 17.1429 14.6114 16.7998 14.9485V14.9485C16.4539 15.2867 15.9893 15.4761 15.5056 15.4761C15.0218 15.4761 14.5572 15.2867 14.2113 14.9485L9.06841 9.80567C8.89685 9.6366 8.76061 9.43511 8.66762 9.21292C8.57463 8.99072 8.52674 8.75225 8.52674 8.51139C8.52674 8.27052 8.57463 8.03205 8.66762 7.80985C8.76061 7.58766 8.89685 7.38617 9.06841 7.2171V7.2171C9.40553 6.87407 9.59444 6.41235 9.59444 5.93139C9.59444 5.45042 9.40553 4.9887 9.06841 4.64567L5.81127 1.38853C5.46534 1.05033 5.00077 0.860962 4.51698 0.860962C4.0332 0.860962 3.56863 1.05033 3.2227 1.38853L2.46841 2.15996C1.57415 3.04237 1.01098 4.20579 0.873617 5.45459C0.736249 6.70338 1.03305 7.9614 1.71413 9.0171C5.26277 14.2469 9.77802 18.7505 15.017 22.2857V22.2857Z" stroke="white" stroke-width="1.5" stroke-linecap="round" stroke-linejoin="round"/>
</svg>
