<svg width="24" height="24" viewBox="0 0 24 24" fill="none" xmlns="http://www.w3.org/2000/svg">
<g clip-path="url(#clip0_124_1054)">
<path d="M5.57122 10.2857C8.17485 10.2857 10.2855 8.17509 10.2855 5.57146C10.2855 2.96784 8.17485 0.857178 5.57122 0.857178C2.96759 0.857178 0.856934 2.96784 0.856934 5.57146C0.856934 8.17509 2.96759 10.2857 5.57122 10.2857Z" stroke="white" stroke-linecap="round" stroke-linejoin="round"/>
<path d="M18.4282 10.2857C21.0318 10.2857 23.1424 8.17509 23.1424 5.57146C23.1424 2.96784 21.0318 0.857178 18.4282 0.857178C15.8245 0.857178 13.7139 2.96784 13.7139 5.57146C13.7139 8.17509 15.8245 10.2857 18.4282 10.2857Z" stroke="white" stroke-linecap="round" stroke-linejoin="round"/>
<path d="M5.57122 23.1429C8.17485 23.1429 10.2855 21.0323 10.2855 18.4286C10.2855 15.825 8.17485 13.7144 5.57122 13.7144C2.96759 13.7144 0.856934 15.825 0.856934 18.4286C0.856934 21.0323 2.96759 23.1429 5.57122 23.1429Z" stroke="white" stroke-linecap="round" stroke-linejoin="round"/>
<path d="M18.4282 23.1429C21.0318 23.1429 23.1424 21.0323 23.1424 18.4286C23.1424 15.825 21.0318 13.7144 18.4282 13.7144C15.8245 13.7144 13.7139 15.825 13.7139 18.4286C13.7139 21.0323 15.8245 23.1429 18.4282 23.1429Z" stroke="white" stroke-linecap="round" stroke-linejoin="round"/>
</g>
<defs>
<clipPath id="clip0_124_1054">
<rect width="24" height="24" fill="white"/>
</clipPath>
</defs>
</svg>
