<svg width="24" height="24" viewBox="0 0 24 24" fill="none" xmlns="http://www.w3.org/2000/svg">
<g clip-path="url(#clip0_124_185)">
<path d="M23.1431 12H0.857422C0.857422 9.04477 2.0314 6.21054 4.12109 4.12085C6.21078 2.03115 9.04501 0.857178 12.0003 0.857178C14.9555 0.857178 17.7898 2.03115 19.8795 4.12085C21.9692 6.21054 23.1431 9.04477 23.1431 12Z" stroke="white" stroke-linecap="round" stroke-linejoin="round"/>
<path d="M1.7998 16.4744C2.14085 17.2679 2.57844 18.0164 3.10266 18.7029C3.59922 19.3906 4.17457 20.0177 4.81695 20.5715" stroke="white" stroke-linecap="round" stroke-linejoin="round"/>
<path d="M22.2857 16.4744C21.9447 17.2679 21.5071 18.0164 20.9828 18.7029C20.4863 19.3906 19.9109 20.0177 19.2686 20.5715" stroke="white" stroke-linecap="round" stroke-linejoin="round"/>
<path d="M9.42871 22.8516C11.121 23.2403 12.8793 23.2403 14.5716 22.8516" stroke="white" stroke-linecap="round" stroke-linejoin="round"/>
</g>
<defs>
<clipPath id="clip0_124_185">
<rect width="24" height="24" fill="white"/>
</clipPath>
</defs>
</svg>
