<svg width="50" height="50" viewBox="0 0 50 50" fill="none" xmlns="http://www.w3.org/2000/svg">
<circle cx="25" cy="25" r="25" fill="#E2A76F"/>
<path d="M27.6316 18.3649C26.9583 17.692 26.0281 17.2752 25.0005 17.2752C24.4952 17.2752 24.015 17.376 23.5775 17.5564C23.1223 17.7447 22.712 18.0213 22.3697 18.3649C22.0264 18.707 21.7505 19.1171 21.5616 19.5726C21.3807 20.0101 21.2807 20.4905 21.2807 20.9957C21.2807 21.2514 21.3052 21.4978 21.352 21.7318C21.4017 21.9763 21.4755 22.2112 21.5693 22.4364C21.6672 22.6686 21.7852 22.8866 21.921 23.0873C22.06 23.2911 22.22 23.482 22.3961 23.6547C22.5697 23.8243 22.7583 23.9774 22.9583 24.1098C23.1232 24.2184 23.2966 24.3135 23.4767 24.3955L23.5929 24.4422C23.8102 24.5316 24.0402 24.5994 24.2806 24.647C24.5112 24.6913 24.7522 24.7148 25.0005 24.7148C25.2508 24.7148 25.492 24.6912 25.724 24.647C25.9192 24.6094 26.1084 24.5561 26.2916 24.4883L26.4083 24.4407C26.6348 24.3493 26.848 24.2363 27.0451 24.1058C27.2457 23.9754 27.4331 23.8229 27.6051 23.6547C27.7818 23.482 27.9413 23.2911 28.0796 23.0873C28.2159 22.8866 28.3348 22.6686 28.4326 22.4364C28.5263 22.2112 28.599 21.9761 28.6488 21.7318C28.6961 21.4977 28.7206 21.2514 28.7206 20.9957C28.7206 20.4889 28.6207 20.0087 28.4397 19.572C28.2523 19.1186 27.9745 18.7089 27.6316 18.3649ZM20.2404 28.99C20.5893 28.6419 20.9919 28.3787 21.4225 28.2016C21.8697 28.017 22.3459 27.9244 22.8196 27.9244C23.2397 27.9244 23.6612 27.9967 24.0646 28.1424C24.3944 28.261 24.7102 28.4283 25.0011 28.6453C25.2905 28.4282 25.6065 28.261 25.9371 28.1424C26.3396 27.9968 26.7617 27.9244 27.1813 27.9244C27.6559 27.9244 28.1331 28.017 28.5806 28.2016C29.0125 28.3795 29.4151 28.6434 29.7624 28.99L29.935 29.1628L29.9288 29.1705C30.1949 29.4746 30.4033 29.8148 30.5523 30.174C30.7369 30.6224 30.8291 31.098 30.8291 31.5728C30.8291 32.0465 30.7369 32.5232 30.5523 32.9716C30.3733 33.4025 30.1105 33.806 29.7632 34.1542L26.1956 37.7208C25.844 38.0853 25.4902 38.4583 25.1316 38.8128C24.6837 39.2188 23.9749 39.7166 23.0425 39.9145C22.1113 40.111 20.963 40.0059 19.6439 39.2058C19.6214 39.1939 19.5973 39.1774 19.5761 39.1628C19.1772 38.8656 18.8065 38.5406 18.4678 38.1898C18.1525 37.865 17.8637 37.5196 17.6037 37.1556H11.0278V20.0294L25.0002 10L38.9722 20.0294V37.1556H33.3977L33.6284 36.7846C33.7471 36.5928 33.859 36.3979 33.9624 36.2002C34.0661 36.0037 34.1624 35.8017 34.2533 35.594L34.3169 35.4475H37.2645V20.8988L25.0002 12.0959L12.7367 20.8988V35.4475H16.642C16.4247 34.9422 16.2532 34.416 16.1302 33.8773C15.9807 33.2203 15.9023 32.5443 15.9023 31.8619C15.9023 30.9506 16.0372 30.0695 16.2868 29.2383C16.5461 28.3787 16.9292 27.5709 17.4157 26.8391C17.8301 26.2132 18.3214 25.642 18.8743 25.1388C19.3594 24.6972 19.8922 24.3062 20.4645 23.9771C20.3982 23.8762 20.3353 23.7731 20.2752 23.6667C20.1697 23.4801 20.0752 23.2899 19.9942 23.0955C19.8581 22.7719 19.7511 22.4277 19.6798 22.0682C19.6092 21.7179 19.5723 21.3586 19.5723 20.9958C19.5723 20.2625 19.7183 19.5608 19.984 18.9208C20.2592 18.2545 20.6626 17.6561 21.1623 17.1579C21.6621 16.6572 22.2599 16.2545 22.925 15.9785C23.5661 15.7134 24.2666 15.5669 25.0003 15.5669C25.7337 15.5669 26.4353 15.7134 27.0758 15.9785C27.7413 16.2545 28.3397 16.6572 28.8393 17.1579C29.8213 18.1398 30.4289 19.4972 30.4289 20.9958C30.4289 21.3586 30.3916 21.7179 30.3219 22.0682C30.2492 22.4277 30.1429 22.7719 30.0068 23.0955C29.9257 23.2899 29.8319 23.4802 29.7257 23.6667C29.6655 23.7731 29.6026 23.8762 29.5362 23.9771C30.1086 24.3062 30.642 24.6972 31.1265 25.1388C31.6794 25.6419 32.1708 26.2132 32.5852 26.8391C33.0718 27.5709 33.4547 28.3787 33.7135 29.2383C33.9643 30.0695 34.0993 30.9507 34.0993 31.8619C34.0993 32.5732 34.0148 33.2778 33.8525 33.9578C33.6891 34.6463 33.4444 35.3137 33.1263 35.9462C32.8084 36.5787 32.4189 37.1733 31.964 37.7142C31.514 38.2492 30.9986 38.7358 30.4247 39.1639C30.4037 39.1774 30.3801 39.1939 30.3584 39.2072C29.4219 39.7737 28.569 39.9904 27.8203 39.9997C27.0643 40.0073 26.4169 39.8033 25.8922 39.5298L25.6005 39.3776L26.853 38.0948L26.9978 38.1446C27.3061 38.2492 27.6644 38.3053 28.07 38.2621C28.4774 38.2196 28.9332 38.0732 29.4344 37.7765C29.8944 37.4325 30.3074 37.0403 30.6681 36.6089C31.0372 36.1686 31.3517 35.6905 31.6054 35.1851C31.8613 34.6741 32.0592 34.134 32.1914 33.5722C32.3227 33.0192 32.3905 32.445 32.3905 31.8621C32.3905 31.1179 32.2815 30.4021 32.0788 29.7277C31.8689 29.0288 31.558 28.3736 31.1645 27.7797C30.7968 27.2259 30.3564 26.7235 29.8589 26.2891C29.4008 25.8902 28.8935 25.5454 28.3461 25.2676C28.1693 25.4065 27.9842 25.535 27.7913 25.6503C27.5534 25.7931 27.3054 25.9179 27.0495 26.0229L26.8279 26.1138L26.8251 26.1063C26.5722 26.1972 26.3108 26.2702 26.0424 26.3219C25.7033 26.3892 25.3553 26.4246 25.0008 26.4246C24.6457 26.4246 24.2957 26.3892 23.9561 26.3228C23.6085 26.255 23.2731 26.1537 22.9529 26.0228L22.8005 25.9597V25.955C22.595 25.8627 22.398 25.7604 22.2093 25.6479C22.0177 25.533 21.8326 25.4047 21.6556 25.2674C21.1083 25.5451 20.6009 25.89 20.143 26.2888C19.6453 26.7231 19.2048 27.2256 18.8372 27.7794C18.443 28.3734 18.1326 29.0285 17.9232 29.7274C17.7204 30.4019 17.6113 31.1177 17.6113 31.8618C17.6113 32.4434 17.6791 33.0166 17.8098 33.5696C17.9426 34.1308 18.1396 34.672 18.3962 35.1807C18.6511 35.6889 18.9659 36.1683 19.3348 36.6088C19.6956 37.0402 20.1079 37.4324 20.5672 37.7763C21.4152 38.2775 22.1351 38.3453 22.709 38.2256C23.2424 38.1145 23.6554 37.8417 23.9302 37.6059L24.2888 37.237L24.3376 37.1772L24.4859 37.0283L24.49 37.0311C25.8322 35.6558 27.198 34.3047 28.5561 32.9456C28.7412 32.7604 28.881 32.5462 28.9754 32.3191C29.0725 32.0828 29.1214 31.8284 29.1214 31.5727C29.1214 31.3156 29.073 31.0617 28.9768 30.8262C28.885 30.6022 28.7488 30.3916 28.5699 30.2087L28.556 30.1979C28.3698 30.0124 28.1561 29.8729 27.9289 29.7792C27.6927 29.6818 27.4375 29.6322 27.1818 29.6322C26.926 29.6322 26.6706 29.6818 26.4345 29.7792C26.2072 29.8729 25.9934 30.0125 25.8083 30.1979L25.0021 31.0023L24.2689 30.2688H24.2656L24.1941 30.1978C24.0081 30.0123 23.7944 29.8728 23.567 29.7791C23.3309 29.6817 23.0758 29.6321 22.8199 29.6321C22.5642 29.6321 22.3081 29.6817 22.072 29.7791C21.8428 29.8718 21.6294 30.0124 21.4443 30.1954C21.2619 30.3796 21.1212 30.5933 21.0263 30.8238C20.9304 31.0574 20.88 31.3112 20.88 31.5727C20.88 31.8284 20.9292 32.0823 21.027 32.3186C21.1205 32.5462 21.2597 32.7604 21.4457 32.9456L21.4481 32.9511L21.4748 32.9785L21.4755 32.9761L24.4877 35.988L23.2953 37.2107L20.2376 34.1542C19.891 33.806 19.6275 33.4025 19.4492 32.9716C19.2649 32.5232 19.1719 32.0465 19.1719 31.5728C19.1719 31.098 19.2649 30.6224 19.4492 30.174C19.6269 29.7446 19.8904 29.3418 20.2376 28.9942L20.2404 28.99Z" fill="white"/>
</svg>
