<svg width="165" height="50" viewBox="0 0 165 50" fill="none" xmlns="http://www.w3.org/2000/svg">
<circle cx="25" cy="25" r="25" fill="#E2A76F"/>
<path d="M27.6316 18.3649C26.9583 17.692 26.0281 17.2752 25.0005 17.2752C24.4952 17.2752 24.015 17.376 23.5775 17.5564C23.1223 17.7447 22.712 18.0213 22.3697 18.3649C22.0264 18.707 21.7505 19.1171 21.5616 19.5726C21.3807 20.0101 21.2807 20.4905 21.2807 20.9957C21.2807 21.2514 21.3052 21.4978 21.352 21.7318C21.4017 21.9763 21.4755 22.2112 21.5693 22.4364C21.6672 22.6686 21.7852 22.8866 21.921 23.0873C22.06 23.2911 22.22 23.482 22.3961 23.6547C22.5697 23.8243 22.7583 23.9774 22.9583 24.1098C23.1232 24.2184 23.2966 24.3135 23.4767 24.3955L23.5929 24.4422C23.8102 24.5316 24.0402 24.5994 24.2806 24.647C24.5112 24.6913 24.7522 24.7148 25.0005 24.7148C25.2508 24.7148 25.492 24.6912 25.724 24.647C25.9192 24.6094 26.1084 24.5561 26.2916 24.4883L26.4083 24.4407C26.6348 24.3493 26.848 24.2363 27.0451 24.1058C27.2457 23.9754 27.4331 23.8229 27.6051 23.6547C27.7818 23.482 27.9413 23.2911 28.0796 23.0873C28.2159 22.8866 28.3348 22.6686 28.4326 22.4364C28.5263 22.2112 28.599 21.9761 28.6488 21.7318C28.6961 21.4977 28.7206 21.2514 28.7206 20.9957C28.7206 20.4889 28.6207 20.0087 28.4397 19.572C28.2523 19.1186 27.9745 18.7089 27.6316 18.3649ZM20.2404 28.99C20.5893 28.6419 20.9919 28.3787 21.4225 28.2016C21.8697 28.017 22.3459 27.9244 22.8196 27.9244C23.2397 27.9244 23.6612 27.9967 24.0646 28.1424C24.3944 28.261 24.7102 28.4283 25.0011 28.6453C25.2905 28.4282 25.6065 28.261 25.9371 28.1424C26.3396 27.9968 26.7617 27.9244 27.1813 27.9244C27.6559 27.9244 28.1331 28.017 28.5806 28.2016C29.0125 28.3795 29.4151 28.6434 29.7624 28.99L29.935 29.1628L29.9288 29.1705C30.1949 29.4746 30.4033 29.8148 30.5523 30.174C30.7369 30.6224 30.8291 31.098 30.8291 31.5728C30.8291 32.0465 30.7369 32.5232 30.5523 32.9716C30.3733 33.4025 30.1105 33.806 29.7632 34.1542L26.1956 37.7208C25.844 38.0853 25.4902 38.4583 25.1316 38.8128C24.6837 39.2188 23.9749 39.7166 23.0425 39.9145C22.1113 40.111 20.963 40.0059 19.6439 39.2058C19.6214 39.1939 19.5973 39.1774 19.5761 39.1628C19.1772 38.8656 18.8065 38.5406 18.4678 38.1898C18.1525 37.865 17.8637 37.5196 17.6037 37.1556H11.0278V20.0294L25.0002 10L38.9722 20.0294V37.1556H33.3977L33.6284 36.7846C33.7471 36.5928 33.859 36.3979 33.9624 36.2002C34.0661 36.0037 34.1624 35.8017 34.2533 35.594L34.3169 35.4475H37.2645V20.8988L25.0002 12.0959L12.7367 20.8988V35.4475H16.642C16.4247 34.9422 16.2532 34.416 16.1302 33.8773C15.9807 33.2203 15.9023 32.5443 15.9023 31.8619C15.9023 30.9506 16.0372 30.0695 16.2868 29.2383C16.5461 28.3787 16.9292 27.5709 17.4157 26.8391C17.8301 26.2132 18.3214 25.642 18.8743 25.1388C19.3594 24.6972 19.8922 24.3062 20.4645 23.9771C20.3982 23.8762 20.3353 23.7731 20.2752 23.6667C20.1697 23.4801 20.0752 23.2899 19.9942 23.0955C19.8581 22.7719 19.7511 22.4277 19.6798 22.0682C19.6092 21.7179 19.5723 21.3586 19.5723 20.9958C19.5723 20.2625 19.7183 19.5608 19.984 18.9208C20.2592 18.2545 20.6626 17.6561 21.1623 17.1579C21.6621 16.6572 22.2599 16.2545 22.925 15.9785C23.5661 15.7134 24.2666 15.5669 25.0003 15.5669C25.7337 15.5669 26.4353 15.7134 27.0758 15.9785C27.7413 16.2545 28.3397 16.6572 28.8393 17.1579C29.8213 18.1398 30.4289 19.4972 30.4289 20.9958C30.4289 21.3586 30.3916 21.7179 30.3219 22.0682C30.2492 22.4277 30.1429 22.7719 30.0068 23.0955C29.9257 23.2899 29.8319 23.4802 29.7257 23.6667C29.6655 23.7731 29.6026 23.8762 29.5362 23.9771C30.1086 24.3062 30.642 24.6972 31.1265 25.1388C31.6794 25.6419 32.1708 26.2132 32.5852 26.8391C33.0718 27.5709 33.4547 28.3787 33.7135 29.2383C33.9643 30.0695 34.0993 30.9507 34.0993 31.8619C34.0993 32.5732 34.0148 33.2778 33.8525 33.9578C33.6891 34.6463 33.4444 35.3137 33.1263 35.9462C32.8084 36.5787 32.4189 37.1733 31.964 37.7142C31.514 38.2492 30.9986 38.7358 30.4247 39.1639C30.4037 39.1774 30.3801 39.1939 30.3584 39.2072C29.4219 39.7737 28.569 39.9904 27.8203 39.9997C27.0643 40.0073 26.4169 39.8033 25.8922 39.5298L25.6005 39.3776L26.853 38.0948L26.9978 38.1446C27.3061 38.2492 27.6644 38.3053 28.07 38.2621C28.4774 38.2196 28.9332 38.0732 29.4344 37.7765C29.8944 37.4325 30.3074 37.0403 30.6681 36.6089C31.0372 36.1686 31.3517 35.6905 31.6054 35.1851C31.8613 34.6741 32.0592 34.134 32.1914 33.5722C32.3227 33.0192 32.3905 32.445 32.3905 31.8621C32.3905 31.1179 32.2815 30.4021 32.0788 29.7277C31.8689 29.0288 31.558 28.3736 31.1645 27.7797C30.7968 27.2259 30.3564 26.7235 29.8589 26.2891C29.4008 25.8902 28.8935 25.5454 28.3461 25.2676C28.1693 25.4065 27.9842 25.535 27.7913 25.6503C27.5534 25.7931 27.3054 25.9179 27.0495 26.0229L26.8279 26.1138L26.8251 26.1063C26.5722 26.1972 26.3108 26.2702 26.0424 26.3219C25.7033 26.3892 25.3553 26.4246 25.0008 26.4246C24.6457 26.4246 24.2957 26.3892 23.9561 26.3228C23.6085 26.255 23.2731 26.1537 22.9529 26.0228L22.8005 25.9597V25.955C22.595 25.8627 22.398 25.7604 22.2093 25.6479C22.0177 25.533 21.8326 25.4047 21.6556 25.2674C21.1083 25.5451 20.6009 25.89 20.143 26.2888C19.6453 26.7231 19.2048 27.2256 18.8372 27.7794C18.443 28.3734 18.1326 29.0285 17.9232 29.7274C17.7204 30.4019 17.6113 31.1177 17.6113 31.8618C17.6113 32.4434 17.6791 33.0166 17.8098 33.5696C17.9426 34.1308 18.1396 34.672 18.3962 35.1807C18.6511 35.6889 18.9659 36.1683 19.3348 36.6088C19.6956 37.0402 20.1079 37.4324 20.5672 37.7763C21.4152 38.2775 22.1351 38.3453 22.709 38.2256C23.2424 38.1145 23.6554 37.8417 23.9302 37.6059L24.2888 37.237L24.3376 37.1772L24.4859 37.0283L24.49 37.0311C25.8322 35.6558 27.198 34.3047 28.5561 32.9456C28.7412 32.7604 28.881 32.5462 28.9754 32.3191C29.0725 32.0828 29.1214 31.8284 29.1214 31.5727C29.1214 31.3156 29.073 31.0617 28.9768 30.8262C28.885 30.6022 28.7488 30.3916 28.5699 30.2087L28.556 30.1979C28.3698 30.0124 28.1561 29.8729 27.9289 29.7792C27.6927 29.6818 27.4375 29.6322 27.1818 29.6322C26.926 29.6322 26.6706 29.6818 26.4345 29.7792C26.2072 29.8729 25.9934 30.0125 25.8083 30.1979L25.0021 31.0023L24.2689 30.2688H24.2656L24.1941 30.1978C24.0081 30.0123 23.7944 29.8728 23.567 29.7791C23.3309 29.6817 23.0758 29.6321 22.8199 29.6321C22.5642 29.6321 22.3081 29.6817 22.072 29.7791C21.8428 29.8718 21.6294 30.0124 21.4443 30.1954C21.2619 30.3796 21.1212 30.5933 21.0263 30.8238C20.9304 31.0574 20.88 31.3112 20.88 31.5727C20.88 31.8284 20.9292 32.0823 21.027 32.3186C21.1205 32.5462 21.2597 32.7604 21.4457 32.9456L21.4481 32.9511L21.4748 32.9785L21.4755 32.9761L24.4877 35.988L23.2953 37.2107L20.2376 34.1542C19.891 33.806 19.6275 33.4025 19.4492 32.9716C19.2649 32.5232 19.1719 32.0465 19.1719 31.5728C19.1719 31.098 19.2649 30.6224 19.4492 30.174C19.6269 29.7446 19.8904 29.3418 20.2376 28.9942L20.2404 28.99Z" fill="white"/>
<path d="M76.66 36.36C75.06 36.36 73.58 36.07 72.22 35.49C70.88 34.91 69.7 34.1 68.68 33.06C67.68 32.02 66.9 30.8 66.34 29.4C65.78 28 65.5 26.47 65.5 24.81C65.5 23.15 65.77 21.62 66.31 20.22C66.87 18.8 67.65 17.58 68.65 16.56C69.67 15.52 70.86 14.72 72.22 14.16C73.58 13.58 75.06 13.29 76.66 13.29C78.26 13.29 79.69 13.56 80.95 14.1C82.23 14.64 83.31 15.36 84.19 16.26C85.07 17.14 85.7 18.11 86.08 19.17L82.42 20.88C82 19.76 81.29 18.84 80.29 18.12C79.29 17.38 78.08 17.01 76.66 17.01C75.26 17.01 74.02 17.34 72.94 18C71.88 18.66 71.05 19.57 70.45 20.73C69.87 21.89 69.58 23.25 69.58 24.81C69.58 26.37 69.87 27.74 70.45 28.92C71.05 30.08 71.88 30.99 72.94 31.65C74.02 32.31 75.26 32.64 76.66 32.64C78.08 32.64 79.29 32.28 80.29 31.56C81.29 30.82 82 29.89 82.42 28.77L86.08 30.48C85.7 31.54 85.07 32.52 84.19 33.42C83.31 34.3 82.23 35.01 80.95 35.55C79.69 36.09 78.26 36.36 76.66 36.36ZM93.7195 36.36C92.5795 36.36 91.5895 36.17 90.7495 35.79C89.9095 35.41 89.2595 34.87 88.7995 34.17C88.3395 33.45 88.1095 32.62 88.1095 31.68C88.1095 30.78 88.3095 29.98 88.7095 29.28C89.1095 28.56 89.7295 27.96 90.5695 27.48C91.4095 27 92.4695 26.66 93.7495 26.46L99.0895 25.59V28.59L94.4995 29.37C93.7195 29.51 93.1395 29.76 92.7595 30.12C92.3795 30.48 92.1895 30.95 92.1895 31.53C92.1895 32.09 92.3995 32.54 92.8195 32.88C93.2595 33.2 93.7995 33.36 94.4395 33.36C95.2595 33.36 95.9795 33.19 96.5995 32.85C97.2395 32.49 97.7295 32 98.0695 31.38C98.4295 30.76 98.6095 30.08 98.6095 29.34V25.14C98.6095 24.44 98.3295 23.86 97.7695 23.4C97.2295 22.92 96.5095 22.68 95.6095 22.68C94.7695 22.68 94.0195 22.91 93.3595 23.37C92.7195 23.81 92.2495 24.4 91.9495 25.14L88.7395 23.58C89.0595 22.72 89.5595 21.98 90.2395 21.36C90.9395 20.72 91.7595 20.22 92.6995 19.86C93.6395 19.5 94.6595 19.32 95.7595 19.32C97.0995 19.32 98.2795 19.57 99.2995 20.07C100.319 20.55 101.109 21.23 101.669 22.11C102.249 22.97 102.539 23.98 102.539 25.14V36H98.8195V33.21L99.6595 33.15C99.2395 33.85 98.7395 34.44 98.1595 34.92C97.5795 35.38 96.9195 35.74 96.1795 36C95.4395 36.24 94.6195 36.36 93.7195 36.36ZM106.172 36V19.68H109.862V23.31L109.562 22.77C109.942 21.55 110.532 20.7 111.332 20.22C112.152 19.74 113.132 19.5 114.272 19.5H115.232V22.98H113.822C112.702 22.98 111.802 23.33 111.122 24.03C110.442 24.71 110.102 25.67 110.102 26.91V36H106.172ZM125.133 36.36C123.453 36.36 121.983 35.98 120.723 35.22C119.463 34.46 118.483 33.43 117.783 32.13C117.083 30.83 116.733 29.39 116.733 27.81C116.733 26.17 117.083 24.72 117.783 23.46C118.503 22.18 119.473 21.17 120.693 20.43C121.933 19.69 123.313 19.32 124.833 19.32C126.113 19.32 127.233 19.53 128.193 19.95C129.173 20.37 130.003 20.95 130.683 21.69C131.363 22.43 131.883 23.28 132.243 24.24C132.603 25.18 132.783 26.2 132.783 27.3C132.783 27.58 132.763 27.87 132.723 28.17C132.703 28.47 132.653 28.73 132.573 28.95H119.972V25.95H130.353L128.493 27.36C128.673 26.44 128.623 25.62 128.343 24.9C128.083 24.18 127.643 23.61 127.023 23.19C126.423 22.77 125.693 22.56 124.833 22.56C124.013 22.56 123.283 22.77 122.643 23.19C122.003 23.59 121.513 24.19 121.173 24.99C120.853 25.77 120.733 26.72 120.813 27.84C120.733 28.84 120.863 29.73 121.203 30.51C121.563 31.27 122.083 31.86 122.763 32.28C123.463 32.7 124.263 32.91 125.163 32.91C126.063 32.91 126.823 32.72 127.443 32.34C128.083 31.96 128.583 31.45 128.943 30.81L132.123 32.37C131.803 33.15 131.303 33.84 130.623 34.44C129.943 35.04 129.133 35.51 128.193 35.85C127.273 36.19 126.253 36.36 125.133 36.36ZM140.352 13.35C140.292 13.85 140.202 14.41 140.082 15.03C139.982 15.65 139.882 16.26 139.782 16.86C139.702 17.46 139.632 17.99 139.572 18.45C139.452 19.29 139.332 20.25 139.212 21.33C139.092 22.39 138.972 23.5 138.852 24.66C138.732 25.8 138.622 26.92 138.522 28.02C138.442 29.12 138.372 30.13 138.312 31.05C138.252 31.95 138.222 32.69 138.222 33.27C138.222 33.65 138.262 34.01 138.342 34.35C138.422 34.67 138.652 34.83 139.032 34.83C139.372 34.83 139.742 34.62 140.142 34.2C140.562 33.76 140.922 33 141.222 31.92L142.062 32.13C142.002 32.47 141.872 32.88 141.672 33.36C141.492 33.84 141.242 34.31 140.922 34.77C140.602 35.21 140.212 35.58 139.752 35.88C139.312 36.18 138.792 36.33 138.192 36.33C137.372 36.33 136.772 36.13 136.392 35.73C136.012 35.31 135.812 34.7 135.792 33.9C135.772 33.4 135.792 32.66 135.852 31.68C135.932 30.7 136.022 29.59 136.122 28.35C136.242 27.09 136.372 25.78 136.512 24.42C136.652 23.04 136.802 21.7 136.962 20.4C137.122 19.1 137.272 17.92 137.412 16.86C137.512 16.32 137.572 15.97 137.592 15.81C137.632 15.63 137.662 15.44 137.682 15.24C137.322 15.26 136.962 15.28 136.602 15.3C136.262 15.32 135.912 15.34 135.552 15.36L135.702 14.16C136.582 14.16 137.262 14.12 137.742 14.04C138.242 13.96 138.622 13.86 138.882 13.74C139.142 13.62 139.352 13.49 139.512 13.35H140.352ZM144.494 44.13C143.814 44.09 143.264 43.89 142.844 43.53C142.424 43.19 142.214 42.76 142.214 42.24C142.214 41.78 142.354 41.43 142.634 41.19C142.914 40.97 143.184 40.86 143.444 40.86C144.344 40.86 144.774 41.38 144.734 42.42C144.854 42.48 144.964 42.53 145.064 42.57C145.164 42.61 145.274 42.63 145.394 42.63C145.834 42.65 146.284 42.49 146.744 42.15C147.224 41.81 147.674 41.38 148.094 40.86C148.534 40.36 148.914 39.86 149.234 39.36C149.574 38.88 149.824 38.51 149.984 38.25C149.804 37.09 149.594 35.9 149.354 34.68C149.114 33.44 148.834 32.21 148.514 30.99C148.214 29.75 147.874 28.56 147.494 27.42C147.134 26.26 146.744 25.17 146.324 24.15C146.184 23.81 146.004 23.46 145.784 23.1C145.564 22.74 145.254 22.58 144.854 22.62C144.474 22.66 144.184 22.96 143.984 23.52C143.804 24.08 143.754 24.82 143.834 25.74L142.874 25.86C142.814 25.32 142.804 24.75 142.844 24.15C142.904 23.55 143.034 22.99 143.234 22.47C143.434 21.93 143.724 21.5 144.104 21.18C144.484 20.84 144.984 20.67 145.604 20.67C146.284 20.67 146.834 20.85 147.254 21.21C147.694 21.57 148.044 22.01 148.304 22.53C148.584 23.05 148.814 23.56 148.994 24.06C149.374 25.08 149.744 26.25 150.104 27.57C150.464 28.89 150.774 30.24 151.034 31.62C151.314 32.98 151.524 34.25 151.664 35.43H151.724C152.284 34.45 152.824 33.37 153.344 32.19C153.864 31.01 154.294 29.81 154.634 28.59C154.974 27.35 155.144 26.19 155.144 25.11C155.144 24.61 155.094 24.17 154.994 23.79C154.914 23.41 154.814 23.14 154.694 22.98C154.614 23.04 154.504 23.09 154.364 23.13C154.244 23.15 154.104 23.16 153.944 23.16C153.584 23.16 153.294 23.05 153.074 22.83C152.854 22.59 152.744 22.31 152.744 21.99C152.744 21.55 152.884 21.22 153.164 21C153.464 20.78 153.794 20.67 154.154 20.67C154.774 20.67 155.254 20.86 155.594 21.24C155.934 21.62 156.174 22.1 156.314 22.68C156.474 23.26 156.554 23.87 156.554 24.51C156.554 25.83 156.364 27.18 155.984 28.56C155.604 29.94 155.104 31.3 154.484 32.64C153.884 33.98 153.244 35.27 152.564 36.51C151.564 38.31 150.604 39.78 149.684 40.92C148.784 42.06 147.904 42.88 147.044 43.38C146.184 43.9 145.334 44.15 144.494 44.13Z" fill="#273A29"/>
<path d="M160.812 32.7C161.292 32.7 161.682 32.89 161.982 33.27C162.282 33.63 162.412 34.07 162.372 34.59C162.352 35.13 162.162 35.58 161.802 35.94C161.442 36.3 161.032 36.48 160.572 36.48C160.112 36.48 159.722 36.3 159.402 35.94C159.082 35.58 158.932 35.13 158.952 34.59C158.992 34.07 159.192 33.63 159.552 33.27C159.932 32.89 160.352 32.7 160.812 32.7Z" fill="#E2A76F"/>
</svg>
