<svg width="40" height="30" viewBox="0 0 40 30" fill="none" xmlns="http://www.w3.org/2000/svg">
<g clip-path="url(#clip0_447_146)">
<path d="M36.4045 28.0899C38.6517 25.618 40 22.9213 40 18.427C40 10.5618 34.382 3.59551 26.5169 0L24.4944 2.92135C31.9101 6.96629 33.4831 12.1348 33.9326 15.5056C32.809 14.8315 31.236 14.6067 29.6629 14.8315C25.618 15.2809 22.4719 18.427 22.4719 22.6966C22.4719 24.7191 23.3708 26.7416 24.7191 28.3146C26.2921 29.8876 28.0899 30.5618 30.3371 30.5618C32.809 30.5618 35.0562 29.4382 36.4045 28.0899ZM13.9326 28.0899C16.1798 25.618 17.5281 22.9213 17.5281 18.427C17.5281 10.5618 11.9101 3.59551 4.04494 0L2.02247 2.92135C9.4382 6.96629 11.0112 12.1348 11.4607 15.5056C10.3371 14.8315 8.76404 14.6067 7.19101 14.8315C3.14606 15.2809 -1.48034e-06 18.427 -1.48034e-06 22.6966C-1.48034e-06 24.7191 0.898875 26.7416 2.24719 28.3146C3.5955 29.8876 5.61798 30.5618 7.86517 30.5618C10.3371 30.5618 12.5843 29.4382 13.9326 28.0899Z" fill="white" fill-opacity="0.1"/>
</g>
<defs>
<clipPath id="clip0_447_146">
<rect width="40" height="30" fill="white"/>
</clipPath>
</defs>
</svg>
