<svg width="120" height="120" viewBox="0 0 120 120" fill="none" xmlns="http://www.w3.org/2000/svg">
<path d="M63.5399 9.74345L63.7934 6.4032L60.9961 0L63.1129 0.154736L65.0392 5.01968L64.6657 4.99237L67.2913 0.460163L69.3943 0.613888L65.6612 6.53973L65.4077 9.87998L63.5399 9.74345Z" fill="white"/>
<path d="M71.8382 11.1614C71.1543 11.0018 70.5812 10.7187 70.1187 10.3122C69.6675 9.89896 69.3554 9.40159 69.1826 8.82008C69.0209 8.23185 69.0225 7.59775 69.1873 6.91777C69.3563 6.22012 69.649 5.63998 70.0654 5.17733C70.4839 4.70586 70.9904 4.3809 71.5851 4.20247C72.1909 4.0173 72.8402 4.00558 73.5331 4.1673C74.208 4.32482 74.7621 4.6081 75.1953 5.01714C75.6286 5.42617 75.9248 5.91051 76.0839 6.47015C76.243 7.02979 76.2466 7.62311 76.0946 8.2501C76.0732 8.33841 76.0486 8.43997 76.0208 8.55477C75.9951 8.66074 75.9594 8.76902 75.9136 8.87963L70.3931 7.5911L70.6564 6.5049L74.3681 7.37127C74.446 6.93225 74.3709 6.55551 74.1429 6.24103C73.9239 5.92866 73.6029 5.72311 73.18 5.6244C72.8741 5.55299 72.5735 5.55748 72.2783 5.63787C71.9852 5.70942 71.728 5.86864 71.5065 6.11553C71.2941 6.36451 71.1354 6.70536 71.0306 7.13808L70.9375 7.52222C70.8497 7.88429 70.8402 8.21795 70.9088 8.52322C70.9886 8.82175 71.1362 9.07548 71.3518 9.28441C71.5695 9.48452 71.8448 9.62342 72.1778 9.70113C72.5107 9.77884 72.8023 9.77225 73.0525 9.68137C73.3117 9.59258 73.522 9.4504 73.6835 9.25483L75.5461 9.68959C75.3196 10.0752 75.0172 10.4012 74.6389 10.6675C74.2606 10.9337 73.832 11.1136 73.353 11.2071C72.874 11.3005 72.3691 11.2853 71.8382 11.1614Z" fill="white"/>
<path d="M79.1498 13.4629C78.6133 13.2396 78.2067 12.9717 77.9298 12.6593C77.6565 12.3385 77.4962 12.0005 77.4487 11.6455C77.4133 11.2857 77.4714 10.9303 77.6231 10.5793C77.7893 10.1949 78.0335 9.89724 78.3557 9.68628C78.6865 9.47887 79.0881 9.3749 79.5605 9.37436C80.0415 9.37737 80.5885 9.50648 81.2016 9.76168L82.7981 10.4263C82.9318 10.1171 82.9993 9.8445 83.0009 9.60849C83.006 9.36413 82.9409 9.1546 82.8054 8.97988C82.6699 8.80517 82.4532 8.65578 82.1551 8.53172C81.8316 8.39703 81.5241 8.35286 81.2328 8.39922C80.9537 8.44076 80.7271 8.59297 80.5532 8.85582L78.8801 8.15932C79.1177 7.72578 79.4346 7.39923 79.8309 7.17966C80.2394 6.95528 80.6962 6.83978 81.2014 6.83317C81.7151 6.8301 82.2359 6.93844 82.7638 7.1582C83.3684 7.40987 83.8487 7.72814 84.2048 8.11301C84.5609 8.49789 84.7769 8.92797 84.8528 9.40326C84.9287 9.87856 84.8475 10.392 84.6091 10.9435L82.9188 14.8544L81.4627 14.2483L81.6883 13.2033C81.5224 13.3315 81.3467 13.4358 81.1612 13.5163C80.9757 13.5969 80.7761 13.6518 80.5625 13.6812C80.3488 13.7106 80.1247 13.7061 79.8902 13.6676C79.652 13.6375 79.4052 13.5693 79.1498 13.4629ZM80.1219 12.3294C80.3433 12.4216 80.5554 12.4655 80.7582 12.4612C80.9732 12.4521 81.1734 12.4072 81.3589 12.3267C81.548 12.2378 81.7146 12.1198 81.8585 11.9727C82.0146 11.8207 82.1506 11.6456 82.2664 11.4473L82.2718 11.4348L80.9563 10.8871C80.6923 10.7773 80.4607 10.7203 80.2615 10.7163C80.0745 10.7074 79.9173 10.7455 79.7901 10.8306C79.6629 10.9157 79.5668 11.0335 79.5018 11.1839C79.4296 11.351 79.4083 11.5049 79.438 11.6454C79.4677 11.7859 79.5423 11.9156 79.6617 12.0343C79.7812 12.1531 79.9346 12.2514 80.1219 12.3294Z" fill="white"/>
<path d="M84.6295 15.8155L88.2288 9.93207L89.6561 10.7731L89.1466 11.9499C89.4465 11.7771 89.7582 11.6644 90.0818 11.6115C90.4133 11.5634 90.7488 11.5705 91.0882 11.6328C91.4356 11.6999 91.7798 11.8338 92.1208 12.0347L91.0995 13.7041L90.5524 13.3817C90.3145 13.2415 90.0758 13.1379 89.8363 13.0709C89.6047 13.0086 89.3755 12.9953 89.1487 13.031C88.9266 13.059 88.7116 13.1546 88.5038 13.318C88.2959 13.4814 88.0944 13.7227 87.8992 14.0418L86.2353 16.7617L84.6295 15.8155Z" fill="white"/>
<path d="M91.7858 20.7451C91.2868 20.3546 90.9164 19.9369 90.6745 19.4921C90.4326 19.0473 90.3193 18.6045 90.3345 18.1636C90.3497 17.7227 90.4841 17.3171 90.7378 16.9467L92.1913 18.0843C92.1178 18.2475 92.0784 18.4198 92.0729 18.6012C92.0731 18.7756 92.1196 18.9513 92.2123 19.1284C92.305 19.3055 92.4526 19.4732 92.6551 19.6317C92.8503 19.7845 93.0296 19.8842 93.1929 19.9308C93.362 19.9702 93.5129 19.9664 93.6457 19.9195C93.7858 19.8781 93.8962 19.8078 93.9769 19.7085C94.098 19.5594 94.1469 19.4119 94.1236 19.2659C94.106 19.1129 94.0343 18.9464 93.9083 18.7665C93.7824 18.5867 93.6203 18.3785 93.422 18.1421C93.2021 17.8886 92.9944 17.6274 92.799 17.3583C92.6166 17.0878 92.4739 16.8194 92.3709 16.553C92.268 16.2867 92.2307 16.0195 92.2592 15.7515C92.2877 15.4836 92.4086 15.2183 92.622 14.9557C92.8816 14.6364 93.199 14.4204 93.5744 14.3079C93.9556 14.1883 94.373 14.1841 94.8268 14.2954C95.2805 14.4068 95.7424 14.6464 96.2124 15.0143C96.8704 15.5293 97.2728 16.0823 97.4196 16.6733C97.5664 17.2642 97.4683 17.8434 97.1254 18.411L95.7479 17.3328C95.8372 17.1356 95.8434 16.9314 95.7665 16.7203C95.7026 16.5078 95.5477 16.3053 95.3019 16.1128C95.0416 15.9091 94.8052 15.7996 94.5929 15.7843C94.3805 15.769 94.2138 15.8359 94.0926 15.9849C94.0119 16.0842 93.9832 16.2069 94.0065 16.3529C94.0371 16.5045 94.1125 16.6738 94.2326 16.8608C94.3586 17.0406 94.5207 17.2488 94.7189 17.4853C95.0691 17.8987 95.3572 18.2867 95.5831 18.6493C95.8147 19.0048 95.9373 19.3562 95.9508 19.7035C95.9701 20.0437 95.8241 20.4054 95.5126 20.7886C95.2358 21.1292 94.8938 21.3608 94.4866 21.4833C94.0852 21.5987 93.6504 21.5951 93.1822 21.4724C92.7213 21.3554 92.2558 21.113 91.7858 20.7451Z" fill="white"/>
<path d="M101.31 30.5367C100.759 29.7853 100.445 29.0004 100.369 28.1818C100.292 27.3633 100.439 26.5771 100.809 25.8233C101.187 25.0643 101.778 24.401 102.581 23.8334C103.384 23.2658 104.208 22.9293 105.054 22.8237C105.907 22.7129 106.717 22.8227 107.484 23.1533C108.251 23.4839 108.91 24.0248 109.461 24.7762C110.018 25.5349 110.335 26.3235 110.411 27.1421C110.487 27.9606 110.334 28.7457 109.951 29.4974C109.581 30.2512 108.994 30.9119 108.191 31.4794C107.388 32.047 106.56 32.3862 105.706 32.4971C104.866 32.61 104.062 32.5011 103.295 32.1706C102.529 31.84 101.867 31.2954 101.31 30.5367ZM102.672 29.5739C103.018 30.0454 103.424 30.3736 103.891 30.5586C104.37 30.7457 104.882 30.7918 105.428 30.6969C105.974 30.6019 106.525 30.3582 107.08 29.9657C107.643 29.5679 108.053 29.1326 108.311 28.66C108.575 28.182 108.689 27.693 108.653 27.193C108.622 26.7003 108.434 26.2183 108.088 25.7468C107.747 25.2828 107.341 24.9546 106.87 24.7622C106.398 24.5698 105.889 24.5211 105.343 24.616C104.805 24.7056 104.254 24.9493 103.691 25.3471C103.136 25.7397 102.726 26.1749 102.461 26.6528C102.196 27.1308 102.078 27.6224 102.107 28.1278C102.144 28.6278 102.332 29.1099 102.672 29.5739Z" fill="white"/>
<path d="M105.357 36.5898L112.192 33.2914C112.715 33.039 113.173 32.9243 113.565 32.9471C113.958 32.97 114.305 33.1062 114.605 33.3558C114.909 33.6136 115.17 33.9583 115.386 34.39L115.766 35.1476L114.334 35.8385L114.077 35.3253C113.946 35.0647 113.798 34.9033 113.633 34.8414C113.481 34.7835 113.276 34.8167 113.018 34.9409L106.183 38.2393L105.357 36.5898ZM109.802 33.3976L111.209 32.7186L113.125 36.5431L111.718 37.222L109.802 33.3976Z" fill="white"/>
<path d="M109.076 45.2603L118.525 43.0596L119.999 49.1536L118.528 49.4963L117.486 45.1907L115.016 45.7661L115.961 49.6742L114.544 50.0043L113.599 46.0962L110.98 46.7061L112.021 51.0117L110.55 51.3544L109.076 45.2603Z" fill="white"/>
<path d="M110.808 52.8799L114.48 55.0847L117.781 52.374L117.931 54.3565L115.661 56.1732L118.178 57.6426L118.326 59.6115L114.655 57.4067L111.353 60.1174L111.205 58.1485L113.488 56.3308L110.957 54.8624L110.808 52.8799Z" fill="white"/>
<path d="M108.279 60.919L118.28 61.8469L118.123 63.4736L117.136 63.5872C117.325 63.7506 117.493 63.9394 117.639 64.1536C117.795 64.3686 117.911 64.6164 117.986 64.8969C118.069 65.1873 118.093 65.5177 118.057 65.8883C117.996 66.5299 117.78 67.0797 117.411 67.5378C117.041 67.9959 116.567 68.3394 115.988 68.5683C115.416 68.8071 114.781 68.894 114.081 68.829C113.381 68.7641 112.769 68.5614 112.244 68.221C111.729 67.8814 111.338 67.4531 111.072 66.936C110.806 66.419 110.703 65.8487 110.763 65.2251C110.812 64.7191 110.946 64.2893 111.166 63.9359C111.394 63.5923 111.686 63.3185 112.04 63.1143L108.103 62.749L108.279 60.919ZM112.435 64.9426C112.4 65.3041 112.452 65.628 112.592 65.9145C112.731 66.2101 112.945 66.4487 113.234 66.6305C113.523 66.8124 113.865 66.9217 114.261 66.9584C114.657 66.9951 115.015 66.9508 115.333 66.8254C115.661 66.7008 115.922 66.5061 116.114 66.2413C116.315 65.9865 116.433 65.6783 116.468 65.3168C116.502 64.9644 116.445 64.64 116.297 64.3436C116.157 64.0571 115.944 63.8184 115.655 63.6276C115.366 63.4457 115.024 63.3365 114.628 63.2997C114.232 63.263 113.87 63.3069 113.542 63.4315C113.223 63.5659 112.967 63.761 112.775 64.0168C112.582 64.2815 112.469 64.5901 112.435 64.9426Z" fill="white"/>
<path d="M109.122 73.6443C109.311 72.98 109.622 72.4291 110.054 71.9916C110.492 71.5654 111.011 71.279 111.61 71.1324C112.215 70.9971 112.861 71.0236 113.547 71.212C114.25 71.4053 114.829 71.7152 115.284 72.1417C115.748 72.5707 116.059 73.0802 116.217 73.6704C116.381 74.2718 116.368 74.909 116.176 75.5821C115.989 76.2377 115.679 76.7699 115.245 77.1786C114.811 77.5874 114.307 77.8588 113.731 77.9927C113.155 78.1267 112.55 78.1068 111.918 77.9331C111.829 77.9086 111.726 77.8805 111.611 77.8487C111.504 77.8193 111.395 77.78 111.284 77.7307L112.814 72.368L113.909 72.6689L112.881 76.2747C113.325 76.3683 113.711 76.3096 114.04 76.0984C114.367 75.8959 114.589 75.5892 114.706 75.1784C114.791 74.8812 114.798 74.5863 114.728 74.2936C114.667 74.0034 114.515 73.7449 114.272 73.518C114.027 73.2998 113.686 73.1308 113.25 73.0109L112.862 72.9045C112.497 72.8042 112.158 72.7816 111.844 72.8369C111.537 72.9034 111.273 73.0382 111.052 73.2413C110.839 73.4469 110.687 73.7115 110.595 74.0349C110.503 74.3583 110.498 74.6445 110.581 74.8934C110.661 75.1511 110.797 75.363 110.99 75.5291L110.474 77.3385C110.09 77.1011 109.77 76.7917 109.514 76.4103C109.258 76.0288 109.092 75.6014 109.015 75.128C108.939 74.6546 108.974 74.16 109.122 73.6443Z" fill="white"/>
<path d="M107.617 78.6212L114.014 81.393L113.341 82.8877L112.088 82.5382C112.3 82.8086 112.453 83.0981 112.547 83.4066C112.637 83.7235 112.671 84.051 112.651 84.3893C112.626 84.7359 112.533 85.0878 112.373 85.4448L110.558 84.6584L110.816 84.0854C110.928 83.8363 111.003 83.591 111.041 83.3494C111.075 83.1162 111.06 82.8913 110.995 82.6749C110.939 82.4621 110.816 82.2647 110.625 82.0827C110.434 81.9006 110.165 81.7345 109.818 81.5841L106.861 80.3027L107.617 78.6212Z" fill="white"/>
<path d="M105.106 83.8435L111.2 87.2077L110.282 88.8098L104.187 85.4456L105.106 83.8435ZM111.572 88.4753C111.735 88.1904 111.956 87.9998 112.234 87.9034C112.516 87.8193 112.79 87.8507 113.056 87.9976C113.322 88.1444 113.487 88.3556 113.552 88.631C113.621 88.9188 113.573 89.2051 113.41 89.4899C113.242 89.7826 113.018 89.971 112.736 90.0551C112.458 90.1515 112.186 90.1263 111.92 89.9794C111.654 89.8326 111.486 89.6153 111.418 89.3275C111.353 89.0521 111.404 88.768 111.572 88.4753Z" fill="white"/>
<path d="M101.004 89.862C101.422 89.3069 101.911 88.9003 102.474 88.6419C103.038 88.3963 103.626 88.3093 104.239 88.381C104.854 88.4654 105.448 88.7152 106.021 89.1303C106.609 89.5562 107.038 90.0477 107.309 90.6049C107.587 91.1675 107.693 91.7522 107.627 92.359C107.564 92.9786 107.32 93.5695 106.897 94.1318C106.485 94.6795 106.003 95.0689 105.45 95.3C104.896 95.531 104.326 95.6088 103.739 95.5332C103.152 95.4577 102.595 95.2286 102.066 94.8458C101.992 94.7919 101.906 94.7299 101.81 94.6598C101.72 94.5951 101.633 94.5204 101.547 94.4357L104.917 89.9555L105.833 90.6186L103.567 93.631C103.948 93.8732 104.33 93.953 104.714 93.8703C105.093 93.7948 105.411 93.5855 105.67 93.2423C105.856 92.994 105.97 92.7208 106.01 92.4228C106.058 92.1301 106.009 91.8355 105.865 91.5388C105.714 91.2494 105.457 90.9727 105.092 90.7085L104.769 90.474C104.464 90.2529 104.155 90.1136 103.841 90.056C103.53 90.0111 103.235 90.0451 102.954 90.1579C102.681 90.2761 102.443 90.4704 102.24 90.7406C102.037 91.0108 101.929 91.2766 101.916 91.5382C101.898 91.807 101.949 92.0526 102.069 92.275L100.932 93.7867C100.659 93.4311 100.472 93.0303 100.37 92.5845C100.269 92.1386 100.268 91.6811 100.368 91.212C100.468 90.7428 100.68 90.2928 101.004 89.862Z" fill="white"/>
<path d="M97.7987 94.0961L102.641 99.0472L101.449 100.169L100.562 99.4579C100.677 99.8775 100.678 100.304 100.564 100.739C100.444 101.179 100.187 101.585 99.793 101.956C99.3726 102.352 98.9357 102.6 98.4822 102.7C98.0287 102.8 97.5685 102.755 97.1015 102.566C96.6277 102.383 96.1571 102.053 95.6896 101.575L92.894 98.7159L94.2353 97.4525L96.906 100.183C97.2903 100.576 97.6716 100.796 98.0501 100.842C98.4218 100.895 98.7846 100.754 99.1382 100.421C99.3651 100.207 99.5174 99.9633 99.5951 99.6888C99.6662 99.4206 99.6556 99.1411 99.5636 98.8503C99.478 98.5661 99.3007 98.2865 99.0317 98.0114L96.4474 95.3689L97.7987 94.0961Z" fill="white"/>
<path d="M88.397 101.686C88.9795 101.3 89.5849 101.085 90.2131 101.041C90.8413 100.997 91.4346 101.113 91.993 101.389C92.5514 101.665 93.0273 102.089 93.4207 102.661C93.8245 103.247 94.0527 103.847 94.1052 104.458C94.1629 105.077 94.0536 105.664 93.7774 106.22C93.5064 106.783 93.0796 107.257 92.4971 107.644C91.7536 108.136 90.9969 108.359 90.227 108.31C89.4571 108.262 88.7728 107.949 88.1741 107.371L89.8182 106.281C90.0684 106.499 90.3564 106.609 90.6822 106.612C91.0003 106.62 91.3089 106.525 91.6078 106.327C91.8761 106.149 92.0709 105.922 92.1923 105.644C92.3113 105.379 92.3441 105.078 92.2907 104.741C92.2348 104.416 92.0878 104.081 91.8497 103.735C91.6685 103.472 91.4709 103.258 91.257 103.093C91.0482 102.935 90.8307 102.822 90.6046 102.753C90.3836 102.691 90.1629 102.679 89.9425 102.715C89.7144 102.757 89.5008 102.844 89.3015 102.976C89.1022 103.108 88.9454 103.261 88.831 103.436C88.709 103.615 88.6319 103.803 88.5997 104C88.5728 104.204 88.5984 104.411 88.6767 104.622L87.0326 105.712C86.7202 104.966 86.6861 104.228 86.9305 103.496C87.1723 102.777 87.6611 102.174 88.397 101.686Z" fill="white"/>
<path d="M80.7769 105.84C81.4178 105.556 82.0478 105.437 82.6669 105.482C83.2814 105.539 83.838 105.746 84.3366 106.103C84.8305 106.472 85.2237 106.975 85.5162 107.613C85.8163 108.266 85.9453 108.901 85.9034 109.517C85.8652 110.141 85.6661 110.702 85.3061 111.2C84.9415 111.709 84.4345 112.108 83.7851 112.395C83.1526 112.674 82.5376 112.782 81.9399 112.718C81.3423 112.653 80.8065 112.447 80.3323 112.099C79.8582 111.751 79.4863 111.283 79.2166 110.696C79.1786 110.613 79.1349 110.518 79.0855 110.41C79.04 110.311 79.0009 110.204 78.9684 110.089L84.1423 107.802L84.6095 108.82L81.1307 110.357C81.3421 110.752 81.6359 111.005 82.0122 111.118C82.38 111.234 82.762 111.204 83.1584 111.029C83.4451 110.902 83.6804 110.719 83.8642 110.478C84.0518 110.246 84.1565 109.966 84.1783 109.638C84.1917 109.313 84.1053 108.948 83.9192 108.542L83.754 108.182C83.5983 107.843 83.3983 107.573 83.154 107.372C82.9051 107.184 82.6303 107.071 82.3296 107.035C82.0327 107.007 81.7283 107.062 81.4162 107.2C81.1042 107.338 80.8774 107.518 80.7357 107.74C80.5857 107.965 80.5075 108.204 80.5013 108.455L78.7556 109.227C78.6951 108.786 78.7319 108.346 78.8658 107.909C78.9998 107.471 79.2274 107.072 79.5487 106.711C79.8699 106.35 80.2793 106.06 80.7769 105.84Z" fill="white"/>
<path d="M70.5909 114.278L70.6774 116.2L71.9456 114.743L72.8617 115.812L71.2241 116.795L73.0927 117.141L72.6585 118.38L70.9009 117.489L71.536 119.327L70.1981 119.564L70.15 117.622L68.8223 119.062L67.9892 118.061L69.6244 117.065L67.726 116.71L68.18 115.426L69.9129 116.336L69.2803 114.511L70.5909 114.278Z" fill="white"/>
<path d="M57.3407 110.314L57.1625 113.659L60.1035 120L57.9837 119.891L55.9482 115.069L56.3223 115.089L53.7995 119.677L51.6936 119.569L55.2921 113.563L55.4703 110.218L57.3407 110.314Z" fill="white"/>
<path d="M49.0162 109.078C49.7036 109.223 50.2831 109.493 50.7547 109.889C51.2154 110.292 51.5388 110.783 51.7249 111.36C51.9 111.945 51.913 112.579 51.7639 113.262C51.6109 113.963 51.3316 114.55 50.926 115.022C50.5184 115.502 50.0194 115.838 49.429 116.03C48.8276 116.228 48.1787 116.255 47.4823 116.108C46.804 115.966 46.2436 115.695 45.801 115.295C45.3584 114.896 45.0512 114.418 44.8793 113.862C44.7074 113.306 44.6902 112.713 44.8277 112.083C44.8471 111.994 44.8693 111.892 44.8945 111.777C44.9178 111.67 44.951 111.561 44.9943 111.45L50.5429 112.616L50.3047 113.708L46.5739 112.923C46.5062 113.364 46.5899 113.739 46.8251 114.048C47.0512 114.356 47.3768 114.554 47.8019 114.644C48.1094 114.708 48.4098 114.697 48.703 114.61C48.9944 114.532 49.2479 114.367 49.4636 114.116C49.6703 113.862 49.8211 113.518 49.916 113.083L50.0003 112.697C50.0797 112.333 50.0816 111.999 50.0059 111.695C49.9193 111.399 49.7659 111.148 49.5456 110.944C49.3233 110.749 49.0449 110.616 48.7102 110.546C48.3756 110.475 48.0843 110.488 47.8362 110.585C47.5791 110.679 47.3721 110.826 47.2151 111.025L45.343 110.632C45.5606 110.241 45.8555 109.909 46.2276 109.634C46.5996 109.36 47.024 109.17 47.5007 109.066C47.9775 108.962 48.4826 108.966 49.0162 109.078Z" fill="white"/>
<path d="M41.6339 106.933C42.1752 107.145 42.5878 107.404 42.8717 107.71C43.1521 108.025 43.3201 108.359 43.3756 108.713C43.419 109.072 43.3689 109.429 43.2252 109.783C43.0677 110.171 42.8303 110.474 42.5129 110.692C42.1869 110.906 41.7877 111.019 41.3154 111.03C40.8345 111.037 40.2847 110.92 39.666 110.678L38.0549 110.048C37.9283 110.36 37.8668 110.634 37.8706 110.87C37.871 111.115 37.9409 111.323 38.0803 111.494C38.2196 111.666 38.4397 111.811 38.7404 111.928C39.067 112.056 39.3753 112.094 39.6655 112.041C39.9437 111.993 40.1667 111.836 40.3346 111.57L42.0231 112.23C41.7953 112.668 41.4858 113.002 41.0946 113.23C40.6913 113.463 40.2372 113.588 39.7323 113.606C39.2187 113.62 38.6956 113.523 38.1629 113.315C37.5528 113.076 37.0654 112.769 36.7007 112.392C36.336 112.014 36.1104 111.589 36.0238 111.116C35.9372 110.642 36.0068 110.127 36.2327 109.57L37.8344 105.624L39.3038 106.198L39.1018 107.248C39.2648 107.116 39.4381 107.008 39.6217 106.923C39.8054 106.839 40.0037 106.78 40.2166 106.746C40.4295 106.712 40.6537 106.711 40.889 106.745C41.1278 106.77 41.3761 106.832 41.6339 106.933ZM40.6875 108.087C40.4641 108 40.2511 107.961 40.0484 107.97C39.8337 107.983 39.6346 108.033 39.4509 108.117C39.2639 108.21 39.1 108.332 38.9594 108.482C38.8068 108.637 38.6748 108.815 38.5634 109.016L38.5583 109.029L39.8859 109.548C40.1523 109.652 40.3851 109.704 40.5843 109.703C40.7715 109.708 40.9278 109.667 41.053 109.579C41.1783 109.491 41.2717 109.371 41.3333 109.219C41.4017 109.051 41.4195 108.896 41.3867 108.756C41.3539 108.617 41.2764 108.489 41.1543 108.372C41.0321 108.256 40.8766 108.161 40.6875 108.087Z" fill="white"/>
<path d="M36.1087 104.704L32.6431 110.664L31.1971 109.854L31.6799 108.666C31.384 108.846 31.0749 108.965 30.7526 109.025C30.4222 109.08 30.0867 109.081 29.7459 109.026C29.3971 108.966 29.05 108.84 28.7046 108.646L29.6879 106.955L30.2422 107.266C30.4832 107.4 30.7241 107.499 30.9651 107.561C31.198 107.618 31.4275 107.626 31.6534 107.586C31.8748 107.553 32.0876 107.452 32.2917 107.285C32.4958 107.117 32.6918 106.871 32.8798 106.548L34.4819 103.792L36.1087 104.704Z" fill="white"/>
<path d="M28.8455 99.9313C29.3531 100.311 29.7328 100.72 29.9847 101.16C30.2365 101.599 30.3598 102.04 30.3545 102.481C30.3492 102.922 30.2239 103.33 29.9786 103.706L28.5 102.6C28.5697 102.435 28.6053 102.262 28.6067 102.081C28.6025 101.907 28.5521 101.732 28.4554 101.557C28.3587 101.382 28.2074 101.217 28.0014 101.063C27.8028 100.915 27.6213 100.819 27.457 100.776C27.2871 100.74 27.1363 100.747 27.0045 100.797C26.8654 100.841 26.7567 100.914 26.6782 101.015C26.5604 101.167 26.5149 101.315 26.5415 101.461C26.5625 101.613 26.638 101.778 26.7679 101.955C26.8979 102.132 27.0646 102.337 27.2682 102.569C27.4938 102.818 27.7073 103.074 27.9087 103.339C28.0971 103.606 28.2458 103.871 28.3548 104.135C28.4637 104.399 28.5069 104.665 28.4845 104.934C28.4621 105.202 28.3471 105.47 28.1397 105.737C27.8874 106.062 27.5749 106.285 27.2021 106.406C26.8237 106.534 26.4065 106.547 25.9503 106.445C25.4942 106.344 25.0271 106.114 24.5489 105.757C23.8794 105.256 23.4647 104.712 23.3046 104.124C23.1446 103.537 23.2296 102.955 23.5597 102.381L24.9611 103.429C24.8763 103.628 24.8747 103.832 24.9563 104.041C25.025 104.252 25.1843 104.452 25.4345 104.639C25.6993 104.837 25.9381 104.941 26.1507 104.952C26.3634 104.962 26.5286 104.892 26.6463 104.74C26.7248 104.639 26.7507 104.516 26.7241 104.371C26.6901 104.22 26.611 104.052 26.4866 103.868C26.3567 103.691 26.1899 103.486 25.9864 103.254C25.627 102.848 25.3303 102.466 25.0963 102.109C24.8567 101.759 24.7262 101.41 24.7049 101.063C24.6779 100.723 24.8158 100.358 25.1185 99.9686C25.3876 99.622 25.7243 99.3831 26.1286 99.2518C26.5273 99.1277 26.9621 99.1219 27.433 99.2344C27.8965 99.3414 28.3673 99.5737 28.8455 99.9313Z" fill="white"/>
<path d="M19.1034 90.3496C19.6715 91.0888 20.0029 91.8668 20.0977 92.6835C20.1924 93.5002 20.0632 94.2893 19.7102 95.0509C19.3497 95.818 18.7744 96.494 17.9843 97.0788C17.1942 97.6637 16.3775 98.0181 15.5343 98.1419C14.6838 98.2713 13.8714 98.179 13.0973 97.8652C12.3232 97.5514 11.6521 97.0249 11.084 96.2857C10.5103 95.5392 10.1761 94.7577 10.0814 93.941C9.98663 93.1243 10.1223 92.336 10.4883 91.5762C10.8414 90.8145 11.413 90.1413 12.2031 89.5564C12.9932 88.9716 13.8136 88.6145 14.6641 88.4851C15.5018 88.354 16.3076 88.4454 17.0817 88.7592C17.8558 89.073 18.5297 89.6032 19.1034 90.3496ZM17.7631 91.3417C17.4067 90.8779 16.9933 90.5585 16.5229 90.3837C16.0396 90.2071 15.5262 90.1721 14.9826 90.2789C14.4391 90.3856 13.8941 90.6412 13.3476 91.0457C12.7938 91.4557 12.3936 91.8997 12.1471 92.3778C11.8931 92.8614 11.7899 93.3528 11.8376 93.8519C11.8796 94.3438 12.0789 94.8216 12.4353 95.2854C12.7862 95.742 13.1996 96.0613 13.6755 96.2434C14.1514 96.4255 14.6612 96.4632 15.2048 96.3564C15.7409 96.2551 16.2859 95.9995 16.8398 95.5896C17.3862 95.1851 17.7864 94.7411 18.0403 94.2575C18.2943 93.7739 18.4011 93.2798 18.3609 92.7752C18.3133 92.2761 18.114 91.7982 17.7631 91.3417Z" fill="white"/>
<path d="M14.9202 84.3858L8.1617 87.8329C7.64466 88.0966 7.18952 88.2213 6.79629 88.2071C6.40305 88.1928 6.0535 88.0642 5.74764 87.8212C5.43751 87.5702 5.16941 87.2313 4.94335 86.8044L4.54668 86.0553L5.9624 85.3333L6.23111 85.8407C6.3676 86.0984 6.51905 86.2565 6.68545 86.3148C6.83939 86.3693 7.04356 86.3316 7.29798 86.2019L14.0565 82.7547L14.9202 84.3858ZM10.5482 87.6745L9.15714 88.384L7.15459 84.6024L8.54568 83.8929L10.5482 87.6745Z" fill="white"/>
<path d="M11.0078 75.8051L1.61133 78.2139L-0.00154089 72.1539L1.46162 71.7788L2.60115 76.0603L5.05765 75.4306L4.02331 71.5443L5.43278 71.183L6.46712 75.0693L9.07129 74.4017L7.93176 70.1202L9.39492 69.7452L11.0078 75.8051Z" fill="white"/>
<path d="M9.10094 68.22L5.38037 66.0953L2.14062 68.877L1.9467 66.8982L4.17514 65.0327L1.62526 63.6183L1.43267 61.653L5.15324 63.7777L8.39298 60.9961L8.58558 62.9613L6.34333 64.828L8.90702 66.2412L9.10094 68.22Z" fill="white"/>
<path d="M11.4483 60.1288L1.42973 59.418L1.54976 57.7884L2.53341 57.6534C2.34113 57.4941 2.16929 57.309 2.01791 57.0981C1.85731 56.8865 1.73627 56.6412 1.6548 56.3624C1.56477 56.0739 1.53342 55.7441 1.56076 55.3729C1.60811 54.7301 1.81123 54.1757 2.17013 53.7097C2.52902 53.2437 2.99556 52.89 3.56974 52.6486C4.13537 52.3975 4.76874 52.2968 5.46985 52.3466C6.17096 52.3963 6.78761 52.5857 7.31978 52.9146C7.84272 53.243 8.24302 53.6627 8.52066 54.1739C8.79831 54.685 8.91412 55.2529 8.86811 55.8776C8.83076 56.3846 8.70617 56.8172 8.49432 57.1753C8.27392 57.5237 7.98899 57.8038 7.63955 58.0156L11.5833 58.2954L11.4483 60.1288ZM7.20324 56.1964C7.22992 55.8342 7.17023 55.5114 7.02418 55.2281C6.8788 54.9356 6.65957 54.7016 6.36647 54.5261C6.07338 54.3506 5.72849 54.2488 5.33181 54.2207C4.93512 54.1925 4.5789 54.2446 4.26313 54.3769C3.93814 54.5086 3.68228 54.7088 3.49555 54.9777C3.30027 55.2369 3.18929 55.5476 3.16261 55.9097C3.1366 56.2628 3.2009 56.5859 3.35551 56.879C3.50155 57.1624 3.72079 57.3963 4.01322 57.5809C4.30631 57.7564 4.6512 57.8582 5.04788 57.8864C5.44457 57.9145 5.80541 57.8628 6.1304 57.7311C6.44683 57.5897 6.69808 57.3891 6.88414 57.1293C7.07087 56.8604 7.17723 56.5495 7.20324 56.1964Z" fill="white"/>
<path d="M10.318 47.4265C10.1438 48.0948 9.84567 48.6524 9.42367 49.0993C8.995 49.5351 8.48298 49.8328 7.88761 49.9925C7.28558 50.1412 6.63957 50.1289 5.9496 49.9557C5.24171 49.7779 4.65563 49.4809 4.19135 49.0645C3.71811 48.6458 3.39564 48.1432 3.22395 47.5567C3.04558 46.9591 3.04466 46.3217 3.22119 45.6446C3.39313 44.985 3.69114 44.4461 4.11522 44.0279C4.5393 43.6097 5.03777 43.3273 5.61064 43.1807C6.1835 43.0341 6.78804 43.0406 7.42424 43.2004C7.51385 43.2229 7.6169 43.2487 7.73338 43.278C7.84091 43.305 7.95063 43.3419 8.06253 43.3887L6.65607 48.7838L5.55391 48.5071L6.49958 44.8796C6.05363 44.7957 5.66852 44.863 5.34427 45.0814C5.0223 45.291 4.80744 45.6025 4.69969 46.0158C4.62175 46.3148 4.62122 46.6098 4.69811 46.9008C4.76603 47.1896 4.92388 47.4447 5.17165 47.6662C5.42171 47.8789 5.76627 48.0404 6.20534 48.1507L6.59513 48.2485C6.96252 48.3408 7.3023 48.3558 7.61446 48.2936C7.91996 48.2204 8.18097 48.0798 8.39749 47.8719C8.60506 47.6616 8.75125 47.3938 8.83607 47.0684C8.92089 46.7431 8.91913 46.4569 8.83078 46.2098C8.74472 45.9539 8.60344 45.7451 8.40694 45.5834L8.88149 43.763C9.27054 43.9919 9.59749 44.2941 9.86235 44.6698C10.1272 45.0455 10.3032 45.4692 10.3903 45.9408C10.4774 46.4124 10.4533 46.9076 10.318 47.4265Z" fill="white"/>
<path d="M11.7096 42.4142L5.25142 39.7833L5.88969 38.2743L7.15052 38.5963C6.93244 38.3305 6.77303 38.0444 6.6723 37.738C6.5751 37.4233 6.53303 37.0965 6.54609 36.7579C6.56269 36.4108 6.64723 36.057 6.7997 35.6965L8.63208 36.443L8.38741 37.0215C8.28103 37.273 8.21164 37.5199 8.17925 37.7622C8.1504 37.9962 8.17063 38.2207 8.23993 38.4356C8.3007 38.6471 8.42868 38.8418 8.62387 39.0195C8.81906 39.1973 9.09177 39.3576 9.44202 39.5003L12.4276 40.7165L11.7096 42.4142Z" fill="white"/>
<path d="M14.1011 37.1369L7.932 33.9063L8.81372 32.2846L14.9829 35.5151L14.1011 37.1369ZM7.53154 32.6472C7.37479 32.9355 7.15848 33.1309 6.88261 33.2333C6.60294 33.3235 6.32846 33.2981 6.05917 33.1571C5.78989 33.0161 5.61963 32.8086 5.54841 32.5346C5.47339 32.2484 5.51425 31.9612 5.671 31.6729C5.83211 31.3766 6.0525 31.1833 6.33217 31.0931C6.60804 30.9907 6.88061 31.0099 7.1499 31.1509C7.41919 31.292 7.59135 31.5056 7.66637 31.7918C7.73759 32.0657 7.69265 32.3508 7.53154 32.6472Z" fill="white"/>
<path d="M18.0636 31.0318C17.6587 31.5958 17.1782 32.013 16.6219 32.2835C16.0634 32.5413 15.477 32.6411 14.8627 32.5827C14.2461 32.5117 13.6467 32.2749 13.0645 31.8723C12.4672 31.4593 12.0269 30.9772 11.7438 30.426C11.453 29.8697 11.3336 29.2874 11.3855 28.6793C11.4352 28.0585 11.6652 27.4624 12.0754 26.891C12.4749 26.3345 12.9486 25.9347 13.4965 25.6917C14.0443 25.4487 14.6125 25.3586 15.2011 25.4214C15.7896 25.4841 16.3523 25.7011 16.8892 26.0723C16.9648 26.1246 17.0517 26.1847 17.15 26.2527C17.2407 26.3154 17.3299 26.3882 17.4176 26.471L14.1492 31.0234L13.2192 30.3803L15.4168 27.3194C15.0303 27.0855 14.646 27.0141 14.2638 27.1051C13.8869 27.1887 13.5733 27.4049 13.3229 27.7537C13.1418 28.006 13.0345 28.2816 13.0009 28.5804C12.9599 28.874 13.015 29.1675 13.1664 29.461C13.3231 29.747 13.5867 30.0181 13.9572 30.2743L14.2861 30.5018C14.5961 30.7161 14.9082 30.8487 15.2225 30.8995C15.5346 30.9376 15.8295 30.8972 16.1072 30.7783C16.3773 30.6542 16.611 30.4549 16.8081 30.1803C17.0052 29.9058 17.1072 29.6376 17.1141 29.3759C17.1263 29.1067 17.0698 28.8622 16.9447 28.6425L18.0475 27.1065C18.3283 27.4561 18.5244 27.8527 18.636 28.2962C18.7475 28.7398 18.7585 29.1971 18.6692 29.6683C18.5798 30.1395 18.3779 30.594 18.0636 31.0318Z" fill="white"/>
<path d="M21.177 26.7272L16.2253 21.882L17.391 20.7346L18.2946 21.4264C18.1697 21.0094 18.1593 20.5826 18.2632 20.146C18.3738 19.7029 18.6217 19.2918 19.007 18.9125C19.4184 18.5076 19.8497 18.2502 20.3008 18.1404C20.7519 18.0307 21.213 18.0653 21.6842 18.2443C22.1619 18.4169 22.6398 18.7372 23.1179 19.205L25.977 22.0026L24.6643 23.2946L21.933 20.622C21.54 20.2375 21.1538 20.0262 20.7745 19.9883C20.4016 19.9439 20.0421 20.092 19.696 20.4327C19.4739 20.6513 19.3272 20.8986 19.2556 21.1747C19.1906 21.4444 19.2074 21.7236 19.306 22.0123C19.3979 22.2946 19.5815 22.5703 19.8566 22.8395L22.4995 25.4255L21.177 26.7272Z" fill="white"/>
<path d="M30.402 18.9381C29.8284 19.3368 29.228 19.565 28.6009 19.6227C27.9738 19.6803 27.3781 19.5772 26.8136 19.3133C26.2491 19.0493 25.7637 18.6359 25.3575 18.0729C24.9405 17.4951 24.6989 16.9011 24.6326 16.2909C24.561 15.6733 24.6569 15.0838 24.9205 14.5224C25.1788 13.9537 25.5947 13.4699 26.1684 13.0712C26.9005 12.5623 27.652 12.3237 28.4228 12.3552C29.1936 12.3868 29.8848 12.685 30.4964 13.2498L28.8774 14.3751C28.6223 14.1631 28.3319 14.059 28.0061 14.063C27.6879 14.0618 27.3815 14.1634 27.0872 14.368C26.823 14.5516 26.6333 14.7836 26.5182 15.0638C26.4053 15.3314 26.3793 15.633 26.4403 15.9688C26.5035 16.292 26.658 16.6239 26.9039 16.9647C27.091 17.224 27.2933 17.4337 27.511 17.5939C27.7232 17.7467 27.9432 17.8552 28.1709 17.9194C28.3932 17.9762 28.6141 17.984 28.8336 17.9426C29.0607 17.8961 29.2724 17.8046 29.4686 17.6682C29.6649 17.5318 29.8182 17.3751 29.9286 17.1983C30.0465 17.0162 30.1194 16.8266 30.147 16.6294C30.1694 16.4247 30.1391 16.2178 30.0561 16.0085L31.6751 14.8832C32.0043 15.6221 32.055 16.3599 31.8273 17.0966C31.6017 17.8207 31.1267 18.4345 30.402 18.9381Z" fill="white"/>
<path d="M37.926 14.6199C37.2917 14.9172 36.6645 15.0502 36.0446 15.0189C35.4289 14.9755 34.8678 14.7808 34.3612 14.4348C33.8589 14.0767 33.4543 13.5823 33.1474 12.9516C32.8325 12.3045 32.689 11.6726 32.717 11.056C32.7409 10.4311 32.9271 9.86602 33.2757 9.36064C33.6286 8.84315 34.1264 8.4338 34.7691 8.13258C35.395 7.83919 36.0075 7.71811 36.6064 7.76935C37.2054 7.82059 37.7458 8.01492 38.2277 8.35235C38.7097 8.68978 39.0922 9.14928 39.3752 9.73085C39.415 9.81276 39.4609 9.90695 39.5127 10.0134C39.5605 10.1117 39.602 10.218 39.6371 10.3323L34.5167 12.7323L34.0264 11.7248L37.4693 10.1111C37.2489 9.7215 36.9494 9.47461 36.5707 9.37044C36.2003 9.26236 35.819 9.30025 35.4268 9.4841C35.143 9.61711 34.912 9.80586 34.7337 10.0504C34.5515 10.2867 34.4532 10.5691 34.4388 10.8978C34.4328 11.2225 34.5275 11.5855 34.7228 11.9869L34.8962 12.3432C35.0596 12.679 35.2657 12.9445 35.5145 13.1398C35.7676 13.3229 36.0449 13.4293 36.3464 13.4591C36.6438 13.4806 36.947 13.419 37.2558 13.2742C37.5646 13.1295 37.7873 12.9447 37.9238 12.7197C38.0687 12.4909 38.1414 12.2506 38.1419 11.9989L39.8696 11.1891C39.9401 11.6288 39.9133 12.0689 39.7894 12.5092C39.6654 12.9496 39.447 13.3538 39.134 13.7217C38.8211 14.0897 38.4184 14.3891 37.926 14.6199Z" fill="white"/>
<path d="M47.9395 5.95424L47.81 4.03475L46.5747 5.51843L45.6349 4.46963L47.2501 3.45191L45.3743 3.14607L45.7806 1.89761L47.5578 2.75121L46.8818 0.927096L48.214 0.660732L48.3055 2.60172L49.6007 1.13385L50.4559 2.11619L48.8435 3.14725L50.7492 3.461L50.3241 4.75492L48.5713 3.88254L49.2446 5.69331L47.9395 5.95424Z" fill="white"/>
</svg>
